{"glyphs":{"0":{"ha":894,"x_min":67,"x_max":828,"o":"m 731 106 q 683 46 731 106 q 447 -14 635 -14 q 163 106 260 -14 q 67 458 67 225 q 163 811 67 692 q 447 931 260 931 q 731 811 635 931 q 828 458 828 692 q 731 106 828 225 m 337 239 q 354 206 337 239 q 447 172 371 172 q 558 239 524 172 q 592 458 592 306 q 558 678 592 611 q 447 744 524 744 q 337 678 371 744 q 303 458 303 611 q 337 239 303 306 z "},"1":{"ha":599,"x_min":26,"x_max":496,"o":"m 265 0 l 265 528 q 266 603 265 551 q 267 681 267 654 q 49 565 167 588 l 26 763 q 185 819 99 771 q 306 917 272 867 l 496 917 l 496 0 l 265 0 z "},"2":{"ha":828,"x_min":54,"x_max":771,"o":"m 83 0 l 83 153 q 419 409 315 297 q 522 619 522 521 q 490 709 522 675 q 399 743 458 743 q 297 695 333 743 q 258 556 260 647 l 54 618 q 156 849 57 767 q 414 931 256 931 q 672 843 583 931 q 760 636 760 756 q 663 399 760 507 q 371 178 567 290 l 371 176 q 556 182 463 182 l 771 182 l 771 0 l 83 0 z "},"3":{"ha":824,"x_min":38,"x_max":763,"o":"m 418 -14 q 174 44 271 -14 q 38 213 76 103 l 257 307 q 408 171 272 171 q 499 201 465 171 q 532 282 532 231 q 410 382 532 382 q 342 378 379 382 l 342 533 q 390 531 369 531 q 483 558 454 531 q 513 643 513 585 q 484 719 513 693 q 404 746 456 746 q 271 621 290 746 l 61 693 q 181 867 83 804 q 419 931 279 931 q 660 863 575 931 q 744 679 744 796 q 687 522 744 575 q 572 463 629 468 l 572 458 q 630 448 600 458 q 691 417 660 438 q 742 358 722 397 q 763 265 763 318 q 665 63 763 139 q 418 -14 568 -14 z "},"4":{"ha":897,"x_min":60,"x_max":858,"o":"m 507 0 l 507 201 l 60 201 l 60 351 q 140 479 90 401 l 439 917 l 718 917 l 718 365 l 858 365 l 858 201 l 718 201 l 718 0 l 507 0 m 251 365 l 510 365 l 510 643 q 512 709 510 664 q 514 761 514 754 l 511 761 q 443 644 478 696 l 281 407 l 251 365 z "},"5":{"ha":810,"x_min":42,"x_max":757,"o":"m 397 -14 q 42 185 154 -14 l 251 289 q 403 167 286 167 q 505 201 468 167 q 542 300 542 235 q 403 426 542 426 q 256 372 306 426 l 75 406 l 133 917 l 711 917 l 711 732 l 307 732 l 283 549 l 279 526 l 281 526 q 469 592 339 592 q 680 515 603 592 q 757 314 757 438 q 655 70 757 154 q 397 -14 553 -14 z "},"6":{"ha":856,"x_min":67,"x_max":807,"o":"m 475 931 q 793 728 725 931 l 599 636 q 460 742 567 742 q 332 669 379 742 q 285 472 285 597 l 285 450 l 288 442 q 376 536 311 501 q 513 571 440 571 q 724 496 642 571 q 807 293 807 421 q 713 69 807 151 q 463 -14 619 -14 q 174 106 281 -14 q 67 450 67 226 q 180 808 67 685 q 475 931 293 931 m 458 410 q 365 376 401 410 q 328 288 328 343 q 365 200 328 235 q 458 165 403 165 q 555 197 521 165 q 589 288 589 229 q 555 378 589 346 q 458 410 521 410 z "},"7":{"ha":844,"x_min":46,"x_max":800,"o":"m 46 917 l 800 917 l 800 747 q 568 407 636 589 q 500 0 500 225 l 264 0 q 567 729 264 418 l 46 729 l 46 917 z "},"8":{"ha":871,"x_min":63,"x_max":808,"o":"m 186 860 q 233 894 186 860 q 435 928 279 928 q 683 860 590 928 q 776 676 776 793 q 633 469 776 524 l 633 468 q 808 250 808 411 q 708 58 808 129 q 435 -14 608 -14 q 163 58 263 -14 q 63 250 63 129 q 238 468 63 411 l 238 469 q 93 676 93 522 q 186 860 93 792 m 524 726 q 508 740 524 726 q 435 754 492 754 q 346 726 378 754 q 314 649 314 699 q 347 572 314 600 q 435 543 379 543 q 524 572 492 543 q 557 649 557 600 q 524 726 557 699 m 435 160 q 539 190 501 160 q 576 274 576 221 q 539 358 576 328 q 435 388 501 388 q 332 358 369 388 q 294 274 294 328 q 332 190 294 221 q 435 160 369 160 z "},"9":{"ha":856,"x_min":57,"x_max":790,"o":"m 407 931 q 692 810 594 931 q 790 461 790 690 q 687 104 790 222 q 407 -14 583 -14 q 68 186 150 -14 l 282 271 q 411 167 307 167 q 578 426 578 167 l 578 449 l 574 449 q 490 358 551 389 q 353 328 429 328 q 139 406 221 328 q 57 614 57 485 q 152 845 57 760 q 407 931 247 931 m 407 747 q 311 713 346 747 q 276 619 276 679 q 313 533 276 565 q 407 501 349 501 q 501 535 464 501 q 538 624 538 568 q 501 714 538 681 q 407 747 464 747 z "},"\u0000":{"ha":0,"x_min":0,"x_max":0,"o":""},"\r":{"ha":397,"x_min":0,"x_max":0,"o":""}," ":{"ha":397,"x_min":0,"x_max":0,"o":""},"!":{"ha":418,"x_min":75,"x_max":343,"o":"m 332 917 l 332 621 l 306 299 l 113 299 l 86 621 l 86 917 l 332 917 m 110 190 q 128 206 110 190 q 208 221 146 221 q 307 190 271 221 q 343 104 343 160 q 307 19 343 50 q 208 -11 271 -11 q 110 19 146 -11 q 75 104 75 50 q 110 190 75 160 z "},"\"":{"ha":621,"x_min":88,"x_max":560,"o":"m 560 942 l 519 557 l 363 557 l 363 942 l 560 942 m 285 942 l 244 557 l 88 557 l 88 942 l 285 942 z "},"#":{"ha":956,"x_min":36,"x_max":919,"o":"m 860 363 l 860 221 l 682 221 l 646 0 l 486 0 l 522 221 l 342 221 l 307 0 l 146 0 l 181 221 l 36 221 l 36 363 l 204 363 l 235 554 l 96 554 l 96 696 l 257 696 l 293 917 l 454 917 l 418 696 l 599 696 l 633 917 l 794 917 l 760 696 l 919 696 l 919 554 l 736 554 l 706 363 l 860 363 m 365 363 l 544 363 l 575 554 l 396 554 l 365 363 z "},"$":{"ha":890,"x_min":29,"x_max":838,"o":"m 382 -122 l 382 4 q 180 56 272 14 q 29 160 88 97 l 142 315 q 382 181 219 208 l 382 374 l 325 388 q 69 628 69 447 q 153 819 69 742 q 382 914 236 897 l 382 1039 l 528 1039 l 528 914 q 838 765 719 893 l 729 625 q 528 740 640 718 l 528 542 l 574 532 q 769 446 707 503 q 831 292 831 389 q 749 95 831 169 q 528 4 667 21 l 528 -122 l 382 -122 m 283 660 q 303 611 283 631 q 382 575 324 592 l 382 744 q 283 660 283 728 m 624 261 q 528 339 624 314 l 528 176 q 624 261 624 194 z "},"%":{"ha":1303,"x_min":42,"x_max":1260,"o":"m 113 859 q 148 895 113 859 q 300 931 183 931 q 488 859 417 931 q 558 669 558 788 q 488 480 558 551 q 300 408 417 408 q 113 480 183 408 q 42 669 42 551 q 113 859 42 788 m 243 0 l 881 918 l 1061 918 l 424 0 l 243 0 m 300 772 q 218 669 218 772 q 300 567 218 567 q 383 669 383 567 q 300 772 383 772 m 814 437 q 849 473 814 437 q 1001 508 885 508 q 1189 437 1118 508 q 1260 247 1260 365 q 1189 58 1260 129 q 1001 -14 1118 -14 q 814 58 885 -14 q 743 247 743 129 q 814 437 743 365 m 1001 350 q 940 323 961 350 q 918 247 918 296 q 940 172 918 199 q 1001 144 961 144 q 1085 247 1085 144 q 1001 350 1085 350 z "},"&":{"ha":897,"x_min":35,"x_max":892,"o":"m 357 -14 q 123 52 210 -14 q 35 239 36 118 q 218 485 35 418 q 147 594 165 549 q 129 696 129 640 q 202 861 129 792 q 414 931 275 931 q 614 868 546 931 q 682 715 682 806 q 478 465 682 543 q 547 389 488 456 q 640 289 632 299 q 672 471 674 368 l 831 467 q 742 193 831 303 q 892 151 810 142 l 871 -14 q 740 3 793 -14 q 621 71 686 19 q 357 -14 518 -14 m 331 689 q 344 633 331 660 q 400 554 358 606 q 475 624 454 592 q 496 699 496 656 q 474 755 496 735 q 415 775 453 775 q 353 751 375 775 q 331 689 331 728 m 238 257 q 279 172 238 204 q 389 140 321 140 q 515 167 456 140 q 432 251 463 219 q 374 313 419 264 q 307 383 328 361 q 253 327 268 356 q 238 257 238 299 z "},"'":{"ha":347,"x_min":88,"x_max":285,"o":"m 285 942 l 244 557 l 88 557 l 88 942 l 285 942 z "},"(":{"ha":543,"x_min":93,"x_max":529,"o":"m 418 1022 l 529 914 q 358 681 411 807 q 306 379 306 556 q 358 76 306 203 q 529 -157 411 -50 l 418 -265 q 93 379 93 -49 q 418 1022 93 806 z "},")":{"ha":543,"x_min":14,"x_max":450,"o":"m 125 -265 l 14 -157 q 184 75 132 -51 q 236 378 236 201 q 184 682 236 556 q 14 914 132 808 l 125 1022 q 450 378 450 801 q 125 -265 450 -47 z "},"*":{"ha":817,"x_min":54,"x_max":764,"o":"m 106 854 l 285 792 l 342 760 l 329 824 l 324 1014 l 492 1014 l 488 824 l 475 760 l 532 792 l 713 854 l 764 694 l 581 640 l 517 633 l 564 589 l 679 438 l 543 339 l 435 496 l 408 554 l 381 496 l 272 339 l 138 438 l 253 589 l 300 633 l 235 640 l 54 694 l 106 854 z "},"+":{"ha":839,"x_min":71,"x_max":768,"o":"m 768 536 l 768 367 l 514 367 l 514 83 l 326 83 l 326 367 l 71 367 l 71 536 l 326 536 l 326 818 l 514 818 l 514 536 l 768 536 z "},",":{"ha":403,"x_min":58,"x_max":347,"o":"m 197 239 q 308 190 269 239 q 347 68 347 142 q 291 -104 347 -24 q 154 -219 235 -185 l 58 -149 q 160 -85 115 -125 q 224 -1 204 -46 l 217 3 q 169 -8 199 -8 q 92 22 126 -8 q 58 106 58 51 q 99 203 58 168 q 197 239 139 239 z "},"-":{"ha":733,"x_min":113,"x_max":621,"o":"m 621 468 l 621 275 l 113 275 l 113 468 l 621 468 z "},".":{"ha":403,"x_min":63,"x_max":340,"o":"m 99 206 q 118 222 99 206 q 201 239 136 239 q 303 206 267 239 q 340 113 340 172 q 303 21 340 54 q 201 -12 267 -12 q 99 21 136 -12 q 63 113 63 54 q 99 206 63 172 z "},"/":{"ha":650,"x_min":21,"x_max":629,"o":"m 629 989 l 240 -97 l 21 -97 l 410 989 l 629 989 z "},":":{"ha":419,"x_min":71,"x_max":349,"o":"m 108 675 q 126 692 108 675 q 210 708 144 708 q 312 675 275 708 q 349 583 349 642 q 312 491 349 524 q 210 458 275 458 q 108 491 144 458 q 71 583 71 524 q 108 675 71 642 m 108 206 q 126 222 108 206 q 210 239 144 239 q 312 206 275 239 q 349 113 349 172 q 312 21 349 54 q 210 -12 275 -12 q 108 21 144 -12 q 71 113 71 54 q 108 206 71 172 z "},";":{"ha":419,"x_min":67,"x_max":356,"o":"m 108 674 q 126 691 108 674 q 210 707 144 707 q 312 674 275 707 q 349 582 349 642 q 312 490 349 524 q 210 457 275 457 q 108 490 144 457 q 71 582 71 524 q 108 674 71 642 m 206 239 q 317 190 278 239 q 356 68 356 142 q 299 -104 356 -24 q 163 -219 242 -185 l 67 -149 q 169 -85 124 -125 q 232 -1 214 -44 l 225 3 q 176 -8 207 -8 q 101 22 135 -8 q 67 106 67 51 q 107 203 67 168 q 206 239 147 239 z "},"<":{"ha":839,"x_min":88,"x_max":768,"o":"m 768 7 l 88 310 l 88 514 l 768 817 l 768 593 l 271 413 l 768 232 l 768 7 z "},"=":{"ha":839,"x_min":90,"x_max":749,"o":"m 749 671 l 749 508 l 90 508 l 90 671 l 749 671 m 749 371 l 749 208 l 90 208 l 90 371 l 749 371 z "},">":{"ha":839,"x_min":71,"x_max":751,"o":"m 71 817 l 751 514 l 751 310 l 71 7 l 71 231 l 568 411 l 71 592 l 71 817 z "},"?":{"ha":843,"x_min":44,"x_max":785,"o":"m 428 931 q 686 864 588 931 q 785 672 785 797 q 521 417 785 444 l 507 297 l 299 297 l 300 508 q 478 551 426 519 q 531 640 531 583 q 411 739 531 739 q 272 599 292 739 l 44 678 q 165 862 71 793 q 428 931 260 931 m 407 224 q 505 193 469 224 q 540 107 540 163 q 505 20 540 51 q 407 -11 469 -11 q 308 20 343 -11 q 272 107 272 51 q 308 193 272 163 q 407 224 343 224 z "},"@":{"ha":1293,"x_min":57,"x_max":1231,"o":"m 647 -257 q 221 -104 385 -257 q 57 318 57 49 q 233 754 57 585 q 678 924 408 924 q 1078 776 925 924 q 1231 390 1231 628 q 1202 206 1231 286 q 1128 81 1174 126 q 1030 13 1082 35 q 924 -10 978 -10 q 778 38 829 -10 q 732 163 728 85 q 644 51 701 92 q 517 11 586 11 q 365 82 424 11 q 306 275 306 153 q 389 535 306 424 q 606 646 472 646 q 720 611 671 646 q 783 506 769 576 l 814 633 l 1017 633 l 926 238 q 917 178 917 196 q 982 110 917 110 q 1083 178 1042 110 q 1125 382 1125 247 q 1002 702 1125 583 q 679 821 879 821 q 317 683 456 821 q 178 318 178 546 q 314 -31 178 92 q 657 -154 450 -154 q 929 -75 808 -154 l 981 -161 q 835 -232 910 -207 q 647 -257 760 -257 m 608 163 q 708 231 668 163 q 747 383 747 300 q 722 464 747 435 q 653 493 697 493 q 548 426 589 493 q 507 281 507 358 q 608 163 507 163 z "},"A":{"ha":940,"x_min":6,"x_max":935,"o":"m 935 0 l 689 0 l 625 207 l 311 207 l 246 0 l 6 0 l 328 917 l 614 917 l 935 0 m 356 369 l 581 369 l 468 740 l 356 369 z "},"B":{"ha":950,"x_min":101,"x_max":901,"o":"m 101 0 l 101 917 l 547 917 q 878 669 878 915 q 831 533 878 589 q 692 464 783 478 l 692 463 q 848 391 794 449 q 901 247 901 333 q 817 64 901 128 q 568 0 732 0 l 101 0 m 332 542 l 506 542 q 633 642 633 542 q 506 742 633 742 l 332 742 l 332 542 m 332 168 l 528 168 q 657 271 657 168 q 528 371 657 371 l 332 371 l 332 168 z "},"C":{"ha":946,"x_min":63,"x_max":914,"o":"m 914 263 q 769 55 875 124 q 513 -14 664 -14 q 183 112 303 -14 q 63 458 63 238 q 183 805 63 679 q 511 931 303 931 q 765 867 661 931 q 903 678 869 804 l 693 593 q 631 709 674 675 q 519 743 589 743 q 363 670 418 743 q 307 458 307 597 q 521 174 307 174 q 697 324 665 174 l 914 263 z "},"D":{"ha":997,"x_min":101,"x_max":935,"o":"m 490 917 q 820 798 706 917 q 935 458 935 679 q 820 119 935 238 q 490 0 706 0 l 101 0 l 101 917 l 490 917 m 467 181 q 636 250 582 181 q 690 458 690 319 q 636 667 690 597 q 467 736 582 736 l 340 736 l 340 181 l 467 181 z "},"E":{"ha":876,"x_min":101,"x_max":833,"o":"m 101 0 l 101 917 l 815 917 l 815 732 l 340 732 l 340 546 l 718 546 l 718 372 l 340 372 l 340 185 l 833 185 l 833 0 l 101 0 z "},"F":{"ha":850,"x_min":101,"x_max":814,"o":"m 814 732 l 340 732 l 340 538 l 718 538 l 718 353 l 340 353 l 340 0 l 101 0 l 101 917 l 814 917 l 814 732 z "},"G":{"ha":1004,"x_min":63,"x_max":922,"o":"m 481 -14 q 177 110 292 -14 q 63 457 63 233 q 185 804 63 678 q 521 931 308 931 q 772 874 676 931 q 921 696 868 818 l 700 608 q 522 743 667 743 q 363 670 418 743 q 307 458 307 597 q 535 168 307 168 q 669 207 618 168 q 719 321 719 246 l 719 335 l 510 335 l 510 494 l 922 494 l 922 0 l 760 0 l 750 113 q 481 -14 671 -14 z "},"H":{"ha":1031,"x_min":101,"x_max":929,"o":"m 340 917 l 340 554 l 690 554 l 690 917 l 929 917 l 929 0 l 690 0 l 690 369 l 340 369 l 340 0 l 101 0 l 101 917 l 340 917 z "},"I":{"ha":442,"x_min":101,"x_max":340,"o":"m 340 917 l 340 0 l 101 0 l 101 917 l 340 917 z "},"J":{"ha":858,"x_min":21,"x_max":774,"o":"m 774 917 l 774 353 q 674 83 774 179 q 390 -14 574 -14 q 108 89 194 -14 q 49 363 21 192 l 282 404 q 293 227 265 281 q 399 174 321 174 q 503 222 472 174 q 535 378 535 271 l 535 917 l 774 917 z "},"K":{"ha":963,"x_min":101,"x_max":950,"o":"m 340 917 l 340 510 l 668 917 l 933 917 l 622 544 l 950 0 l 679 0 l 451 393 l 340 258 l 340 0 l 101 0 l 101 917 l 340 917 z "},"L":{"ha":836,"x_min":101,"x_max":800,"o":"m 340 185 l 800 185 l 800 0 l 101 0 l 101 917 l 340 917 l 340 185 z "},"M":{"ha":1264,"x_min":101,"x_max":1163,"o":"m 1163 917 l 1163 0 l 951 0 l 951 421 l 958 703 l 956 703 l 729 0 l 536 0 l 310 703 l 307 703 l 314 421 l 314 0 l 101 0 l 101 917 l 442 917 l 586 450 l 638 256 l 640 256 l 693 449 l 836 917 l 1163 917 z "},"N":{"ha":1029,"x_min":101,"x_max":928,"o":"m 928 917 l 928 0 l 663 0 l 378 496 l 308 632 l 307 632 l 313 463 l 313 0 l 101 0 l 101 917 l 367 917 l 651 421 l 721 285 l 722 285 l 717 454 l 717 917 l 928 917 z "},"O":{"ha":1024,"x_min":63,"x_max":961,"o":"m 183 805 q 243 868 183 805 q 513 931 303 931 q 842 805 722 931 q 961 458 961 679 q 842 112 961 238 q 513 -14 722 -14 q 183 112 303 -14 q 63 458 63 238 q 183 805 63 679 m 665 671 q 639 707 665 671 q 513 743 613 743 q 360 671 413 743 q 307 458 307 599 q 360 246 307 318 q 513 174 413 174 q 665 246 613 174 q 717 458 717 318 q 665 671 717 599 z "},"P":{"ha":928,"x_min":101,"x_max":876,"o":"m 522 917 q 783 836 689 917 q 876 611 876 756 q 783 385 876 465 q 522 306 689 306 l 340 306 l 340 0 l 101 0 l 101 917 l 522 917 m 485 485 q 636 611 636 485 q 485 738 636 738 l 340 738 l 340 485 l 485 485 z "},"Q":{"ha":1024,"x_min":63,"x_max":961,"o":"m 744 -282 q 519 -213 603 -282 q 436 -18 436 -144 l 436 -10 q 161 136 260 14 q 63 458 63 258 q 183 805 63 679 q 513 931 303 931 q 842 805 722 931 q 961 458 961 679 q 861 134 961 257 q 583 -10 761 11 q 746 -107 603 -107 q 914 -60 856 -107 l 950 -225 q 744 -282 876 -282 m 665 671 q 639 707 665 671 q 513 743 613 743 q 360 671 413 743 q 307 458 307 599 q 360 246 307 318 q 513 174 413 174 q 665 246 613 174 q 717 458 717 318 q 665 671 717 599 z "},"R":{"ha":957,"x_min":101,"x_max":939,"o":"m 539 917 q 793 841 701 917 q 885 635 885 765 q 700 369 885 432 l 939 0 l 675 0 l 479 335 l 336 335 l 336 0 l 101 0 l 101 917 l 539 917 m 506 504 q 644 621 644 504 q 506 736 644 736 l 336 736 l 336 504 l 506 504 z "},"S":{"ha":896,"x_min":22,"x_max":856,"o":"m 460 931 q 856 775 711 931 l 740 621 q 456 746 619 746 q 313 660 313 746 q 428 576 313 603 l 582 542 q 783 449 719 511 q 847 286 847 388 q 740 65 847 143 q 460 -14 633 -14 q 208 31 324 -14 q 22 150 92 75 l 138 310 q 278 210 190 249 q 457 171 365 171 q 601 256 601 171 q 579 306 601 286 q 501 339 557 326 l 332 376 q 64 632 64 433 q 170 847 64 764 q 460 931 276 931 z "},"T":{"ha":907,"x_min":35,"x_max":872,"o":"m 872 917 l 872 732 l 574 732 l 574 0 l 335 0 l 335 732 l 35 732 l 35 917 l 872 917 z "},"U":{"ha":986,"x_min":83,"x_max":903,"o":"m 903 917 l 903 374 q 493 -14 903 -14 q 83 374 83 -14 l 83 917 l 324 917 l 324 369 q 493 174 324 174 q 664 369 664 174 l 664 917 l 903 917 z "},"V":{"ha":949,"x_min":8,"x_max":940,"o":"m 940 917 l 615 0 l 335 0 l 8 917 l 260 917 l 428 363 l 478 182 l 526 360 l 697 917 l 940 917 z "},"W":{"ha":1385,"x_min":14,"x_max":1371,"o":"m 278 0 l 14 917 l 268 917 l 424 193 l 588 917 l 804 917 l 972 194 l 1125 917 l 1371 917 l 1106 0 l 846 0 l 738 444 l 696 668 l 693 668 l 653 444 l 546 0 l 278 0 z "},"X":{"ha":921,"x_min":15,"x_max":910,"o":"m 910 0 l 625 0 l 453 293 l 286 0 l 15 0 l 326 461 l 33 917 l 315 917 l 472 636 l 631 917 l 890 917 l 597 468 l 910 0 z "},"Y":{"ha":913,"x_min":13,"x_max":899,"o":"m 899 917 l 575 335 l 575 0 l 336 0 l 336 335 l 13 917 l 260 917 l 389 665 l 457 513 l 526 665 l 656 917 l 899 917 z "},"Z":{"ha":881,"x_min":51,"x_max":838,"o":"m 838 181 l 838 0 l 51 0 l 51 172 l 564 736 l 61 736 l 61 917 l 821 917 l 821 744 l 311 181 l 838 181 z "},"[":{"ha":543,"x_min":118,"x_max":507,"o":"m 507 825 l 322 825 l 322 -68 l 507 -68 l 507 -233 l 118 -233 l 118 990 l 507 990 l 507 825 z "},"\\":{"ha":650,"x_min":21,"x_max":629,"o":"m 21 989 l 240 989 l 629 -97 l 410 -97 l 21 989 z "},"]":{"ha":543,"x_min":36,"x_max":425,"o":"m 36 -68 l 221 -68 l 221 825 l 36 825 l 36 990 l 425 990 l 425 -233 l 36 -233 l 36 -68 z "},"^":{"ha":850,"x_min":35,"x_max":817,"o":"m 35 493 l 325 1006 l 525 1006 l 817 493 l 608 493 l 425 850 l 243 493 l 35 493 z "},"_":{"ha":749,"x_min":0,"x_max":749,"o":"m 749 -92 l 749 -279 l 0 -279 l 0 -92 l 749 -92 z "},"`":{"ha":694,"x_min":192,"x_max":504,"o":"m 411 1025 l 504 785 l 332 785 l 192 1025 l 411 1025 z "},"a":{"ha":804,"x_min":44,"x_max":796,"o":"m 472 440 q 445 517 472 489 q 372 546 418 546 q 249 442 271 546 l 49 489 q 153 650 68 592 q 386 708 239 708 q 623 640 539 708 q 707 444 707 572 l 707 190 q 756 136 707 136 q 796 142 781 136 l 782 7 q 681 -12 740 -12 q 504 92 538 -12 q 415 13 476 40 q 278 -14 353 -14 q 107 35 169 -14 q 44 178 44 85 q 232 371 44 332 l 472 421 l 472 440 m 297 247 q 288 239 297 247 q 278 200 278 231 q 299 154 278 169 q 353 139 319 139 q 438 169 404 139 q 472 257 472 199 l 472 296 l 360 272 q 297 247 317 264 z "},"b":{"ha":871,"x_min":85,"x_max":817,"o":"m 531 -14 q 388 31 449 -14 q 300 153 328 76 l 292 0 l 85 0 l 85 989 l 321 989 l 321 575 q 539 708 383 708 q 740 611 663 708 q 817 344 817 514 q 739 81 817 176 q 531 -14 661 -14 m 449 160 q 579 347 579 160 q 449 535 579 535 q 355 485 389 535 q 321 346 321 435 q 355 208 321 257 q 449 160 389 160 z "},"c":{"ha":788,"x_min":49,"x_max":750,"o":"m 414 708 q 647 647 563 708 q 749 493 731 586 l 531 421 q 495 511 521 482 q 421 540 469 540 q 286 344 286 540 q 422 154 286 154 q 538 267 521 154 l 750 199 q 647 46 733 106 q 424 -14 560 -14 q 149 82 250 -14 q 49 347 49 178 q 149 612 49 515 q 414 708 249 708 z "},"d":{"ha":871,"x_min":54,"x_max":786,"o":"m 340 -14 q 132 81 210 -14 q 54 344 54 176 q 134 612 54 515 q 346 708 214 708 q 550 576 490 708 l 550 989 l 786 989 l 786 0 l 575 0 l 567 136 q 478 26 538 65 q 340 -14 418 -14 m 422 160 q 516 210 482 160 q 550 351 550 260 q 517 487 550 439 q 424 535 483 535 q 292 347 292 535 q 422 160 292 160 z "},"e":{"ha":804,"x_min":49,"x_max":757,"o":"m 424 -14 q 149 81 250 -14 q 49 347 49 176 q 149 613 49 517 q 413 708 249 708 q 665 617 574 708 q 757 379 757 526 q 751 288 757 332 l 278 288 q 424 153 297 153 q 554 232 521 153 l 743 169 q 626 34 714 82 q 424 -14 538 -14 m 413 543 q 279 414 301 543 l 533 414 q 413 543 518 543 z "},"f":{"ha":576,"x_min":21,"x_max":572,"o":"m 565 694 l 565 526 l 368 526 l 368 0 l 132 0 l 132 526 l 21 526 l 21 694 l 132 694 l 132 758 q 210 947 132 885 q 408 1008 288 1008 q 572 969 521 1008 l 549 822 q 465 843 513 843 q 354 743 354 843 l 354 694 l 565 694 z "},"g":{"ha":778,"x_min":31,"x_max":776,"o":"m 518 154 q 703 103 639 154 q 768 -42 768 53 q 667 -234 768 -169 q 386 -299 565 -299 q 31 -124 31 -299 q 163 3 31 -21 q 61 143 61 40 q 90 228 61 192 q 171 282 119 264 q 60 472 60 343 q 148 647 60 585 q 396 708 236 708 q 542 692 478 708 q 601 828 551 774 q 735 882 650 882 q 757 881 749 882 l 776 722 q 743 726 758 726 q 626 657 650 726 q 731 472 731 596 q 643 299 731 360 q 396 238 556 238 q 265 250 324 238 q 219 201 219 236 q 297 154 219 154 l 518 154 m 396 574 q 321 547 349 574 q 293 472 293 521 q 321 399 293 425 q 396 372 349 372 q 470 399 442 372 q 499 472 499 425 q 470 547 499 519 q 396 574 442 574 m 388 -146 q 535 -126 485 -146 q 586 -75 586 -107 q 515 -31 586 -31 l 267 -31 q 224 -44 240 -31 q 208 -79 208 -58 q 256 -128 208 -111 q 388 -146 303 -146 z "},"h":{"ha":861,"x_min":85,"x_max":781,"o":"m 85 0 l 85 989 l 321 989 l 321 568 q 540 708 383 708 q 715 644 650 708 q 781 463 781 581 l 781 0 l 544 0 l 544 397 q 446 529 544 529 q 356 489 390 529 q 321 365 321 449 l 321 0 l 85 0 z "},"i":{"ha":404,"x_min":65,"x_max":340,"o":"m 308 802 q 291 789 308 802 q 203 775 275 775 q 98 802 131 775 q 65 888 65 829 q 98 974 65 947 q 203 1001 131 1001 q 308 974 275 1001 q 340 888 340 947 q 308 802 340 829 m 321 694 l 321 0 l 85 0 l 85 694 l 321 694 z "},"j":{"ha":404,"x_min":-131,"x_max":340,"o":"m 308 802 q 291 789 308 802 q 203 775 275 775 q 98 802 131 775 q 65 888 65 829 q 98 974 65 947 q 203 1001 131 1001 q 308 974 275 1001 q 340 888 340 947 q 308 802 340 829 m 321 694 l 321 -39 q 51 -299 321 -299 q -131 -254 -58 -299 l -97 -101 q -8 -128 -61 -128 q 85 -18 85 -128 l 85 694 l 321 694 z "},"k":{"ha":864,"x_min":85,"x_max":863,"o":"m 321 989 l 321 403 l 585 694 l 847 694 l 592 422 l 863 0 l 601 0 l 433 285 l 321 160 l 321 0 l 85 0 l 85 989 l 321 989 z "},"l":{"ha":454,"x_min":82,"x_max":453,"o":"m 318 989 l 318 236 q 333 171 318 190 q 385 151 349 151 q 453 163 419 151 l 438 21 q 293 -14 382 -14 q 132 38 182 -14 q 82 206 82 90 l 82 989 l 318 989 z "},"m":{"ha":1307,"x_min":85,"x_max":1226,"o":"m 85 0 l 85 694 l 296 694 l 303 560 q 536 708 371 708 q 756 571 700 708 q 850 673 788 638 q 989 708 913 708 q 1160 644 1094 708 q 1226 463 1226 581 l 1226 0 l 990 0 l 990 408 q 896 528 990 528 q 807 488 840 528 q 774 371 774 447 l 774 0 l 538 0 l 538 408 q 443 528 538 528 q 356 488 390 528 q 321 367 321 447 l 321 0 l 85 0 z "},"n":{"ha":861,"x_min":85,"x_max":781,"o":"m 85 0 l 85 694 l 296 694 l 303 554 q 540 708 367 708 q 715 644 650 708 q 781 463 781 581 l 781 0 l 544 0 l 544 400 q 446 528 544 528 q 356 489 390 528 q 321 368 321 450 l 321 0 l 85 0 z "},"o":{"ha":832,"x_min":49,"x_max":783,"o":"m 415 708 q 683 612 582 708 q 783 347 783 515 q 683 83 783 179 q 415 -14 582 -14 q 149 83 250 -14 q 49 347 49 179 q 149 612 49 515 q 415 708 250 708 m 415 540 q 286 347 286 540 q 415 154 286 154 q 546 347 546 154 q 415 540 546 540 z "},"p":{"ha":871,"x_min":85,"x_max":817,"o":"m 85 -292 l 85 694 l 297 694 l 304 554 q 394 667 335 625 q 532 708 453 708 q 739 613 661 708 q 817 350 817 518 q 738 83 817 179 q 529 -14 660 -14 q 321 119 383 -14 l 321 -292 l 85 -292 m 449 160 q 579 347 579 160 q 450 535 579 535 q 356 485 390 535 q 321 347 321 436 q 354 210 321 260 q 449 160 388 160 z "},"q":{"ha":871,"x_min":54,"x_max":786,"o":"m 550 -292 l 550 118 q 467 21 521 56 q 340 -14 413 -14 q 133 83 211 -14 q 54 350 54 179 q 133 613 54 518 q 344 708 213 708 q 479 668 421 708 q 567 558 538 628 l 574 694 l 786 694 l 786 -292 l 550 -292 m 422 160 q 516 210 482 160 q 550 349 550 260 q 517 488 550 440 q 424 535 483 535 q 292 347 292 535 q 422 160 292 160 z "},"r":{"ha":597,"x_min":85,"x_max":589,"o":"m 85 0 l 85 694 l 293 694 l 303 544 q 514 708 358 708 q 589 693 561 708 l 565 499 q 478 511 531 511 q 365 469 410 511 q 321 350 321 428 l 321 0 l 85 0 z "},"s":{"ha":740,"x_min":35,"x_max":703,"o":"m 376 -14 q 35 118 156 -14 l 146 249 q 367 144 226 144 q 465 196 465 144 q 451 227 465 215 q 396 247 436 239 l 299 267 q 114 344 169 293 q 58 482 58 396 q 143 642 58 575 q 385 708 228 708 q 699 589 599 708 l 586 461 q 500 526 553 501 q 394 550 447 550 q 293 499 293 550 q 375 444 293 461 l 501 419 q 703 225 703 382 q 618 53 703 119 q 376 -14 533 -14 z "},"t":{"ha":607,"x_min":19,"x_max":593,"o":"m 582 694 l 582 526 l 375 526 l 375 247 q 467 154 375 154 q 568 185 525 154 l 593 39 q 397 -14 517 -14 q 139 208 140 -14 l 139 526 l 19 526 l 19 694 l 139 694 l 139 850 l 375 915 l 375 694 l 582 694 z "},"u":{"ha":860,"x_min":81,"x_max":775,"o":"m 319 -14 q 144 45 207 -14 q 81 231 81 104 l 81 694 l 317 694 l 317 286 q 342 194 317 222 q 418 167 367 167 q 505 206 471 167 q 539 322 539 244 l 539 694 l 775 694 l 775 0 l 564 0 l 557 131 q 319 -14 493 -14 z "},"v":{"ha":779,"x_min":-1,"x_max":781,"o":"m 536 694 l 781 694 l 531 0 l 249 0 l -1 694 l 247 694 l 390 165 l 536 694 z "},"w":{"ha":1250,"x_min":7,"x_max":1242,"o":"m 994 694 l 1242 694 l 1032 0 l 749 0 l 622 426 l 500 0 l 218 0 l 7 694 l 256 694 l 372 182 l 508 694 l 742 694 l 876 182 l 994 694 z "},"x":{"ha":818,"x_min":7,"x_max":810,"o":"m 289 694 l 413 465 l 539 694 l 804 694 l 563 350 l 810 0 l 539 0 l 407 239 l 272 0 l 7 0 l 257 351 l 17 694 l 289 694 z "},"y":{"ha":782,"x_min":-4,"x_max":783,"o":"m 783 694 l 531 0 q 397 -232 474 -165 q 188 -299 319 -299 q -4 -251 72 -299 l 43 -92 q 167 -125 88 -125 q 235 -110 210 -125 q 274 -58 260 -96 l 292 -15 l 211 174 l 3 694 l 263 694 l 369 299 l 403 151 l 442 304 l 549 694 l 783 694 z "},"z":{"ha":717,"x_min":49,"x_max":672,"o":"m 49 0 l 49 144 l 325 458 l 399 532 l 289 529 l 51 529 l 51 694 l 660 694 l 660 550 l 388 239 l 311 163 l 433 165 l 672 165 l 672 0 l 49 0 z "},"{":{"ha":583,"x_min":57,"x_max":546,"o":"m 546 -265 q 289 -212 365 -265 q 213 -29 213 -158 l 213 157 q 177 268 213 235 q 57 301 142 301 l 57 454 q 177 488 142 454 q 213 599 213 521 l 213 786 q 289 968 213 914 q 546 1022 365 1022 l 546 872 q 435 846 469 872 q 401 760 401 819 l 401 550 q 267 379 401 415 q 401 207 401 339 l 401 -1 q 435 -88 401 -61 q 546 -115 469 -115 l 546 -265 z "},"|":{"ha":444,"x_min":118,"x_max":326,"o":"m 326 990 l 326 -233 l 118 -233 l 118 990 l 326 990 z "},"}":{"ha":583,"x_min":38,"x_max":526,"o":"m 38 1022 q 294 968 218 1022 q 371 786 371 914 l 371 599 q 406 488 371 521 q 526 454 442 454 l 526 301 q 406 268 442 301 q 371 157 371 235 l 371 -31 q 294 -212 371 -158 q 38 -265 218 -265 l 38 -115 q 148 -89 114 -115 q 182 -3 182 -62 l 182 207 q 317 378 182 339 q 182 550 182 417 l 182 758 q 148 845 182 818 q 38 872 114 872 l 38 1022 z "},"~":{"ha":829,"x_min":60,"x_max":769,"o":"m 769 590 q 546 321 757 321 q 446 343 490 321 q 369 388 401 365 q 310 410 336 410 q 243 328 256 410 l 60 328 q 283 597 72 597 q 383 575 339 597 q 460 531 428 553 q 519 508 493 508 q 586 590 574 508 l 769 590 z "}," ":{"ha":397,"x_min":0,"x_max":0,"o":""},"¡":{"ha":414,"x_min":74,"x_max":342,"o":"m 306 504 q 288 489 306 504 q 207 474 269 474 q 109 504 144 474 q 74 590 74 535 q 109 675 74 644 q 207 706 144 706 q 306 675 269 706 q 342 590 342 644 q 306 504 342 535 m 85 -222 l 85 74 l 111 396 l 304 396 l 331 74 l 331 -222 l 85 -222 z "},"¢":{"ha":799,"x_min":58,"x_max":761,"o":"m 356 -139 l 356 -8 q 136 105 214 13 q 58 347 58 197 q 138 591 58 497 q 356 704 217 685 l 356 833 l 501 833 l 501 704 q 675 633 613 689 q 758 493 738 576 l 582 429 q 501 547 565 519 l 501 144 q 588 260 571 169 l 761 200 q 674 60 742 115 q 501 -10 607 4 l 501 -139 l 356 -139 m 264 344 q 356 150 264 193 l 356 544 q 264 344 264 500 z "},"£":{"ha":863,"x_min":44,"x_max":840,"o":"m 211 -14 q 92 21 139 -14 q 44 115 44 56 q 94 210 44 175 q 222 244 144 244 q 307 238 275 244 q 265 375 303 301 l 72 375 l 72 483 l 199 483 q 144 661 144 579 q 235 855 144 779 q 475 931 325 931 q 794 688 743 931 l 604 614 q 555 725 588 690 q 465 760 522 760 q 377 731 410 760 q 344 649 344 701 q 400 497 344 604 q 407 483 406 489 l 671 483 l 671 375 l 453 375 q 468 279 468 322 q 456 183 468 229 q 588 146 533 146 q 678 261 682 146 l 828 244 q 785 58 840 129 q 631 -14 731 -14 q 400 74 526 -14 q 211 -14 331 -14 m 161 115 q 217 75 161 75 q 299 136 282 75 q 218 154 258 154 q 161 115 161 154 z "},"¤":{"ha":897,"x_min":50,"x_max":847,"o":"m 310 717 q 450 746 372 746 q 589 717 528 746 l 711 856 l 847 719 l 713 597 q 744 458 744 536 q 711 315 744 375 l 847 194 l 711 60 l 588 197 q 450 168 528 168 q 308 199 374 168 l 186 60 l 50 194 l 186 315 q 153 458 153 378 q 186 600 153 538 l 50 719 l 186 856 l 310 717 m 450 579 q 365 546 397 579 q 333 458 333 513 q 365 369 333 403 q 450 336 397 336 q 533 369 501 336 q 565 458 565 403 q 533 546 565 513 q 450 579 501 579 z "},"¥":{"ha":925,"x_min":26,"x_max":899,"o":"m 349 0 l 349 168 l 83 168 l 83 249 l 349 249 l 349 340 l 83 340 l 83 424 l 246 424 l 329 418 l 26 917 l 271 917 l 401 643 l 461 501 l 464 501 l 525 644 l 654 917 l 899 917 l 596 418 l 679 424 l 843 424 l 843 340 l 576 340 l 576 249 l 843 249 l 843 168 l 576 168 l 576 0 l 349 0 z "},"¦":{"ha":444,"x_min":118,"x_max":326,"o":"m 326 990 l 326 463 l 118 463 l 118 990 l 326 990 m 326 294 l 326 -233 l 118 -233 l 118 294 l 326 294 z "},"§":{"ha":865,"x_min":32,"x_max":829,"o":"m 422 -153 q 213 -117 306 -153 q 71 -17 121 -81 l 194 97 q 291 23 229 50 q 426 -4 353 -4 q 533 15 492 -4 q 574 71 574 35 q 550 110 574 96 q 467 138 526 125 l 256 182 q 88 258 143 206 q 32 400 32 311 q 142 585 32 524 q 118 676 118 628 q 207 861 118 792 q 446 931 296 931 q 767 796 651 931 l 642 685 q 435 779 565 779 q 333 758 367 779 q 299 703 299 738 q 326 653 299 672 q 432 619 354 635 l 569 594 q 769 519 708 569 q 829 385 829 468 q 725 188 829 256 q 747 93 747 146 q 660 -87 747 -22 q 422 -153 574 -153 m 531 301 q 613 279 581 292 q 663 344 663 303 q 558 424 663 404 l 319 468 q 253 489 278 478 q 199 424 199 465 q 226 372 199 392 q 315 342 254 353 l 531 301 z "},"¨":{"ha":694,"x_min":76,"x_max":618,"o":"m 193 986 q 281 958 249 986 q 313 879 313 929 q 281 801 313 829 q 193 772 249 772 q 108 801 139 772 q 76 879 76 829 q 108 958 76 929 q 193 986 139 986 m 413 958 q 428 972 413 958 q 499 986 443 986 q 586 958 554 986 q 618 879 618 929 q 586 801 618 829 q 499 772 554 772 q 413 801 443 772 q 382 879 382 829 q 413 958 382 929 z "},"©":{"ha":1072,"x_min":58,"x_max":1014,"o":"m 880 118 q 813 52 880 118 q 536 -14 746 -14 q 192 118 326 -14 q 58 458 58 250 q 192 799 58 667 q 536 931 326 931 q 880 799 746 931 q 1014 458 1014 667 q 880 118 1014 250 m 278 202 q 328 152 278 202 q 536 103 378 103 q 794 202 694 103 q 893 458 893 301 q 794 715 893 615 q 536 814 694 814 q 278 715 378 814 q 179 458 179 615 q 278 202 179 301 m 544 192 q 349 263 419 192 q 279 457 279 335 q 349 651 279 579 q 544 722 419 722 q 698 681 636 722 q 785 569 760 640 l 647 504 q 551 561 621 561 q 476 534 504 561 q 449 457 449 507 q 476 380 449 407 q 551 353 504 353 q 653 415 628 353 l 783 353 q 694 230 750 268 q 544 192 638 192 z "},"ª":{"ha":608,"x_min":36,"x_max":572,"o":"m 196 425 q 78 460 121 425 q 36 551 36 494 q 73 642 36 611 q 197 690 110 672 l 332 718 l 332 735 q 315 784 332 767 q 268 801 299 801 q 182 729 199 801 l 40 763 q 112 877 51 835 q 274 919 172 919 q 507 732 507 919 l 507 572 q 544 531 507 531 q 572 535 564 531 l 560 442 q 482 425 524 425 q 360 508 378 425 q 196 425 310 425 m 204 572 q 219 540 204 551 q 256 529 233 529 q 310 547 288 529 q 332 603 332 564 l 332 646 l 265 629 q 204 572 204 615 m 47 210 l 47 333 l 554 333 l 554 210 l 47 210 z "},"«":{"ha":813,"x_min":49,"x_max":764,"o":"m 428 640 l 260 368 l 428 96 l 222 96 l 49 368 l 222 640 l 428 640 m 764 640 l 596 368 l 764 96 l 560 96 l 385 368 l 560 640 l 764 640 z "},"¬":{"ha":839,"x_min":83,"x_max":756,"o":"m 756 536 l 756 135 l 565 135 l 565 367 l 83 367 l 83 536 l 756 536 z "},"­":{"ha":733,"x_min":113,"x_max":621,"o":"m 621 468 l 621 275 l 113 275 l 113 468 l 621 468 z "},"®":{"ha":1072,"x_min":58,"x_max":1014,"o":"m 880 118 q 813 52 880 118 q 536 -14 746 -14 q 192 118 326 -14 q 58 458 58 250 q 192 799 58 667 q 536 931 326 931 q 880 799 746 931 q 1014 458 1014 667 q 880 118 1014 250 m 278 202 q 328 152 278 202 q 536 103 378 103 q 794 202 694 103 q 893 458 893 301 q 794 715 893 615 q 536 814 694 814 q 278 715 378 814 q 179 458 179 615 q 278 202 179 301 m 331 210 l 331 715 l 575 715 q 705 669 653 715 q 757 550 757 622 q 647 397 757 433 l 768 210 l 600 210 l 510 383 l 472 383 l 472 210 l 331 210 m 472 479 l 542 479 q 614 539 614 479 q 542 599 614 599 l 472 599 l 472 479 z "},"¯":{"ha":694,"x_min":94,"x_max":600,"o":"m 600 936 l 600 790 l 94 790 l 94 936 l 600 936 z "},"°":{"ha":688,"x_min":64,"x_max":625,"o":"m 344 414 q 140 484 215 414 q 64 672 64 554 q 140 860 64 790 q 344 931 215 931 q 549 860 472 931 q 625 672 625 790 q 549 484 625 554 q 344 414 472 414 m 344 565 q 422 595 392 565 q 453 674 453 625 q 422 751 453 721 q 344 781 392 781 q 265 751 296 781 q 235 674 235 721 q 265 595 235 625 q 344 565 296 565 z "},"±":{"ha":839,"x_min":71,"x_max":768,"o":"m 768 663 l 768 500 l 506 500 l 506 257 l 335 257 l 335 500 l 71 500 l 71 663 l 335 663 l 335 906 l 506 906 l 506 663 l 768 663 m 768 160 l 768 1 l 71 1 l 71 160 l 768 160 z "},"²":{"ha":544,"x_min":21,"x_max":514,"o":"m 40 463 l 40 569 q 164 642 131 619 q 326 826 326 751 q 261 889 326 889 q 186 783 186 889 l 21 818 q 90 966 24 911 q 265 1021 156 1021 q 447 967 388 1021 q 507 840 507 914 q 372 647 507 738 q 265 594 322 615 l 265 592 q 392 597 324 597 l 514 597 l 514 463 l 40 463 z "},"³":{"ha":526,"x_min":13,"x_max":493,"o":"m 269 1021 q 426 979 371 1021 q 482 864 482 938 q 450 776 482 808 q 365 740 418 743 l 365 736 q 459 704 425 735 q 493 618 493 674 q 425 499 493 544 q 250 454 357 454 q 13 603 51 454 l 171 651 q 254 578 181 578 q 305 594 286 578 q 324 638 324 610 q 246 689 324 689 q 222 688 231 689 l 222 778 q 243 776 229 776 q 314 833 314 776 q 253 890 314 890 q 178 821 188 890 l 26 865 q 106 981 40 940 q 269 1021 171 1021 z "},"´":{"ha":750,"x_min":219,"x_max":532,"o":"m 313 1025 l 532 1025 l 392 785 l 219 785 l 313 1025 z "},"µ":{"ha":863,"x_min":85,"x_max":779,"o":"m 85 -292 l 85 694 l 321 694 l 321 290 q 421 167 321 167 q 510 207 476 167 q 543 331 543 247 l 543 694 l 779 694 l 779 0 l 571 0 l 563 126 q 363 -12 504 -12 q 321 -10 346 -12 l 321 -292 l 85 -292 z "},"¶":{"ha":1039,"x_min":47,"x_max":936,"o":"m 401 -139 l 401 321 q 138 398 229 322 q 47 618 47 474 q 431 917 47 917 l 936 917 l 936 -139 l 744 -139 l 744 736 l 594 736 l 594 -139 l 401 -139 z "},"·":{"ha":381,"x_min":51,"x_max":329,"o":"m 88 583 q 107 599 88 583 q 190 615 125 615 q 292 583 256 615 q 329 490 329 550 q 292 399 329 432 q 190 365 256 365 q 88 399 125 365 q 51 490 51 432 q 88 583 51 550 z "},"¸":{"ha":694,"x_min":179,"x_max":517,"o":"m 247 14 l 304 51 q 517 -125 517 21 q 464 -251 517 -204 q 321 -299 411 -299 q 179 -258 238 -299 l 217 -146 q 301 -171 257 -171 q 359 -150 338 -171 q 381 -92 381 -129 q 351 -34 381 -58 q 247 14 321 -10 z "},"¹":{"ha":414,"x_min":26,"x_max":356,"o":"m 211 1014 l 356 1014 l 356 463 l 185 463 l 185 763 q 189 853 185 800 q 26 785 114 796 l 26 925 q 131 959 72 932 q 211 1014 189 986 z "},"º":{"ha":586,"x_min":42,"x_max":546,"o":"m 293 425 q 110 491 178 425 q 42 672 42 557 q 110 853 42 788 q 293 919 178 919 q 478 853 410 919 q 546 672 546 788 q 478 491 546 557 q 293 425 410 425 m 293 539 q 351 571 333 539 q 369 672 369 603 q 351 774 369 742 q 293 806 333 806 q 217 672 217 806 q 293 539 217 539 m 50 210 l 50 333 l 536 333 l 536 210 l 50 210 z "},"»":{"ha":813,"x_min":49,"x_max":765,"o":"m 386 96 l 553 368 l 386 640 l 590 640 l 765 368 l 590 96 l 386 96 m 49 96 l 217 368 l 49 640 l 254 640 l 428 368 l 254 96 l 49 96 z "},"¼":{"ha":1211,"x_min":26,"x_max":1192,"o":"m 211 924 l 356 924 l 356 372 l 185 372 l 185 672 q 189 763 185 711 q 26 694 114 706 l 26 835 q 131 869 72 842 q 211 924 189 896 m 174 0 l 836 918 l 1001 918 l 340 0 l 174 0 m 1192 225 l 1192 113 l 1108 113 l 1108 -6 l 958 -6 l 958 113 l 679 113 l 679 190 l 904 547 l 1108 547 l 1108 225 l 1192 225 m 828 225 l 958 225 l 958 333 q 963 444 958 344 l 958 444 q 917 363 946 411 l 828 225 z "},"½":{"ha":1307,"x_min":26,"x_max":1275,"o":"m 211 924 l 356 924 l 356 372 l 185 372 l 185 672 q 189 763 185 711 q 26 694 114 706 l 26 835 q 131 869 72 842 q 211 924 189 896 m 174 0 l 836 918 l 1001 918 l 340 0 l 174 0 m 803 -6 l 803 101 q 926 174 893 151 q 1089 358 1089 283 q 1024 421 1089 421 q 949 315 949 421 l 783 350 q 852 498 786 443 q 1028 553 918 553 q 1210 499 1150 553 q 1269 372 1269 446 q 1135 179 1269 269 q 1026 126 1085 146 l 1026 124 q 1154 129 1085 129 l 1275 129 l 1275 -6 l 803 -6 z "},"¾":{"ha":1325,"x_min":13,"x_max":1306,"o":"m 269 931 q 426 889 371 931 q 482 774 482 847 q 450 685 482 718 q 365 650 418 653 l 365 646 q 459 614 425 644 q 493 528 493 583 q 425 409 493 454 q 250 364 357 364 q 13 513 51 364 l 171 561 q 254 488 181 488 q 305 503 286 488 q 324 547 324 519 q 246 599 324 599 q 222 597 231 599 l 222 688 q 243 686 229 686 q 314 743 314 686 q 253 800 314 800 q 178 731 188 800 l 26 775 q 106 890 40 850 q 269 931 171 931 m 288 0 l 949 918 l 1115 918 l 454 0 l 288 0 m 1306 225 l 1306 113 l 1221 113 l 1221 -6 l 1072 -6 l 1072 113 l 793 113 l 793 190 l 1018 547 l 1221 547 l 1221 225 l 1306 225 m 940 225 l 1072 225 l 1072 333 q 1076 444 1072 394 l 1072 444 q 1031 363 1051 399 l 940 225 z "},"¿":{"ha":840,"x_min":57,"x_max":797,"o":"m 436 471 q 337 502 372 471 q 301 589 301 533 q 337 676 301 644 q 436 707 372 707 q 534 676 499 707 q 569 589 569 644 q 534 502 569 533 q 436 471 499 471 m 414 -235 q 156 -168 254 -235 q 57 24 57 -101 q 129 206 57 144 q 321 279 201 267 l 336 399 l 543 399 l 543 186 q 365 144 417 176 q 313 56 313 111 q 431 -43 313 -43 q 569 96 553 -43 l 797 18 q 676 -167 771 -99 q 414 -235 582 -235 z "},"À":{"ha":940,"x_min":6,"x_max":935,"o":"m 482 1231 l 567 1004 l 396 1004 l 272 1231 l 482 1231 m 935 0 l 689 0 l 625 207 l 311 207 l 246 0 l 6 0 l 328 917 l 614 917 l 935 0 m 356 369 l 581 369 l 468 740 l 356 369 z "},"Á":{"ha":940,"x_min":6,"x_max":935,"o":"m 456 1231 l 665 1231 l 542 1004 l 371 1004 l 456 1231 m 935 0 l 689 0 l 625 207 l 311 207 l 246 0 l 6 0 l 328 917 l 614 917 l 935 0 m 356 369 l 581 369 l 468 740 l 356 369 z "},"Â":{"ha":940,"x_min":6,"x_max":935,"o":"m 725 1004 l 560 1004 l 469 1132 l 379 1004 l 215 1004 l 354 1231 l 585 1231 l 725 1004 m 935 0 l 689 0 l 625 207 l 311 207 l 246 0 l 6 0 l 328 917 l 614 917 l 935 0 m 356 369 l 581 369 l 468 740 l 356 369 z "},"Ã":{"ha":940,"x_min":6,"x_max":935,"o":"m 744 1219 q 693 1056 740 1113 q 574 999 646 999 q 492 1019 529 999 q 428 1058 456 1039 q 381 1078 401 1078 q 328 1000 336 1078 l 194 1000 q 247 1165 199 1108 q 375 1221 294 1221 q 453 1201 418 1221 q 513 1161 488 1181 q 558 1142 538 1142 q 611 1219 603 1142 l 744 1219 m 935 0 l 689 0 l 625 207 l 311 207 l 246 0 l 6 0 l 328 917 l 614 917 l 935 0 m 356 369 l 581 369 l 468 740 l 356 369 z "},"Ä":{"ha":940,"x_min":6,"x_max":935,"o":"m 231 1180 q 246 1194 231 1180 q 317 1208 261 1208 q 403 1180 372 1208 q 435 1101 435 1151 q 403 1023 435 1051 q 317 994 372 994 q 231 1023 261 994 q 200 1101 200 1051 q 231 1180 200 1151 m 621 1208 q 708 1180 676 1208 q 740 1101 740 1151 q 708 1023 740 1051 q 621 994 676 994 q 535 1023 567 994 q 504 1101 504 1051 q 535 1180 504 1151 q 621 1208 567 1208 m 935 0 l 689 0 l 625 207 l 311 207 l 246 0 l 6 0 l 328 917 l 614 917 l 935 0 m 356 369 l 581 369 l 468 740 l 356 369 z "},"Å":{"ha":940,"x_min":6,"x_max":935,"o":"m 935 0 l 689 0 l 625 207 l 311 207 l 246 0 l 6 0 l 315 882 q 275 994 275 929 q 328 1122 275 1074 q 469 1169 382 1169 q 611 1122 558 1169 q 664 994 664 1074 q 625 883 664 929 l 935 0 m 524 1048 q 513 1058 524 1048 q 469 1068 503 1068 q 416 1048 436 1068 q 396 994 396 1028 q 416 942 396 963 q 469 922 436 922 q 524 942 503 922 q 544 994 544 963 q 524 1048 544 1028 m 356 369 l 581 369 l 468 740 l 356 369 z "},"Æ":{"ha":1283,"x_min":-6,"x_max":1242,"o":"m 807 176 l 1242 176 l 1242 0 l 585 0 l 585 272 l 342 272 l 235 0 l -6 0 l 388 917 l 1222 917 l 1222 740 l 807 740 l 807 543 l 1125 543 l 1125 376 l 807 376 l 807 176 m 393 428 l 585 428 l 585 747 l 526 747 l 393 428 z "},"Ç":{"ha":946,"x_min":63,"x_max":914,"o":"m 914 263 q 608 -7 850 35 q 661 -125 661 -50 q 608 -251 661 -204 q 467 -299 556 -299 q 324 -258 383 -299 l 363 -146 q 446 -171 400 -171 q 504 -150 482 -171 q 526 -92 526 -129 q 460 -11 526 -43 q 168 128 274 4 q 63 458 63 251 q 183 805 63 679 q 511 931 303 931 q 765 867 661 931 q 903 678 869 804 l 693 593 q 631 709 674 675 q 519 743 589 743 q 363 670 418 743 q 307 458 307 597 q 521 174 307 174 q 697 324 665 174 l 914 263 z "},"È":{"ha":876,"x_min":101,"x_max":833,"o":"m 474 1231 l 558 1004 l 388 1004 l 264 1231 l 474 1231 m 101 0 l 101 917 l 815 917 l 815 732 l 340 732 l 340 546 l 718 546 l 718 372 l 340 372 l 340 185 l 833 185 l 833 0 l 101 0 z "},"É":{"ha":876,"x_min":101,"x_max":833,"o":"m 435 1231 l 644 1231 l 521 1004 l 350 1004 l 435 1231 m 101 0 l 101 917 l 815 917 l 815 732 l 340 732 l 340 546 l 718 546 l 718 372 l 340 372 l 340 185 l 833 185 l 833 0 l 101 0 z "},"Ê":{"ha":876,"x_min":101,"x_max":833,"o":"m 714 1004 l 549 1004 l 458 1132 l 368 1004 l 204 1004 l 343 1231 l 574 1231 l 714 1004 m 101 0 l 101 917 l 815 917 l 815 732 l 340 732 l 340 546 l 718 546 l 718 372 l 340 372 l 340 185 l 833 185 l 833 0 l 101 0 z "},"Ë":{"ha":876,"x_min":101,"x_max":833,"o":"m 219 1180 q 235 1194 219 1180 q 306 1208 250 1208 q 392 1180 361 1208 q 424 1101 424 1151 q 392 1023 424 1051 q 306 994 361 994 q 219 1023 250 994 q 189 1101 189 1051 q 219 1180 189 1151 m 610 1208 q 697 1180 665 1208 q 729 1101 729 1151 q 697 1023 729 1051 q 610 994 665 994 q 524 1023 556 994 q 493 1101 493 1051 q 524 1180 493 1151 q 610 1208 556 1208 m 101 0 l 101 917 l 815 917 l 815 732 l 340 732 l 340 546 l 718 546 l 718 372 l 340 372 l 340 185 l 833 185 l 833 0 l 101 0 z "},"Ì":{"ha":442,"x_min":19,"x_max":340,"o":"m 229 1231 l 315 1004 l 143 1004 l 19 1231 l 229 1231 m 340 917 l 340 0 l 101 0 l 101 917 l 340 917 z "},"Í":{"ha":442,"x_min":101,"x_max":421,"o":"m 211 1231 l 421 1231 l 297 1004 l 126 1004 l 211 1231 m 340 917 l 340 0 l 101 0 l 101 917 l 340 917 z "},"Î":{"ha":442,"x_min":-35,"x_max":475,"o":"m 475 1004 l 311 1004 l 221 1132 l 131 1004 l -35 1004 l 106 1231 l 336 1231 l 475 1004 m 340 917 l 340 0 l 101 0 l 101 917 l 340 917 z "},"Ï":{"ha":442,"x_min":-36,"x_max":478,"o":"m 78 1208 q 163 1180 132 1208 q 194 1101 194 1151 q 163 1023 194 1051 q 78 994 132 994 q -6 1023 25 994 q -36 1101 -36 1051 q -6 1180 -36 1151 q 78 1208 25 1208 m 361 1208 q 447 1180 415 1208 q 478 1101 478 1151 q 447 1023 478 1051 q 361 994 415 994 q 278 1023 308 994 q 247 1101 247 1051 q 278 1180 247 1151 q 361 1208 308 1208 m 340 917 l 340 0 l 101 0 l 101 917 l 340 917 z "},"Ð":{"ha":1029,"x_min":18,"x_max":968,"o":"m 18 375 l 18 542 l 133 542 l 133 917 l 522 917 q 853 798 738 917 q 968 458 968 679 q 853 119 968 238 q 522 0 738 0 l 133 0 l 133 375 l 18 375 m 499 181 q 668 250 614 181 q 722 458 722 319 q 668 667 722 597 q 499 736 614 736 l 372 736 l 372 542 l 554 542 l 554 375 l 372 375 l 372 181 l 499 181 z "},"Ñ":{"ha":1029,"x_min":101,"x_max":928,"o":"m 792 1219 q 740 1056 788 1113 q 621 999 693 999 q 540 1019 576 999 q 476 1058 503 1039 q 428 1078 449 1078 q 374 1000 385 1078 l 240 1000 q 294 1165 246 1108 q 422 1221 342 1221 q 500 1201 465 1221 q 560 1161 535 1181 q 606 1142 585 1142 q 658 1219 650 1142 l 792 1219 m 928 917 l 928 0 l 663 0 l 378 496 l 308 632 l 307 632 l 313 463 l 313 0 l 101 0 l 101 917 l 367 917 l 651 421 l 721 285 l 722 285 l 717 454 l 717 917 l 928 917 z "},"Ò":{"ha":1024,"x_min":63,"x_max":961,"o":"m 521 1231 l 606 1004 l 435 1004 l 311 1231 l 521 1231 m 183 805 q 243 868 183 805 q 513 931 303 931 q 842 805 722 931 q 961 458 961 679 q 842 112 961 238 q 513 -14 722 -14 q 183 112 303 -14 q 63 458 63 238 q 183 805 63 679 m 665 671 q 639 707 665 671 q 513 743 613 743 q 360 671 413 743 q 307 458 307 599 q 360 246 307 318 q 513 174 413 174 q 665 246 613 174 q 717 458 717 318 q 665 671 717 599 z "},"Ó":{"ha":1024,"x_min":63,"x_max":961,"o":"m 497 1231 l 707 1231 l 583 1004 l 413 1004 l 497 1231 m 183 805 q 243 868 183 805 q 513 931 303 931 q 842 805 722 931 q 961 458 961 679 q 842 112 961 238 q 513 -14 722 -14 q 183 112 303 -14 q 63 458 63 238 q 183 805 63 679 m 665 671 q 639 707 665 671 q 513 743 613 743 q 360 671 413 743 q 307 458 307 599 q 360 246 307 318 q 513 174 413 174 q 665 246 613 174 q 717 458 717 318 q 665 671 717 599 z "},"Ô":{"ha":1024,"x_min":63,"x_max":961,"o":"m 767 1004 l 603 1004 l 513 1132 l 422 1004 l 257 1004 l 397 1231 l 628 1231 l 767 1004 m 183 805 q 243 868 183 805 q 513 931 303 931 q 842 805 722 931 q 961 458 961 679 q 842 112 961 238 q 513 -14 722 -14 q 183 112 303 -14 q 63 458 63 238 q 183 805 63 679 m 665 671 q 639 707 665 671 q 513 743 613 743 q 360 671 413 743 q 307 458 307 599 q 360 246 307 318 q 513 174 413 174 q 665 246 613 174 q 717 458 717 318 q 665 671 717 599 z "},"Õ":{"ha":1024,"x_min":63,"x_max":961,"o":"m 788 1219 q 735 1055 782 1111 q 615 999 688 999 q 534 1019 571 999 q 470 1058 497 1039 q 422 1078 443 1078 q 369 1000 378 1078 l 236 1000 q 289 1165 240 1108 q 417 1221 338 1221 q 494 1201 460 1221 q 555 1161 529 1181 q 601 1142 581 1142 q 654 1219 643 1142 l 788 1219 m 183 805 q 243 868 183 805 q 513 931 303 931 q 842 805 722 931 q 961 458 961 679 q 842 112 961 238 q 513 -14 722 -14 q 183 112 303 -14 q 63 458 63 238 q 183 805 63 679 m 665 671 q 639 707 665 671 q 513 743 613 743 q 360 671 413 743 q 307 458 307 599 q 360 246 307 318 q 513 174 413 174 q 665 246 613 174 q 717 458 717 318 q 665 671 717 599 z "},"Ö":{"ha":1024,"x_min":63,"x_max":961,"o":"m 272 1180 q 288 1194 272 1180 q 358 1208 303 1208 q 446 1180 414 1208 q 478 1101 478 1151 q 446 1023 478 1051 q 358 994 414 994 q 272 1023 303 994 q 242 1101 242 1051 q 272 1180 242 1151 m 578 1180 q 593 1194 578 1180 q 664 1208 608 1208 q 751 1180 719 1208 q 782 1101 782 1151 q 751 1023 782 1051 q 664 994 719 994 q 578 1023 608 994 q 547 1101 547 1051 q 578 1180 547 1151 m 183 805 q 243 868 183 805 q 513 931 303 931 q 842 805 722 931 q 961 458 961 679 q 842 112 961 238 q 513 -14 722 -14 q 183 112 303 -14 q 63 458 63 238 q 183 805 63 679 m 665 671 q 639 707 665 671 q 513 743 613 743 q 360 671 413 743 q 307 458 307 599 q 360 246 307 318 q 513 174 413 174 q 665 246 613 174 q 717 458 717 318 q 665 671 717 599 z "},"×":{"ha":839,"x_min":75,"x_max":764,"o":"m 203 108 l 75 236 l 292 453 l 75 669 l 203 797 l 419 581 l 636 797 l 764 669 l 547 453 l 764 236 l 636 108 l 419 325 l 203 108 z "},"Ø":{"ha":1024,"x_min":63,"x_max":961,"o":"m 86 -37 l 192 101 q 63 458 63 226 q 183 805 63 679 q 513 931 303 931 q 764 867 660 931 l 826 946 l 938 946 l 835 813 q 961 458 961 686 q 842 112 961 238 q 513 -14 722 -14 q 264 47 367 -14 l 197 -37 l 86 -37 m 513 743 q 360 671 413 743 q 307 458 307 599 q 336 288 307 354 l 636 701 q 513 743 589 743 m 717 458 q 689 625 717 557 l 390 213 q 513 174 438 174 q 665 246 613 174 q 717 458 717 318 z "},"Ù":{"ha":986,"x_min":83,"x_max":903,"o":"m 508 1217 l 593 990 l 422 990 l 299 1217 l 508 1217 m 903 917 l 903 374 q 493 -14 903 -14 q 83 374 83 -14 l 83 917 l 324 917 l 324 369 q 493 174 324 174 q 664 369 664 174 l 664 917 l 903 917 z "},"Ú":{"ha":986,"x_min":83,"x_max":903,"o":"m 479 1217 l 689 1217 l 565 990 l 393 990 l 479 1217 m 903 917 l 903 374 q 493 -14 903 -14 q 83 374 83 -14 l 83 917 l 324 917 l 324 369 q 493 174 324 174 q 664 369 664 174 l 664 917 l 903 917 z "},"Û":{"ha":986,"x_min":83,"x_max":903,"o":"m 749 990 l 583 990 l 493 1118 l 403 990 l 239 990 l 378 1217 l 608 1217 l 749 990 m 903 917 l 903 374 q 493 -14 903 -14 q 83 374 83 -14 l 83 917 l 324 917 l 324 369 q 493 174 324 174 q 664 369 664 174 l 664 917 l 903 917 z "},"Ü":{"ha":986,"x_min":83,"x_max":903,"o":"m 339 1194 q 426 1166 394 1194 q 458 1088 458 1138 q 426 1009 458 1038 q 339 981 394 981 q 253 1009 285 981 q 222 1088 222 1038 q 253 1166 222 1138 q 339 1194 285 1194 m 644 1194 q 732 1166 700 1194 q 764 1088 764 1138 q 732 1009 764 1038 q 644 981 700 981 q 559 1009 590 981 q 528 1088 528 1038 q 559 1166 528 1138 q 644 1194 590 1194 m 903 917 l 903 374 q 493 -14 903 -14 q 83 374 83 -14 l 83 917 l 324 917 l 324 369 q 493 174 324 174 q 664 369 664 174 l 664 917 l 903 917 z "},"Ý":{"ha":913,"x_min":13,"x_max":899,"o":"m 440 1219 l 651 1219 l 528 993 l 356 993 l 440 1219 m 899 917 l 575 335 l 575 0 l 336 0 l 336 335 l 13 917 l 260 917 l 389 665 l 457 513 l 526 665 l 656 917 l 899 917 z "},"Þ":{"ha":936,"x_min":101,"x_max":882,"o":"m 519 776 q 789 698 696 776 q 882 468 882 619 q 789 238 882 317 q 519 160 696 160 l 340 160 l 340 0 l 101 0 l 101 917 l 340 917 l 340 776 l 519 776 m 493 597 l 340 597 l 340 338 l 493 338 q 642 469 642 338 q 493 597 642 597 z "},"ß":{"ha":897,"x_min":85,"x_max":851,"o":"m 607 503 q 786 435 721 503 q 851 260 851 367 q 778 64 851 142 q 560 -14 704 -14 q 374 31 440 -14 l 413 186 q 514 156 458 156 q 597 192 565 156 q 629 288 629 228 q 485 415 629 415 l 408 415 l 432 581 l 474 581 q 567 616 535 581 q 599 708 599 651 q 564 795 599 765 q 471 825 529 825 q 355 777 389 825 q 321 622 321 729 l 321 0 l 85 0 l 85 640 q 178 905 85 814 q 479 996 271 996 q 736 923 644 996 q 828 735 828 850 q 768 576 828 643 q 607 506 708 508 l 607 503 z "},"à":{"ha":804,"x_min":44,"x_max":796,"o":"m 385 1025 l 476 785 l 306 785 l 165 1025 l 385 1025 m 472 440 q 445 517 472 489 q 372 546 418 546 q 249 442 271 546 l 49 489 q 153 650 68 592 q 386 708 239 708 q 623 640 539 708 q 707 444 707 572 l 707 190 q 756 136 707 136 q 796 142 781 136 l 782 7 q 681 -12 740 -12 q 504 92 538 -12 q 415 13 476 40 q 278 -14 353 -14 q 107 35 169 -14 q 44 178 44 85 q 232 371 44 332 l 472 421 l 472 440 m 297 247 q 288 239 297 247 q 278 200 278 231 q 299 154 278 169 q 353 139 319 139 q 438 169 404 139 q 472 257 472 199 l 472 296 l 360 272 q 297 247 317 264 z "},"á":{"ha":804,"x_min":44,"x_max":796,"o":"m 369 1025 l 589 1025 l 449 785 l 278 785 l 369 1025 m 472 440 q 445 517 472 489 q 372 546 418 546 q 249 442 271 546 l 49 489 q 153 650 68 592 q 386 708 239 708 q 623 640 539 708 q 707 444 707 572 l 707 190 q 756 136 707 136 q 796 142 781 136 l 782 7 q 681 -12 740 -12 q 504 92 538 -12 q 415 13 476 40 q 278 -14 353 -14 q 107 35 169 -14 q 44 178 44 85 q 232 371 44 332 l 472 421 l 472 440 m 297 247 q 288 239 297 247 q 278 200 278 231 q 299 154 278 169 q 353 139 319 139 q 438 169 404 139 q 472 257 472 199 l 472 296 l 360 272 q 297 247 317 264 z "},"â":{"ha":804,"x_min":44,"x_max":796,"o":"m 650 776 l 479 776 l 385 899 l 289 776 l 118 776 l 269 1017 l 499 1017 l 650 776 m 472 440 q 445 517 472 489 q 372 546 418 546 q 249 442 271 546 l 49 489 q 153 650 68 592 q 386 708 239 708 q 623 640 539 708 q 707 444 707 572 l 707 190 q 756 136 707 136 q 796 142 781 136 l 782 7 q 681 -12 740 -12 q 504 92 538 -12 q 415 13 476 40 q 278 -14 353 -14 q 107 35 169 -14 q 44 178 44 85 q 232 371 44 332 l 472 421 l 472 440 m 297 247 q 288 239 297 247 q 278 200 278 231 q 299 154 278 169 q 353 139 319 139 q 438 169 404 139 q 472 257 472 199 l 472 296 l 360 272 q 297 247 317 264 z "},"ã":{"ha":804,"x_min":44,"x_max":796,"o":"m 660 997 q 607 833 654 889 q 488 776 560 776 q 406 797 443 776 q 342 836 369 817 q 294 856 315 856 q 242 778 250 856 l 108 778 q 161 942 113 886 q 289 999 210 999 q 367 978 332 999 q 427 939 401 958 q 474 919 453 919 q 526 997 515 919 l 660 997 m 472 440 q 445 517 472 489 q 372 546 418 546 q 249 442 271 546 l 49 489 q 153 650 68 592 q 386 708 239 708 q 623 640 539 708 q 707 444 707 572 l 707 190 q 756 136 707 136 q 796 142 781 136 l 782 7 q 681 -12 740 -12 q 504 92 538 -12 q 415 13 476 40 q 278 -14 353 -14 q 107 35 169 -14 q 44 178 44 85 q 232 371 44 332 l 472 421 l 472 440 m 297 247 q 288 239 297 247 q 278 200 278 231 q 299 154 278 169 q 353 139 319 139 q 438 169 404 139 q 472 257 472 199 l 472 296 l 360 272 q 297 247 317 264 z "},"ä":{"ha":804,"x_min":44,"x_max":796,"o":"m 144 958 q 160 972 144 958 q 231 986 175 986 q 318 958 286 986 q 350 879 350 929 q 318 801 350 829 q 231 772 286 772 q 144 801 175 772 q 114 879 114 829 q 144 958 114 929 m 450 958 q 465 972 450 958 q 536 986 481 986 q 623 958 592 986 q 654 879 654 929 q 623 801 654 829 q 536 772 592 772 q 450 801 481 772 q 419 879 419 829 q 450 958 419 929 m 472 440 q 445 517 472 489 q 372 546 418 546 q 249 442 271 546 l 49 489 q 153 650 68 592 q 386 708 239 708 q 623 640 539 708 q 707 444 707 572 l 707 190 q 756 136 707 136 q 796 142 781 136 l 782 7 q 681 -12 740 -12 q 504 92 538 -12 q 415 13 476 40 q 278 -14 353 -14 q 107 35 169 -14 q 44 178 44 85 q 232 371 44 332 l 472 421 l 472 440 m 297 247 q 288 239 297 247 q 278 200 278 231 q 299 154 278 169 q 353 139 319 139 q 438 169 404 139 q 472 257 472 199 l 472 296 l 360 272 q 297 247 317 264 z "},"å":{"ha":804,"x_min":44,"x_max":796,"o":"m 382 1114 q 524 1067 471 1114 q 576 940 576 1019 q 524 813 576 860 q 382 765 471 765 q 242 813 294 765 q 189 940 189 860 q 242 1067 189 1019 q 382 1114 294 1114 m 436 992 q 426 1002 436 992 q 382 1013 415 1013 q 328 992 349 1013 q 308 940 308 972 q 328 888 308 908 q 382 867 349 867 q 436 888 415 867 q 457 940 457 908 q 436 992 457 972 m 472 440 q 445 517 472 489 q 372 546 418 546 q 249 442 271 546 l 49 489 q 153 650 68 592 q 386 708 239 708 q 623 640 539 708 q 707 444 707 572 l 707 190 q 756 136 707 136 q 796 142 781 136 l 782 7 q 681 -12 740 -12 q 504 92 538 -12 q 415 13 476 40 q 278 -14 353 -14 q 107 35 169 -14 q 44 178 44 85 q 232 371 44 332 l 472 421 l 472 440 m 297 247 q 288 239 297 247 q 278 200 278 231 q 299 154 278 169 q 353 139 319 139 q 438 169 404 139 q 472 257 472 199 l 472 296 l 360 272 q 297 247 317 264 z "},"æ":{"ha":1219,"x_min":44,"x_max":1172,"o":"m 289 -14 q 108 35 172 -14 q 44 178 44 85 q 94 303 44 253 q 235 372 144 354 l 471 419 l 471 438 q 443 517 471 489 q 367 546 415 546 q 249 442 272 546 l 47 489 q 148 646 58 583 q 368 708 238 708 q 618 617 549 708 q 847 708 707 708 q 1087 617 1001 708 q 1172 379 1172 526 q 1167 288 1172 346 l 699 288 q 743 189 699 225 q 851 153 788 153 q 969 232 936 153 l 1160 169 q 1047 34 1131 82 q 854 -14 964 -14 q 572 133 653 -14 q 467 26 540 67 q 289 -14 393 -14 m 699 414 l 949 414 q 915 509 946 475 q 832 543 883 543 q 699 414 719 543 m 353 138 q 436 170 401 138 q 471 258 471 203 l 471 299 l 357 274 q 294 248 313 264 q 276 200 276 232 q 297 155 276 172 q 353 138 317 138 z "},"ç":{"ha":788,"x_min":49,"x_max":750,"o":"m 414 708 q 647 647 563 708 q 749 493 731 586 l 531 421 q 495 511 521 482 q 421 540 469 540 q 286 344 286 540 q 422 154 286 154 q 538 267 521 154 l 750 199 q 677 69 738 124 q 521 -4 617 14 q 576 -125 576 -50 q 524 -251 576 -204 q 382 -299 471 -299 q 239 -258 300 -299 l 278 -146 q 361 -171 315 -171 q 419 -150 397 -171 q 442 -92 442 -129 q 375 -11 442 -43 q 135 97 222 3 q 49 347 49 190 q 149 612 49 515 q 414 708 249 708 z "},"è":{"ha":804,"x_min":49,"x_max":757,"o":"m 408 1025 l 501 785 l 329 785 l 189 1025 l 408 1025 m 424 -14 q 149 81 250 -14 q 49 347 49 176 q 149 613 49 517 q 413 708 249 708 q 665 617 574 708 q 757 379 757 526 q 751 288 757 332 l 278 288 q 424 153 297 153 q 554 232 521 153 l 743 169 q 626 34 714 82 q 424 -14 538 -14 m 413 543 q 279 414 301 543 l 533 414 q 413 543 518 543 z "},"é":{"ha":804,"x_min":49,"x_max":757,"o":"m 394 1025 l 614 1025 l 474 785 l 301 785 l 394 1025 m 424 -14 q 149 81 250 -14 q 49 347 49 176 q 149 613 49 517 q 413 708 249 708 q 665 617 574 708 q 757 379 757 526 q 751 288 757 332 l 278 288 q 424 153 297 153 q 554 232 521 153 l 743 169 q 626 34 714 82 q 424 -14 538 -14 m 413 543 q 279 414 301 543 l 533 414 q 413 543 518 543 z "},"ê":{"ha":804,"x_min":49,"x_max":757,"o":"m 674 776 l 504 776 l 408 899 l 313 776 l 143 776 l 294 1017 l 522 1017 l 674 776 m 424 -14 q 149 81 250 -14 q 49 347 49 176 q 149 613 49 517 q 413 708 249 708 q 665 617 574 708 q 757 379 757 526 q 751 288 757 332 l 278 288 q 424 153 297 153 q 554 232 521 153 l 743 169 q 626 34 714 82 q 424 -14 538 -14 m 413 543 q 279 414 301 543 l 533 414 q 413 543 518 543 z "},"ë":{"ha":804,"x_min":49,"x_max":757,"o":"m 254 986 q 342 958 310 986 q 374 879 374 929 q 342 801 374 829 q 254 772 310 772 q 169 801 200 772 q 138 879 138 829 q 169 958 138 929 q 254 986 200 986 m 474 958 q 489 972 474 958 q 560 986 504 986 q 647 958 615 986 q 679 879 679 929 q 647 801 679 829 q 560 772 615 772 q 474 801 504 772 q 443 879 443 829 q 474 958 443 929 m 424 -14 q 149 81 250 -14 q 49 347 49 176 q 149 613 49 517 q 413 708 249 708 q 665 617 574 708 q 757 379 757 526 q 751 288 757 332 l 278 288 q 424 153 297 153 q 554 232 521 153 l 743 169 q 626 34 714 82 q 424 -14 538 -14 m 413 543 q 279 414 301 543 l 533 414 q 413 543 518 543 z "},"ì":{"ha":404,"x_min":-17,"x_max":321,"o":"m 203 1025 l 294 785 l 124 785 l -17 1025 l 203 1025 m 321 694 l 321 0 l 85 0 l 85 694 l 321 694 z "},"í":{"ha":404,"x_min":85,"x_max":407,"o":"m 188 1025 l 407 1025 l 267 785 l 96 785 l 188 1025 m 321 694 l 321 0 l 85 0 l 85 694 l 321 694 z "},"î":{"ha":404,"x_min":-64,"x_max":468,"o":"m 468 776 l 297 776 l 203 899 l 107 776 l -64 776 l 88 1017 l 317 1017 l 468 776 m 321 694 l 321 0 l 85 0 l 85 694 l 321 694 z "},"ï":{"ha":404,"x_min":-43,"x_max":447,"o":"m 336 769 q 224 879 224 769 q 336 989 224 989 q 447 879 447 989 q 336 769 447 769 m 68 769 q -43 879 -43 769 q 68 989 -43 989 q 181 879 181 989 q 68 769 181 769 m 321 694 l 321 0 l 85 0 l 85 694 l 321 694 z "},"ð":{"ha":839,"x_min":57,"x_max":789,"o":"m 681 101 q 632 43 681 101 q 414 -14 582 -14 q 151 78 246 -14 q 57 338 57 171 q 149 594 57 500 q 388 688 240 688 q 593 581 535 688 q 492 796 567 704 l 267 749 l 250 833 l 425 867 q 244 1003 363 925 l 460 1003 q 599 899 536 961 l 769 935 l 789 854 l 657 829 q 781 421 781 658 q 681 101 781 215 m 422 154 q 557 338 557 154 q 425 532 557 532 q 296 338 296 532 q 422 154 296 154 z "},"ñ":{"ha":861,"x_min":85,"x_max":781,"o":"m 710 997 q 657 833 704 889 q 538 776 610 776 q 456 797 493 776 q 392 836 419 817 q 344 856 365 856 q 292 778 300 856 l 158 778 q 211 942 163 886 q 339 999 260 999 q 417 978 382 999 q 477 939 451 958 q 524 919 503 919 q 576 997 565 919 l 710 997 m 85 0 l 85 694 l 296 694 l 303 554 q 540 708 367 708 q 715 644 650 708 q 781 463 781 581 l 781 0 l 544 0 l 544 400 q 446 528 544 528 q 356 489 390 528 q 321 368 321 450 l 321 0 l 85 0 z "},"ò":{"ha":832,"x_min":49,"x_max":783,"o":"m 417 1025 l 508 785 l 338 785 l 197 1025 l 417 1025 m 415 708 q 683 612 582 708 q 783 347 783 515 q 683 83 783 179 q 415 -14 582 -14 q 149 83 250 -14 q 49 347 49 179 q 149 612 49 515 q 415 708 250 708 m 415 540 q 286 347 286 540 q 415 154 286 154 q 546 347 546 154 q 415 540 546 540 z "},"ó":{"ha":832,"x_min":49,"x_max":783,"o":"m 401 1025 l 621 1025 l 481 785 l 310 785 l 401 1025 m 415 708 q 683 612 582 708 q 783 347 783 515 q 683 83 783 179 q 415 -14 582 -14 q 149 83 250 -14 q 49 347 49 179 q 149 612 49 515 q 415 708 250 708 m 415 540 q 286 347 286 540 q 415 154 286 154 q 546 347 546 154 q 415 540 546 540 z "},"ô":{"ha":832,"x_min":49,"x_max":783,"o":"m 682 776 l 511 776 l 415 899 l 321 776 l 150 776 l 301 1017 l 531 1017 l 682 776 m 415 708 q 683 612 582 708 q 783 347 783 515 q 683 83 783 179 q 415 -14 582 -14 q 149 83 250 -14 q 49 347 49 179 q 149 612 49 515 q 415 708 250 708 m 415 540 q 286 347 286 540 q 415 154 286 154 q 546 347 546 154 q 415 540 546 540 z "},"õ":{"ha":832,"x_min":49,"x_max":783,"o":"m 690 997 q 639 833 686 890 q 519 776 592 776 q 438 797 475 776 q 374 836 401 817 q 326 856 347 856 q 274 778 282 856 l 140 778 q 192 942 144 886 q 321 999 240 999 q 399 978 364 999 q 458 939 433 958 q 504 919 483 919 q 557 997 549 919 l 690 997 m 415 708 q 683 612 582 708 q 783 347 783 515 q 683 83 783 179 q 415 -14 582 -14 q 149 83 250 -14 q 49 347 49 179 q 149 612 49 515 q 415 708 250 708 m 415 540 q 286 347 286 540 q 415 154 286 154 q 546 347 546 154 q 415 540 546 540 z "},"ö":{"ha":832,"x_min":49,"x_max":783,"o":"m 176 958 q 192 972 176 958 q 263 986 207 986 q 349 958 318 986 q 381 879 381 929 q 349 801 381 829 q 263 772 318 772 q 176 801 207 772 q 146 879 146 829 q 176 958 146 929 m 567 986 q 654 958 622 986 q 686 879 686 929 q 654 801 686 829 q 567 772 622 772 q 481 801 513 772 q 450 879 450 829 q 481 958 450 929 q 567 986 513 986 m 415 708 q 683 612 582 708 q 783 347 783 515 q 683 83 783 179 q 415 -14 582 -14 q 149 83 250 -14 q 49 347 49 179 q 149 612 49 515 q 415 708 250 708 m 415 540 q 286 347 286 540 q 415 154 286 154 q 546 347 546 154 q 415 540 546 540 z "},"÷":{"ha":865,"x_min":83,"x_max":783,"o":"m 435 867 q 522 836 490 867 q 554 751 554 806 q 522 667 554 697 q 435 636 490 636 q 346 667 378 636 q 314 751 314 697 q 346 836 314 806 q 435 867 378 867 m 783 536 l 783 367 l 83 367 l 83 536 l 783 536 m 435 269 q 522 239 490 269 q 554 154 554 208 q 522 69 554 100 q 435 39 490 39 q 346 69 378 39 q 314 154 314 100 q 346 239 314 208 q 435 269 378 269 z "},"ø":{"ha":832,"x_min":49,"x_max":783,"o":"m 63 -35 l 153 79 q 49 347 49 176 q 149 612 49 515 q 415 708 250 708 q 621 658 535 708 l 676 728 l 769 728 l 679 615 q 783 347 783 515 q 683 83 783 179 q 415 -14 582 -14 q 211 36 297 -14 l 156 -35 l 63 -35 m 415 540 q 286 347 286 540 q 296 256 286 290 l 500 508 q 415 540 469 540 m 546 347 q 536 439 546 404 l 332 185 q 415 154 363 154 q 546 347 546 154 z "},"ù":{"ha":860,"x_min":81,"x_max":775,"o":"m 424 1019 l 515 779 l 344 779 l 204 1019 l 424 1019 m 319 -14 q 144 45 207 -14 q 81 231 81 104 l 81 694 l 317 694 l 317 286 q 342 194 317 222 q 418 167 367 167 q 505 206 471 167 q 539 322 539 244 l 539 694 l 775 694 l 775 0 l 564 0 l 557 131 q 319 -14 493 -14 z "},"ú":{"ha":860,"x_min":81,"x_max":775,"o":"m 410 1019 l 628 1019 l 488 779 l 317 779 l 410 1019 m 319 -14 q 144 45 207 -14 q 81 231 81 104 l 81 694 l 317 694 l 317 286 q 342 194 317 222 q 418 167 367 167 q 505 206 471 167 q 539 322 539 244 l 539 694 l 775 694 l 775 0 l 564 0 l 557 131 q 319 -14 493 -14 z "},"û":{"ha":860,"x_min":81,"x_max":775,"o":"m 689 771 l 518 771 l 424 893 l 328 771 l 157 771 l 310 1011 l 538 1011 l 689 771 m 319 -14 q 144 45 207 -14 q 81 231 81 104 l 81 694 l 317 694 l 317 286 q 342 194 317 222 q 418 167 367 167 q 505 206 471 167 q 539 322 539 244 l 539 694 l 775 694 l 775 0 l 564 0 l 557 131 q 319 -14 493 -14 z "},"ü":{"ha":860,"x_min":81,"x_max":775,"o":"m 183 952 q 199 966 183 952 q 269 981 214 981 q 357 952 325 981 q 389 874 389 924 q 357 795 389 824 q 269 767 325 767 q 183 795 214 767 q 153 874 153 824 q 183 952 153 924 m 489 952 q 504 966 489 952 q 575 981 519 981 q 663 952 631 981 q 694 874 694 924 q 663 795 694 824 q 575 767 631 767 q 489 795 519 767 q 458 874 458 824 q 489 952 458 924 m 319 -14 q 144 45 207 -14 q 81 231 81 104 l 81 694 l 317 694 l 317 286 q 342 194 317 222 q 418 167 367 167 q 505 206 471 167 q 539 322 539 244 l 539 694 l 775 694 l 775 0 l 564 0 l 557 131 q 319 -14 493 -14 z "},"ý":{"ha":782,"x_min":-4,"x_max":783,"o":"m 399 1019 l 618 1019 l 478 779 l 307 779 l 399 1019 m 783 694 l 531 0 q 397 -232 474 -165 q 188 -299 319 -299 q -4 -251 72 -299 l 43 -92 q 167 -125 88 -125 q 235 -110 210 -125 q 274 -58 260 -96 l 292 -15 l 211 174 l 3 694 l 263 694 l 369 299 l 403 151 l 442 304 l 549 694 l 783 694 z "},"þ":{"ha":871,"x_min":85,"x_max":817,"o":"m 85 -292 l 85 989 l 321 989 l 321 575 q 539 708 383 708 q 740 611 663 708 q 817 344 817 514 q 738 82 817 178 q 529 -14 660 -14 q 321 119 383 -14 l 321 -292 l 85 -292 m 449 160 q 579 347 579 160 q 450 535 579 535 q 356 485 390 535 q 321 347 321 436 q 354 210 321 260 q 449 160 388 160 z "},"ÿ":{"ha":782,"x_min":-4,"x_max":783,"o":"m 174 952 q 189 966 174 952 q 260 981 204 981 q 347 952 315 981 q 378 874 378 924 q 347 795 378 824 q 260 767 315 767 q 174 795 204 767 q 143 874 143 824 q 174 952 143 924 m 564 981 q 651 952 619 981 q 683 874 683 924 q 651 795 683 824 q 564 767 619 767 q 478 795 510 767 q 447 874 447 824 q 478 952 447 924 q 564 981 510 981 m 783 694 l 531 0 q 397 -232 474 -165 q 188 -299 319 -299 q -4 -251 72 -299 l 43 -92 q 167 -125 88 -125 q 235 -110 210 -125 q 274 -58 260 -96 l 292 -15 l 211 174 l 3 694 l 263 694 l 369 299 l 403 151 l 442 304 l 549 694 l 783 694 z "},"Ā":{"ha":940,"x_min":6,"x_max":935,"o":"m 722 1158 l 722 1013 l 217 1013 l 217 1158 l 722 1158 m 935 0 l 689 0 l 625 207 l 311 207 l 246 0 l 6 0 l 328 917 l 614 917 l 935 0 m 356 369 l 581 369 l 468 740 l 356 369 z "},"ā":{"ha":804,"x_min":44,"x_max":796,"o":"m 638 936 l 638 790 l 132 790 l 132 936 l 638 936 m 472 440 q 445 517 472 489 q 372 546 418 546 q 249 442 271 546 l 49 489 q 153 650 68 592 q 386 708 239 708 q 623 640 539 708 q 707 444 707 572 l 707 190 q 756 136 707 136 q 796 142 781 136 l 782 7 q 681 -12 740 -12 q 504 92 538 -12 q 415 13 476 40 q 278 -14 353 -14 q 107 35 169 -14 q 44 178 44 85 q 232 371 44 332 l 472 421 l 472 440 m 297 247 q 288 239 297 247 q 278 200 278 231 q 299 154 278 169 q 353 139 319 139 q 438 169 404 139 q 472 257 472 199 l 472 296 l 360 272 q 297 247 317 264 z "},"Ă":{"ha":940,"x_min":6,"x_max":935,"o":"m 704 1219 q 641 1053 704 1114 q 469 993 578 993 q 298 1054 361 993 q 235 1219 235 1115 l 388 1219 q 408 1151 388 1176 q 469 1125 429 1125 q 531 1150 510 1125 q 553 1219 553 1175 l 704 1219 m 935 0 l 689 0 l 625 207 l 311 207 l 246 0 l 6 0 l 328 917 l 614 917 l 935 0 m 356 369 l 581 369 l 468 740 l 356 369 z "},"ă":{"ha":804,"x_min":44,"x_max":796,"o":"m 619 997 q 556 832 619 893 q 385 771 493 771 q 213 831 276 771 q 150 997 150 892 l 301 997 q 323 928 301 953 q 385 903 344 903 q 446 928 425 903 q 467 997 467 954 l 619 997 m 472 440 q 445 517 472 489 q 372 546 418 546 q 249 442 271 546 l 49 489 q 153 650 68 592 q 386 708 239 708 q 623 640 539 708 q 707 444 707 572 l 707 190 q 756 136 707 136 q 796 142 781 136 l 782 7 q 681 -12 740 -12 q 504 92 538 -12 q 415 13 476 40 q 278 -14 353 -14 q 107 35 169 -14 q 44 178 44 85 q 232 371 44 332 l 472 421 l 472 440 m 297 247 q 288 239 297 247 q 278 200 278 231 q 299 154 278 169 q 353 139 319 139 q 438 169 404 139 q 472 257 472 199 l 472 296 l 360 272 q 297 247 317 264 z "},"Ą":{"ha":940,"x_min":6,"x_max":943,"o":"m 800 -299 q 660 -259 714 -299 q 607 -142 607 -219 q 696 0 607 -50 l 689 0 l 625 207 l 311 207 l 246 0 l 6 0 l 328 917 l 614 917 l 935 0 q 808 -42 844 -15 q 772 -106 772 -68 q 849 -167 772 -167 q 913 -153 890 -167 l 943 -267 q 800 -299 892 -299 m 356 369 l 581 369 l 468 740 l 356 369 z "},"ą":{"ha":804,"x_min":44,"x_max":796,"o":"m 472 440 q 445 517 472 489 q 372 546 418 546 q 249 442 271 546 l 49 489 q 153 650 68 592 q 386 708 239 708 q 623 640 539 708 q 707 444 707 572 l 707 190 q 756 136 707 136 q 796 142 781 136 l 782 10 l 785 8 l 782 7 q 760 -1 768 1 q 660 -60 688 -33 q 632 -117 632 -86 q 650 -159 632 -143 q 700 -175 668 -175 q 763 -161 743 -175 l 786 -281 q 658 -307 742 -307 q 527 -266 581 -307 q 474 -153 474 -225 q 585 4 474 -49 q 504 92 522 31 q 415 13 476 40 q 278 -14 353 -14 q 107 35 169 -14 q 44 178 44 85 q 232 371 44 332 l 472 421 l 472 440 m 297 247 q 288 239 297 247 q 278 200 278 231 q 299 154 278 169 q 353 139 319 139 q 438 169 404 139 q 472 257 472 199 l 472 296 l 360 272 q 297 247 317 264 z "},"Ć":{"ha":946,"x_min":63,"x_max":914,"o":"m 489 1231 l 699 1231 l 575 1004 l 404 1004 l 489 1231 m 914 263 q 769 55 875 124 q 513 -14 664 -14 q 183 112 303 -14 q 63 458 63 238 q 183 805 63 679 q 511 931 303 931 q 765 867 661 931 q 903 678 869 804 l 693 593 q 631 709 674 675 q 519 743 589 743 q 363 670 418 743 q 307 458 307 597 q 521 174 307 174 q 697 324 665 174 l 914 263 z "},"ć":{"ha":788,"x_min":49,"x_max":750,"o":"m 396 1025 l 615 1025 l 475 785 l 303 785 l 396 1025 m 414 708 q 647 647 563 708 q 749 493 731 586 l 531 421 q 495 511 521 482 q 421 540 469 540 q 286 344 286 540 q 422 154 286 154 q 538 267 521 154 l 750 199 q 647 46 733 106 q 424 -14 560 -14 q 149 82 250 -14 q 49 347 49 178 q 149 612 49 515 q 414 708 249 708 z "},"Ĉ":{"ha":946,"x_min":63,"x_max":914,"o":"m 758 1004 l 593 1004 l 503 1132 l 413 1004 l 249 1004 l 388 1231 l 618 1231 l 758 1004 m 914 263 q 769 55 875 124 q 513 -14 664 -14 q 183 112 303 -14 q 63 458 63 238 q 183 805 63 679 q 511 931 303 931 q 765 867 661 931 q 903 678 869 804 l 693 593 q 631 709 674 675 q 519 743 589 743 q 363 670 418 743 q 307 458 307 597 q 521 174 307 174 q 697 324 665 174 l 914 263 z "},"ĉ":{"ha":788,"x_min":49,"x_max":750,"o":"m 675 776 l 506 776 l 410 899 l 314 776 l 144 776 l 296 1017 l 524 1017 l 675 776 m 414 708 q 647 647 563 708 q 749 493 731 586 l 531 421 q 495 511 521 482 q 421 540 469 540 q 286 344 286 540 q 422 154 286 154 q 538 267 521 154 l 750 199 q 647 46 733 106 q 424 -14 560 -14 q 149 82 250 -14 q 49 347 49 178 q 149 612 49 515 q 414 708 249 708 z "},"Ċ":{"ha":946,"x_min":63,"x_max":914,"o":"m 503 1225 q 632 1114 632 1225 q 503 1001 632 1001 q 376 1114 376 1001 q 503 1225 376 1225 m 914 263 q 769 55 875 124 q 513 -14 664 -14 q 183 112 303 -14 q 63 458 63 238 q 183 805 63 679 q 511 931 303 931 q 765 867 661 931 q 903 678 869 804 l 693 593 q 631 709 674 675 q 519 743 589 743 q 363 670 418 743 q 307 458 307 597 q 521 174 307 174 q 697 324 665 174 l 914 263 z "},"ċ":{"ha":788,"x_min":49,"x_max":750,"o":"m 410 1003 q 539 892 539 1003 q 410 779 539 779 q 283 892 283 779 q 410 1003 283 1003 m 414 708 q 647 647 563 708 q 749 493 731 586 l 531 421 q 495 511 521 482 q 421 540 469 540 q 286 344 286 540 q 422 154 286 154 q 538 267 521 154 l 750 199 q 647 46 733 106 q 424 -14 560 -14 q 149 82 250 -14 q 49 347 49 178 q 149 612 49 515 q 414 708 249 708 z "},"Č":{"ha":946,"x_min":63,"x_max":914,"o":"m 758 1231 l 618 1004 l 388 1004 l 249 1231 l 413 1231 l 503 1103 l 593 1231 l 758 1231 m 914 263 q 769 55 875 124 q 513 -14 664 -14 q 183 112 303 -14 q 63 458 63 238 q 183 805 63 679 q 511 931 303 931 q 765 867 661 931 q 903 678 869 804 l 693 593 q 631 709 674 675 q 519 743 589 743 q 363 670 418 743 q 307 458 307 597 q 521 174 307 174 q 697 324 665 174 l 914 263 z "},"č":{"ha":788,"x_min":49,"x_max":750,"o":"m 671 1025 l 519 785 l 290 785 l 139 1025 l 310 1025 l 404 901 l 500 1025 l 671 1025 m 414 708 q 647 647 563 708 q 749 493 731 586 l 531 421 q 495 511 521 482 q 421 540 469 540 q 286 344 286 540 q 422 154 286 154 q 538 267 521 154 l 750 199 q 647 46 733 106 q 424 -14 560 -14 q 149 82 250 -14 q 49 347 49 178 q 149 612 49 515 q 414 708 249 708 z "},"Ď":{"ha":997,"x_min":101,"x_max":935,"o":"m 733 1231 l 594 1004 l 364 1004 l 224 1231 l 389 1231 l 479 1103 l 569 1231 l 733 1231 m 490 917 q 820 798 706 917 q 935 458 935 679 q 820 119 935 238 q 490 0 706 0 l 101 0 l 101 917 l 490 917 m 467 181 q 636 250 582 181 q 690 458 690 319 q 636 667 690 597 q 467 736 582 736 l 340 736 l 340 181 l 467 181 z "},"ď":{"ha":975,"x_min":54,"x_max":1056,"o":"m 1056 989 l 982 657 l 846 657 l 875 989 l 1056 989 m 340 -14 q 132 81 210 -14 q 54 344 54 176 q 134 612 54 515 q 346 708 214 708 q 550 576 490 708 l 550 989 l 786 989 l 786 0 l 575 0 l 567 136 q 478 26 538 65 q 340 -14 418 -14 m 422 160 q 516 210 482 160 q 550 351 550 260 q 517 487 550 439 q 424 535 483 535 q 292 347 292 535 q 422 160 292 160 z "},"Đ":{"ha":1029,"x_min":18,"x_max":968,"o":"m 18 375 l 18 542 l 133 542 l 133 917 l 522 917 q 853 798 738 917 q 968 458 968 679 q 853 119 968 238 q 522 0 738 0 l 133 0 l 133 375 l 18 375 m 499 181 q 668 250 614 181 q 722 458 722 319 q 668 667 722 597 q 499 736 614 736 l 372 736 l 372 542 l 554 542 l 554 375 l 372 375 l 372 181 l 499 181 z "},"đ":{"ha":872,"x_min":54,"x_max":894,"o":"m 340 -14 q 132 81 210 -14 q 54 344 54 176 q 134 612 54 515 q 346 708 214 708 q 550 576 490 708 l 550 747 l 372 747 l 372 882 l 550 882 l 550 989 l 786 989 l 786 882 l 894 882 l 894 747 l 786 747 l 786 0 l 575 0 l 567 136 q 478 26 538 65 q 340 -14 418 -14 m 422 160 q 516 210 482 160 q 550 351 550 260 q 517 487 550 439 q 424 535 483 535 q 292 347 292 535 q 422 160 292 160 z "},"Ē":{"ha":876,"x_min":101,"x_max":833,"o":"m 711 1158 l 711 1013 l 206 1013 l 206 1158 l 711 1158 m 101 0 l 101 917 l 815 917 l 815 732 l 340 732 l 340 546 l 718 546 l 718 372 l 340 372 l 340 185 l 833 185 l 833 0 l 101 0 z "},"ē":{"ha":804,"x_min":49,"x_max":757,"o":"m 661 936 l 661 790 l 156 790 l 156 936 l 661 936 m 424 -14 q 149 81 250 -14 q 49 347 49 176 q 149 613 49 517 q 413 708 249 708 q 665 617 574 708 q 757 379 757 526 q 751 288 757 332 l 278 288 q 424 153 297 153 q 554 232 521 153 l 743 169 q 626 34 714 82 q 424 -14 538 -14 m 413 543 q 279 414 301 543 l 533 414 q 413 543 518 543 z "},"Ĕ":{"ha":876,"x_min":101,"x_max":833,"o":"m 693 1219 q 630 1053 693 1114 q 458 993 567 993 q 287 1054 350 993 q 224 1219 224 1115 l 376 1219 q 397 1151 376 1176 q 458 1125 418 1125 q 520 1150 499 1125 q 542 1219 542 1175 l 693 1219 m 101 0 l 101 917 l 815 917 l 815 732 l 340 732 l 340 546 l 718 546 l 718 372 l 340 372 l 340 185 l 833 185 l 833 0 l 101 0 z "},"ĕ":{"ha":804,"x_min":49,"x_max":757,"o":"m 643 997 q 580 831 643 892 q 408 771 517 771 q 237 831 300 771 q 174 997 174 892 l 325 997 q 408 903 328 903 q 492 997 489 903 l 643 997 m 424 -14 q 149 81 250 -14 q 49 347 49 176 q 149 613 49 517 q 413 708 249 708 q 665 617 574 708 q 757 379 757 526 q 751 288 757 332 l 278 288 q 424 153 297 153 q 554 232 521 153 l 743 169 q 626 34 714 82 q 424 -14 538 -14 m 413 543 q 279 414 301 543 l 533 414 q 413 543 518 543 z "},"Ė":{"ha":876,"x_min":101,"x_max":833,"o":"m 458 1225 q 588 1114 588 1225 q 458 1001 588 1001 q 332 1114 332 1001 q 458 1225 332 1225 m 101 0 l 101 917 l 815 917 l 815 732 l 340 732 l 340 546 l 718 546 l 718 372 l 340 372 l 340 185 l 833 185 l 833 0 l 101 0 z "},"ė":{"ha":804,"x_min":49,"x_max":757,"o":"m 408 1003 q 538 892 538 1003 q 408 779 538 779 q 282 892 282 779 q 408 1003 282 1003 m 424 -14 q 149 81 250 -14 q 49 347 49 176 q 149 613 49 517 q 413 708 249 708 q 665 617 574 708 q 757 379 757 526 q 751 288 757 332 l 278 288 q 424 153 297 153 q 554 232 521 153 l 743 169 q 626 34 714 82 q 424 -14 538 -14 m 413 543 q 279 414 301 543 l 533 414 q 413 543 518 543 z "},"Ę":{"ha":876,"x_min":101,"x_max":838,"o":"m 101 0 l 101 917 l 815 917 l 815 732 l 340 732 l 340 546 l 718 546 l 718 372 l 340 372 l 340 185 l 833 185 l 833 0 l 835 0 q 667 -114 667 -39 q 687 -159 667 -143 q 743 -175 707 -175 q 807 -161 785 -175 l 838 -276 q 694 -307 786 -307 q 555 -267 608 -307 q 501 -153 501 -228 q 622 0 501 -54 l 101 0 z "},"ę":{"ha":804,"x_min":49,"x_max":757,"o":"m 446 -306 q 309 -265 358 -306 q 260 -151 260 -224 q 340 -8 260 -58 q 126 106 203 14 q 49 347 49 199 q 149 613 49 517 q 413 708 249 708 q 665 617 574 708 q 757 379 757 526 q 751 288 757 332 l 278 288 q 424 153 297 153 q 554 232 521 153 l 743 169 q 550 3 703 47 q 444 -49 475 -24 q 414 -111 414 -75 q 489 -174 414 -174 q 553 -160 529 -174 l 576 -279 q 446 -306 529 -306 m 413 543 q 279 414 301 543 l 533 414 q 413 543 518 543 z "},"Ě":{"ha":876,"x_min":101,"x_max":833,"o":"m 714 1231 l 574 1004 l 343 1004 l 204 1231 l 368 1231 l 458 1103 l 549 1231 l 714 1231 m 101 0 l 101 917 l 815 917 l 815 732 l 340 732 l 340 546 l 718 546 l 718 372 l 340 372 l 340 185 l 833 185 l 833 0 l 101 0 z "},"ě":{"ha":804,"x_min":49,"x_max":757,"o":"m 669 1025 l 518 785 l 289 785 l 138 1025 l 308 1025 l 403 901 l 499 1025 l 669 1025 m 424 -14 q 149 81 250 -14 q 49 347 49 176 q 149 613 49 517 q 413 708 249 708 q 665 617 574 708 q 757 379 757 526 q 751 288 757 332 l 278 288 q 424 153 297 153 q 554 232 521 153 l 743 169 q 626 34 714 82 q 424 -14 538 -14 m 413 543 q 279 414 301 543 l 533 414 q 413 543 518 543 z "},"Ĝ":{"ha":1004,"x_min":63,"x_max":922,"o":"m 765 1004 l 601 1004 l 511 1132 l 421 1004 l 256 1004 l 396 1231 l 626 1231 l 765 1004 m 481 -14 q 177 110 292 -14 q 63 457 63 233 q 185 804 63 678 q 521 931 308 931 q 772 874 676 931 q 921 696 868 818 l 700 608 q 522 743 667 743 q 363 670 418 743 q 307 458 307 597 q 535 168 307 168 q 669 207 618 168 q 719 321 719 246 l 719 335 l 510 335 l 510 494 l 922 494 l 922 0 l 760 0 l 750 113 q 481 -14 671 -14 z "},"ĝ":{"ha":778,"x_min":31,"x_max":793,"o":"m 136 776 l 251 1017 l 454 1017 l 568 776 l 431 776 l 353 910 l 274 776 l 136 776 m 518 154 q 703 103 639 154 q 768 -42 768 53 q 667 -234 768 -169 q 386 -299 565 -299 q 31 -124 31 -299 q 163 3 31 -21 q 61 143 61 40 q 90 228 61 192 q 171 282 119 264 q 60 472 60 343 q 148 647 60 585 q 396 708 236 708 q 568 683 494 708 q 633 826 579 771 q 764 881 688 881 l 767 881 l 793 724 l 778 724 q 651 640 669 724 q 731 472 731 578 q 643 299 731 360 q 396 238 556 238 q 265 250 324 238 q 219 201 219 236 q 297 154 219 154 l 518 154 m 396 574 q 321 547 349 574 q 293 472 293 521 q 321 399 293 425 q 396 372 349 372 q 470 399 442 372 q 499 472 499 425 q 470 547 499 519 q 396 574 442 574 m 388 -146 q 535 -126 485 -146 q 586 -75 586 -107 q 515 -31 586 -31 l 267 -31 q 224 -44 240 -31 q 208 -79 208 -58 q 256 -128 208 -111 q 388 -146 303 -146 z "},"Ğ":{"ha":1004,"x_min":63,"x_max":922,"o":"m 746 1219 q 683 1054 746 1115 q 511 993 619 993 q 340 1053 403 993 q 276 1219 276 1114 l 428 1219 q 449 1150 428 1175 q 511 1125 471 1125 q 572 1151 551 1125 q 593 1219 593 1176 l 746 1219 m 481 -14 q 177 110 292 -14 q 63 457 63 233 q 185 804 63 678 q 521 931 308 931 q 772 874 676 931 q 921 696 868 818 l 700 608 q 522 743 667 743 q 363 670 418 743 q 307 458 307 597 q 535 168 307 168 q 669 207 618 168 q 719 321 719 246 l 719 335 l 510 335 l 510 494 l 922 494 l 922 0 l 760 0 l 750 113 q 481 -14 671 -14 z "},"ğ":{"ha":778,"x_min":31,"x_max":793,"o":"m 629 997 q 566 831 629 892 q 394 771 503 771 q 223 832 286 771 q 160 997 160 893 l 313 997 q 333 928 313 954 q 394 903 354 903 q 478 997 475 903 l 629 997 m 518 154 q 703 103 639 154 q 768 -42 768 53 q 667 -234 768 -169 q 386 -299 565 -299 q 31 -124 31 -299 q 163 3 31 -21 q 61 143 61 40 q 90 228 61 192 q 171 282 119 264 q 60 472 60 343 q 148 647 60 585 q 396 708 236 708 q 568 683 494 708 q 633 826 579 771 q 764 881 688 881 l 767 881 l 793 724 l 778 724 q 651 640 669 724 q 731 472 731 578 q 643 299 731 360 q 396 238 556 238 q 265 250 324 238 q 219 201 219 236 q 297 154 219 154 l 518 154 m 396 574 q 321 547 349 574 q 293 472 293 521 q 321 399 293 425 q 396 372 349 372 q 470 399 442 372 q 499 472 499 425 q 470 547 499 519 q 396 574 442 574 m 388 -146 q 535 -126 485 -146 q 586 -75 586 -107 q 515 -31 586 -31 l 267 -31 q 224 -44 240 -31 q 208 -79 208 -58 q 256 -128 208 -111 q 388 -146 303 -146 z "},"Ġ":{"ha":1004,"x_min":63,"x_max":922,"o":"m 511 1225 q 640 1114 640 1225 q 511 1001 640 1001 q 383 1114 383 1001 q 511 1225 383 1225 m 481 -14 q 177 110 292 -14 q 63 457 63 233 q 185 804 63 678 q 521 931 308 931 q 772 874 676 931 q 921 696 868 818 l 700 608 q 522 743 667 743 q 363 670 418 743 q 307 458 307 597 q 535 168 307 168 q 669 207 618 168 q 719 321 719 246 l 719 335 l 510 335 l 510 494 l 922 494 l 922 0 l 760 0 l 750 113 q 481 -14 671 -14 z "},"ġ":{"ha":778,"x_min":31,"x_max":776,"o":"m 361 1003 q 490 892 490 1003 q 361 779 490 779 q 235 892 235 779 q 361 1003 235 1003 m 518 154 q 703 103 639 154 q 768 -42 768 53 q 667 -234 768 -169 q 386 -299 565 -299 q 31 -124 31 -299 q 163 3 31 -21 q 61 143 61 40 q 90 228 61 192 q 171 282 119 264 q 60 472 60 343 q 148 647 60 585 q 396 708 236 708 q 542 692 478 708 q 601 828 551 774 q 735 882 650 882 q 757 881 749 882 l 776 722 q 743 726 758 726 q 626 657 650 726 q 731 472 731 596 q 643 299 731 360 q 396 238 556 238 q 265 250 324 238 q 219 201 219 236 q 297 154 219 154 l 518 154 m 396 574 q 321 547 349 574 q 293 472 293 521 q 321 399 293 425 q 396 372 349 372 q 470 399 442 372 q 499 472 499 425 q 470 547 499 519 q 396 574 442 574 m 388 -146 q 535 -126 485 -146 q 586 -75 586 -107 q 515 -31 586 -31 l 267 -31 q 224 -44 240 -31 q 208 -79 208 -58 q 256 -128 208 -111 q 388 -146 303 -146 z "},"Ģ":{"ha":1004,"x_min":63,"x_max":922,"o":"m 481 -14 q 177 110 292 -14 q 63 457 63 233 q 185 804 63 678 q 521 931 308 931 q 772 874 676 931 q 921 696 868 818 l 700 608 q 522 743 667 743 q 363 670 418 743 q 307 458 307 597 q 535 168 307 168 q 669 207 618 168 q 719 321 719 246 l 719 335 l 510 335 l 510 494 l 922 494 l 922 0 l 760 0 l 750 113 q 481 -14 671 -14 m 661 -83 l 563 -335 l 408 -335 l 453 -83 l 661 -83 z "},"ģ":{"ha":778,"x_min":31,"x_max":776,"o":"m 532 1072 l 482 782 l 285 782 l 383 1072 l 532 1072 m 518 154 q 703 103 639 154 q 768 -42 768 53 q 667 -234 768 -169 q 386 -299 565 -299 q 31 -124 31 -299 q 163 3 31 -21 q 61 143 61 40 q 90 228 61 192 q 171 282 119 264 q 60 472 60 343 q 148 647 60 585 q 396 708 236 708 q 542 692 478 708 q 601 828 551 774 q 735 882 650 882 q 757 881 749 882 l 776 722 q 743 726 758 726 q 626 657 650 726 q 731 472 731 596 q 643 299 731 360 q 396 238 556 238 q 265 250 324 238 q 219 201 219 236 q 297 154 219 154 l 518 154 m 396 574 q 321 547 349 574 q 293 472 293 521 q 321 399 293 425 q 396 372 349 372 q 470 399 442 372 q 499 472 499 425 q 470 547 499 519 q 396 574 442 574 m 388 -146 q 535 -126 485 -146 q 586 -75 586 -107 q 515 -31 586 -31 l 267 -31 q 224 -44 240 -31 q 208 -79 208 -58 q 256 -128 208 -111 q 388 -146 303 -146 z "},"Ĥ":{"ha":1031,"x_min":101,"x_max":929,"o":"m 771 1004 l 606 1004 l 515 1132 l 425 1004 l 261 1004 l 400 1231 l 631 1231 l 771 1004 m 340 917 l 340 554 l 690 554 l 690 917 l 929 917 l 929 0 l 690 0 l 690 369 l 340 369 l 340 0 l 101 0 l 101 917 l 340 917 z "},"ĥ":{"ha":861,"x_min":-53,"x_max":781,"o":"m 457 1065 l 293 1065 l 203 1193 l 113 1065 l -53 1065 l 88 1292 l 318 1292 l 457 1065 m 85 0 l 85 989 l 321 989 l 321 568 q 540 708 383 708 q 715 644 650 708 q 781 463 781 581 l 781 0 l 544 0 l 544 397 q 446 529 544 529 q 356 489 390 529 q 321 365 321 449 l 321 0 l 85 0 z "},"Ħ":{"ha":1031,"x_min":3,"x_max":1028,"o":"m 340 917 l 340 799 l 690 799 l 690 917 l 929 917 l 929 799 l 1028 799 l 1028 665 l 929 665 l 929 0 l 690 0 l 690 369 l 340 369 l 340 0 l 101 0 l 101 665 l 3 665 l 3 799 l 101 799 l 101 917 l 340 917 m 340 554 l 690 554 l 690 665 l 340 665 l 340 554 z "},"ħ":{"ha":861,"x_min":-22,"x_max":781,"o":"m 85 0 l 85 747 l -22 747 l -22 882 l 85 882 l 85 989 l 321 989 l 321 882 l 501 882 l 501 747 l 321 747 l 321 568 q 540 708 383 708 q 715 644 650 708 q 781 463 781 581 l 781 0 l 544 0 l 544 397 q 446 529 544 529 q 356 489 390 529 q 321 365 321 449 l 321 0 l 85 0 z "},"Ĩ":{"ha":442,"x_min":-56,"x_max":496,"o":"m 496 1219 q 444 1055 490 1111 q 324 999 397 999 q 242 1019 279 999 q 178 1058 206 1039 q 131 1078 151 1078 q 78 1000 89 1078 l -56 1000 q -2 1165 -50 1108 q 125 1221 46 1221 q 235 1181 182 1221 q 310 1142 289 1142 q 363 1219 351 1142 l 496 1219 m 340 917 l 340 0 l 101 0 l 101 917 l 340 917 z "},"ĩ":{"ha":404,"x_min":-74,"x_max":478,"o":"m 478 997 q 425 833 472 889 q 306 776 378 776 q 224 797 261 776 q 160 836 188 817 q 113 856 133 856 q 60 778 68 856 l -74 778 q -21 942 -69 886 q 107 999 28 999 q 185 978 150 999 q 245 939 219 958 q 292 919 271 919 q 344 997 333 919 l 478 997 m 321 694 l 321 0 l 85 0 l 85 694 l 321 694 z "},"Ī":{"ha":442,"x_min":24,"x_max":417,"o":"m 417 1158 l 417 1013 l 24 1013 l 24 1158 l 417 1158 m 340 917 l 340 0 l 101 0 l 101 917 l 340 917 z "},"ī":{"ha":404,"x_min":17,"x_max":389,"o":"m 389 936 l 389 790 l 17 790 l 17 936 l 389 936 m 321 694 l 321 0 l 85 0 l 85 694 l 321 694 z "},"Ĭ":{"ha":442,"x_min":-14,"x_max":456,"o":"m 456 1219 q 392 1054 456 1115 q 221 993 329 993 q 49 1053 113 993 q -14 1219 -14 1114 l 138 1219 q 221 1125 140 1125 q 282 1151 261 1125 q 303 1219 303 1176 l 456 1219 m 340 917 l 340 0 l 101 0 l 101 917 l 340 917 z "},"ĭ":{"ha":404,"x_min":-32,"x_max":438,"o":"m 438 997 q 374 832 438 893 q 203 771 311 771 q 31 831 94 771 q -32 997 -32 892 l 119 997 q 141 928 119 953 q 203 903 163 903 q 264 928 243 903 q 285 997 285 954 l 438 997 m 321 694 l 321 0 l 85 0 l 85 694 l 321 694 z "},"Į":{"ha":442,"x_min":21,"x_max":360,"o":"m 219 -315 q 77 -275 133 -315 q 21 -153 21 -235 q 103 0 21 -54 l 101 0 l 101 917 l 340 917 l 340 0 q 228 -59 263 -32 q 194 -122 194 -86 q 214 -167 194 -150 q 268 -183 233 -183 q 328 -171 306 -183 l 360 -285 q 219 -315 308 -315 z "},"į":{"ha":404,"x_min":0,"x_max":340,"o":"m 308 802 q 291 789 308 802 q 203 775 275 775 q 98 802 131 775 q 65 888 65 829 q 98 974 65 947 q 203 1001 131 1001 q 308 974 275 1001 q 340 888 340 947 q 308 802 340 829 m 200 -315 q 57 -275 114 -315 q 0 -153 0 -235 q 85 1 0 -54 l 85 694 l 321 694 l 321 0 q 209 -59 243 -32 q 175 -122 175 -86 q 194 -167 175 -150 q 247 -183 213 -183 q 308 -171 286 -183 l 339 -285 q 200 -315 289 -315 z "},"İ":{"ha":442,"x_min":94,"x_max":350,"o":"m 221 1225 q 350 1114 350 1225 q 221 1001 350 1001 q 94 1114 94 1001 q 221 1225 94 1225 m 340 917 l 340 0 l 101 0 l 101 917 l 340 917 z "},"ı":{"ha":404,"x_min":85,"x_max":321,"o":"m 321 694 l 321 0 l 85 0 l 85 694 l 321 694 z "},"Ĳ":{"ha":1300,"x_min":101,"x_max":1215,"o":"m 340 917 l 340 0 l 101 0 l 101 917 l 340 917 m 1215 917 l 1215 353 q 1115 83 1215 179 q 832 -14 1015 -14 q 549 89 636 -14 q 490 363 463 192 l 724 404 q 735 227 707 281 q 840 174 763 174 q 945 222 914 174 q 976 378 976 271 l 976 917 l 1215 917 z "},"ĳ":{"ha":808,"x_min":65,"x_max":744,"o":"m 308 802 q 291 789 308 802 q 203 775 275 775 q 98 802 131 775 q 65 888 65 829 q 98 974 65 947 q 203 1001 131 1001 q 308 974 275 1001 q 340 888 340 947 q 308 802 340 829 m 712 802 q 695 789 712 802 q 607 775 679 775 q 502 802 535 775 q 469 888 469 829 q 502 974 469 947 q 607 1001 535 1001 q 712 974 679 1001 q 744 888 744 947 q 712 802 744 829 m 321 694 l 321 0 l 85 0 l 85 694 l 321 694 m 725 694 l 725 -39 q 456 -299 725 -299 q 274 -254 346 -299 l 307 -101 q 396 -128 343 -128 q 489 -18 489 -128 l 489 694 l 725 694 z "},"Ĵ":{"ha":858,"x_min":21,"x_max":910,"o":"m 910 1004 l 744 1004 l 654 1132 l 564 1004 l 400 1004 l 539 1231 l 769 1231 l 910 1004 m 774 917 l 774 353 q 674 83 774 179 q 390 -14 574 -14 q 108 89 194 -14 q 49 363 21 192 l 282 404 q 293 227 265 281 q 399 174 321 174 q 503 222 472 174 q 535 378 535 271 l 535 917 l 774 917 z "},"ĵ":{"ha":404,"x_min":-131,"x_max":468,"o":"m 468 776 l 297 776 l 203 899 l 107 776 l -64 776 l 88 1017 l 317 1017 l 468 776 m 321 694 l 321 -39 q 51 -299 321 -299 q -131 -254 -58 -299 l -97 -101 q -8 -128 -61 -128 q 85 -18 85 -128 l 85 694 l 321 694 z "},"Ķ":{"ha":963,"x_min":101,"x_max":950,"o":"m 340 917 l 340 510 l 668 917 l 933 917 l 622 544 l 950 0 l 679 0 l 451 393 l 340 258 l 340 0 l 101 0 l 101 917 l 340 917 m 624 -83 l 525 -335 l 372 -335 l 417 -83 l 624 -83 z "},"ķ":{"ha":864,"x_min":85,"x_max":863,"o":"m 321 989 l 321 403 l 585 694 l 847 694 l 592 422 l 863 0 l 601 0 l 433 285 l 321 160 l 321 0 l 85 0 l 85 989 l 321 989 m 575 -83 l 476 -335 l 324 -335 l 368 -83 l 575 -83 z "},"ĸ":{"ha":864,"x_min":85,"x_max":863,"o":"m 321 694 l 321 403 l 586 694 l 847 694 l 592 422 l 863 0 l 601 0 l 433 285 l 321 160 l 321 0 l 85 0 l 85 694 l 321 694 z "},"Ĺ":{"ha":836,"x_min":101,"x_max":800,"o":"m 206 1231 l 415 1231 l 292 1004 l 121 1004 l 206 1231 m 340 185 l 800 185 l 800 0 l 101 0 l 101 917 l 340 917 l 340 185 z "},"ĺ":{"ha":454,"x_min":82,"x_max":453,"o":"m 85 1067 l 163 1278 l 372 1278 l 256 1067 l 85 1067 m 318 989 l 318 236 q 333 171 318 190 q 385 151 349 151 q 453 163 419 151 l 438 21 q 293 -14 382 -14 q 132 38 182 -14 q 82 206 82 90 l 82 989 l 318 989 z "},"Ļ":{"ha":836,"x_min":101,"x_max":800,"o":"m 340 185 l 800 185 l 800 0 l 101 0 l 101 917 l 340 917 l 340 185 m 586 -83 l 488 -335 l 333 -335 l 378 -83 l 586 -83 z "},"ļ":{"ha":454,"x_min":82,"x_max":453,"o":"m 318 989 l 318 236 q 333 171 318 190 q 385 151 349 151 q 453 163 419 151 l 438 21 q 293 -14 382 -14 q 132 38 182 -14 q 82 206 82 90 l 82 989 l 318 989 m 390 -83 l 292 -335 l 139 -335 l 183 -83 l 390 -83 z "},"Ľ":{"ha":836,"x_min":101,"x_max":800,"o":"m 739 917 l 656 585 l 504 585 l 538 917 l 739 917 m 340 185 l 800 185 l 800 0 l 101 0 l 101 917 l 340 917 l 340 185 z "},"ľ":{"ha":543,"x_min":82,"x_max":581,"o":"m 581 989 l 507 657 l 371 657 l 401 989 l 581 989 m 318 989 l 318 236 q 333 171 318 190 q 385 151 349 151 q 453 163 419 151 l 438 21 q 293 -14 382 -14 q 132 38 182 -14 q 82 206 82 90 l 82 989 l 318 989 z "},"Ŀ":{"ha":894,"x_min":101,"x_max":813,"o":"m 340 185 l 800 185 l 800 0 l 101 0 l 101 917 l 340 917 l 340 185 m 573 615 q 591 631 573 615 q 675 647 610 647 q 776 615 740 647 q 813 522 813 582 q 776 431 813 464 q 675 397 739 397 q 573 431 610 397 q 536 522 536 464 q 573 615 536 582 z "},"ŀ":{"ha":690,"x_min":82,"x_max":686,"o":"m 318 989 l 318 236 q 333 171 318 190 q 385 151 349 151 q 453 163 419 151 l 438 21 q 293 -14 382 -14 q 132 38 182 -14 q 82 206 82 90 l 82 989 l 318 989 m 445 589 q 464 606 445 589 q 547 622 482 622 q 649 589 613 622 q 686 497 686 556 q 649 404 686 438 q 547 371 613 371 q 445 404 482 371 q 408 497 408 438 q 445 589 408 556 z "},"Ł":{"ha":928,"x_min":40,"x_max":892,"o":"m 432 185 l 892 185 l 892 0 l 193 0 l 193 304 l 40 231 l 40 404 l 193 478 l 193 917 l 432 917 l 432 592 l 668 704 l 668 531 l 432 418 l 432 185 z "},"ł":{"ha":565,"x_min":31,"x_max":531,"o":"m 531 707 l 531 542 l 386 453 l 386 236 q 401 171 386 190 q 453 151 417 151 q 521 163 488 151 l 506 21 q 361 -14 450 -14 q 200 38 250 -14 q 150 206 150 90 l 150 326 l 31 256 l 31 421 l 150 490 l 150 989 l 386 989 l 386 614 l 531 707 z "},"Ń":{"ha":1029,"x_min":101,"x_max":928,"o":"m 503 1231 l 713 1231 l 589 1004 l 417 1004 l 503 1231 m 928 917 l 928 0 l 663 0 l 378 496 l 308 632 l 307 632 l 313 463 l 313 0 l 101 0 l 101 917 l 367 917 l 651 421 l 721 285 l 722 285 l 717 454 l 717 917 l 928 917 z "},"ń":{"ha":861,"x_min":85,"x_max":781,"o":"m 419 1025 l 639 1025 l 499 785 l 328 785 l 419 1025 m 85 0 l 85 694 l 296 694 l 303 554 q 540 708 367 708 q 715 644 650 708 q 781 463 781 581 l 781 0 l 544 0 l 544 400 q 446 528 544 528 q 356 489 390 528 q 321 368 321 450 l 321 0 l 85 0 z "},"Ņ":{"ha":1029,"x_min":101,"x_max":928,"o":"m 928 917 l 928 0 l 663 0 l 378 496 l 308 632 l 307 632 l 313 463 l 313 0 l 101 0 l 101 917 l 367 917 l 651 421 l 721 285 l 722 285 l 717 454 l 717 917 l 928 917 m 651 -83 l 553 -335 l 400 -335 l 444 -83 l 651 -83 z "},"ņ":{"ha":861,"x_min":85,"x_max":781,"o":"m 85 0 l 85 694 l 296 694 l 303 554 q 540 708 367 708 q 715 644 650 708 q 781 463 781 581 l 781 0 l 544 0 l 544 400 q 446 528 544 528 q 356 489 390 528 q 321 368 321 450 l 321 0 l 85 0 m 563 -83 l 464 -335 l 310 -335 l 354 -83 l 563 -83 z "},"Ň":{"ha":1029,"x_min":101,"x_max":928,"o":"m 772 1231 l 632 1004 l 401 1004 l 263 1231 l 426 1231 l 517 1103 l 607 1231 l 772 1231 m 928 917 l 928 0 l 663 0 l 378 496 l 308 632 l 307 632 l 313 463 l 313 0 l 101 0 l 101 917 l 367 917 l 651 421 l 721 285 l 722 285 l 717 454 l 717 917 l 928 917 z "},"ň":{"ha":861,"x_min":85,"x_max":781,"o":"m 694 1025 l 543 785 l 315 785 l 164 1025 l 333 1025 l 429 901 l 525 1025 l 694 1025 m 85 0 l 85 694 l 296 694 l 303 554 q 540 708 367 708 q 715 644 650 708 q 781 463 781 581 l 781 0 l 544 0 l 544 400 q 446 528 544 528 q 356 489 390 528 q 321 368 321 450 l 321 0 l 85 0 z "},"Ŋ":{"ha":1029,"x_min":101,"x_max":928,"o":"m 678 -299 q 507 -261 574 -299 l 536 -96 q 632 -125 575 -125 q 717 -18 717 -125 l 717 7 l 381 506 l 308 635 l 307 635 l 313 463 l 313 0 l 101 0 l 101 917 l 367 917 l 651 479 l 717 358 l 718 358 l 717 917 l 928 917 l 928 -39 q 678 -299 928 -299 z "},"ŋ":{"ha":861,"x_min":85,"x_max":781,"o":"m 85 0 l 85 694 l 296 694 l 303 554 q 540 708 367 708 q 715 644 650 708 q 781 463 781 581 l 781 -22 q 518 -299 781 -299 q 329 -254 401 -299 l 363 -101 q 451 -128 399 -128 q 544 -18 544 -128 l 544 400 q 446 528 544 528 q 356 489 390 528 q 321 368 321 450 l 321 0 l 85 0 z "},"Ō":{"ha":1024,"x_min":63,"x_max":961,"o":"m 765 1158 l 765 1013 l 260 1013 l 260 1158 l 765 1158 m 183 805 q 243 868 183 805 q 513 931 303 931 q 842 805 722 931 q 961 458 961 679 q 842 112 961 238 q 513 -14 722 -14 q 183 112 303 -14 q 63 458 63 238 q 183 805 63 679 m 665 671 q 639 707 665 671 q 513 743 613 743 q 360 671 413 743 q 307 458 307 599 q 360 246 307 318 q 513 174 413 174 q 665 246 613 174 q 717 458 717 318 q 665 671 717 599 z "},"ō":{"ha":832,"x_min":49,"x_max":783,"o":"m 668 936 l 668 790 l 163 790 l 163 936 l 668 936 m 415 708 q 683 612 582 708 q 783 347 783 515 q 683 83 783 179 q 415 -14 582 -14 q 149 83 250 -14 q 49 347 49 179 q 149 612 49 515 q 415 708 250 708 m 415 540 q 286 347 286 540 q 415 154 286 154 q 546 347 546 154 q 415 540 546 540 z "},"Ŏ":{"ha":1024,"x_min":63,"x_max":961,"o":"m 747 1219 q 684 1054 747 1115 q 513 993 621 993 q 341 1053 404 993 q 278 1219 278 1114 l 429 1219 q 451 1150 429 1175 q 513 1125 472 1125 q 574 1151 553 1125 q 594 1219 594 1176 l 747 1219 m 183 805 q 243 868 183 805 q 513 931 303 931 q 842 805 722 931 q 961 458 961 679 q 842 112 961 238 q 513 -14 722 -14 q 183 112 303 -14 q 63 458 63 238 q 183 805 63 679 m 665 671 q 639 707 665 671 q 513 743 613 743 q 360 671 413 743 q 307 458 307 599 q 360 246 307 318 q 513 174 413 174 q 665 246 613 174 q 717 458 717 318 q 665 671 717 599 z "},"ŏ":{"ha":832,"x_min":49,"x_max":783,"o":"m 650 997 q 587 831 650 892 q 415 771 524 771 q 244 832 307 771 q 181 997 181 893 l 333 997 q 354 928 333 954 q 415 903 375 903 q 477 928 456 903 q 499 997 499 953 l 650 997 m 415 708 q 683 612 582 708 q 783 347 783 515 q 683 83 783 179 q 415 -14 582 -14 q 149 83 250 -14 q 49 347 49 179 q 149 612 49 515 q 415 708 250 708 m 415 540 q 286 347 286 540 q 415 154 286 154 q 546 347 546 154 q 415 540 546 540 z "},"Ő":{"ha":1024,"x_min":63,"x_max":961,"o":"m 660 1231 l 869 1231 l 746 1004 l 575 1004 l 660 1231 m 349 1231 l 558 1231 l 435 1004 l 264 1004 l 349 1231 m 183 805 q 243 868 183 805 q 513 931 303 931 q 842 805 722 931 q 961 458 961 679 q 842 112 961 238 q 513 -14 722 -14 q 183 112 303 -14 q 63 458 63 238 q 183 805 63 679 m 665 671 q 639 707 665 671 q 513 743 613 743 q 360 671 413 743 q 307 458 307 599 q 360 246 307 318 q 513 174 413 174 q 665 246 613 174 q 717 458 717 318 q 665 671 717 599 z "},"ő":{"ha":832,"x_min":49,"x_max":783,"o":"m 463 785 l 560 1025 l 758 1025 l 626 785 l 463 785 m 168 785 l 265 1025 l 464 1025 l 332 785 l 168 785 m 415 708 q 683 612 582 708 q 783 347 783 515 q 683 83 783 179 q 415 -14 582 -14 q 149 83 250 -14 q 49 347 49 179 q 149 612 49 515 q 415 708 250 708 m 415 540 q 286 347 286 540 q 415 154 286 154 q 546 347 546 154 q 415 540 546 540 z "},"Œ":{"ha":1456,"x_min":63,"x_max":1414,"o":"m 938 185 l 1414 185 l 1414 0 l 778 0 l 778 110 q 492 -14 669 -14 q 178 112 293 -14 q 63 458 63 238 q 178 805 63 679 q 494 931 293 931 q 778 808 671 931 l 778 917 l 1396 917 l 1396 732 l 938 732 l 938 546 l 1297 546 l 1297 372 l 938 372 l 938 185 m 504 174 q 651 247 600 174 q 703 458 703 319 q 651 670 703 597 q 504 743 600 743 q 303 458 303 743 q 504 174 303 174 z "},"œ":{"ha":1310,"x_min":49,"x_max":1263,"o":"m 404 -14 q 149 83 250 -14 q 49 347 49 181 q 149 611 49 514 q 404 708 250 708 q 668 590 579 708 q 926 708 754 708 q 1172 617 1081 708 q 1263 379 1263 525 q 1256 297 1263 329 l 782 297 q 929 153 797 153 q 1060 232 1026 153 l 1249 169 q 1132 34 1219 82 q 931 -14 1044 -14 q 668 103 756 -14 q 404 -14 579 -14 m 918 543 q 783 408 803 543 l 1039 408 q 918 543 1031 543 m 415 154 q 546 347 546 154 q 415 540 546 540 q 286 347 286 540 q 415 154 286 154 z "},"Ŕ":{"ha":957,"x_min":101,"x_max":939,"o":"m 443 1231 l 653 1231 l 529 1004 l 357 1004 l 443 1231 m 539 917 q 793 841 701 917 q 885 635 885 765 q 700 369 885 432 l 939 0 l 675 0 l 479 335 l 336 335 l 336 0 l 101 0 l 101 917 l 539 917 m 506 504 q 644 621 644 504 q 506 736 644 736 l 336 736 l 336 504 l 506 504 z "},"ŕ":{"ha":597,"x_min":85,"x_max":589,"o":"m 322 1025 l 542 1025 l 401 785 l 231 785 l 322 1025 m 85 0 l 85 694 l 293 694 l 303 544 q 514 708 358 708 q 589 693 561 708 l 565 499 q 478 511 531 511 q 365 469 410 511 q 321 350 321 428 l 321 0 l 85 0 z "},"Ŗ":{"ha":957,"x_min":101,"x_max":939,"o":"m 539 917 q 793 841 701 917 q 885 635 885 765 q 700 369 885 432 l 939 0 l 675 0 l 479 335 l 336 335 l 336 0 l 101 0 l 101 917 l 539 917 m 506 504 q 644 621 644 504 q 506 736 644 736 l 336 736 l 336 504 l 506 504 m 624 -83 l 525 -335 l 372 -335 l 417 -83 l 624 -83 z "},"ŗ":{"ha":597,"x_min":69,"x_max":589,"o":"m 85 0 l 85 694 l 293 694 l 303 544 q 514 708 358 708 q 589 693 561 708 l 565 499 q 478 511 531 511 q 365 469 410 511 q 321 350 321 428 l 321 0 l 85 0 m 322 -83 l 224 -335 l 69 -335 l 114 -83 l 322 -83 z "},"Ř":{"ha":957,"x_min":101,"x_max":939,"o":"m 713 1231 l 572 1004 l 342 1004 l 203 1231 l 367 1231 l 457 1103 l 547 1231 l 713 1231 m 539 917 q 793 841 701 917 q 885 635 885 765 q 700 369 885 432 l 939 0 l 675 0 l 479 335 l 336 335 l 336 0 l 101 0 l 101 917 l 539 917 m 506 504 q 644 621 644 504 q 506 736 644 736 l 336 736 l 336 504 l 506 504 z "},"ř":{"ha":597,"x_min":67,"x_max":597,"o":"m 597 1025 l 446 785 l 218 785 l 67 1025 l 236 1025 l 332 901 l 428 1025 l 597 1025 m 85 0 l 85 694 l 293 694 l 303 544 q 514 708 358 708 q 589 693 561 708 l 565 499 q 478 511 531 511 q 365 469 410 511 q 321 350 321 428 l 321 0 l 85 0 z "},"Ś":{"ha":896,"x_min":22,"x_max":856,"o":"m 442 1231 l 653 1231 l 529 1004 l 357 1004 l 442 1231 m 460 931 q 856 775 711 931 l 740 621 q 456 746 619 746 q 313 660 313 746 q 428 576 313 603 l 582 542 q 783 449 719 511 q 847 286 847 388 q 740 65 847 143 q 460 -14 633 -14 q 208 31 324 -14 q 22 150 92 75 l 138 310 q 278 210 190 249 q 457 171 365 171 q 601 256 601 171 q 579 306 601 286 q 501 339 557 326 l 332 376 q 64 632 64 433 q 170 847 64 764 q 460 931 276 931 z "},"ś":{"ha":742,"x_min":35,"x_max":703,"o":"m 365 1025 l 585 1025 l 444 785 l 274 785 l 365 1025 m 376 -14 q 35 118 156 -14 l 146 249 q 367 144 226 144 q 465 196 465 144 q 451 227 465 215 q 396 247 436 239 l 299 267 q 114 344 169 293 q 58 482 58 396 q 143 642 58 575 q 385 708 228 708 q 699 589 599 708 l 586 461 q 500 526 553 501 q 394 550 447 550 q 293 499 293 550 q 375 444 293 461 l 501 419 q 703 225 703 382 q 618 53 703 119 q 376 -14 533 -14 z "},"Ŝ":{"ha":896,"x_min":22,"x_max":856,"o":"m 711 1004 l 547 1004 l 457 1132 l 367 1004 l 203 1004 l 342 1231 l 572 1231 l 711 1004 m 460 931 q 856 775 711 931 l 740 621 q 456 746 619 746 q 313 660 313 746 q 428 576 313 603 l 582 542 q 783 449 719 511 q 847 286 847 388 q 740 65 847 143 q 460 -14 633 -14 q 208 31 324 -14 q 22 150 92 75 l 138 310 q 278 210 190 249 q 457 171 365 171 q 601 256 601 171 q 579 306 601 286 q 501 339 557 326 l 332 376 q 64 632 64 433 q 170 847 64 764 q 460 931 276 931 z "},"ŝ":{"ha":742,"x_min":35,"x_max":703,"o":"m 646 776 l 475 776 l 381 899 l 285 776 l 114 776 l 265 1017 l 494 1017 l 646 776 m 376 -14 q 35 118 156 -14 l 146 249 q 367 144 226 144 q 465 196 465 144 q 451 227 465 215 q 396 247 436 239 l 299 267 q 114 344 169 293 q 58 482 58 396 q 143 642 58 575 q 385 708 228 708 q 699 589 599 708 l 586 461 q 500 526 553 501 q 394 550 447 550 q 293 499 293 550 q 375 444 293 461 l 501 419 q 703 225 703 382 q 618 53 703 119 q 376 -14 533 -14 z "},"Ş":{"ha":896,"x_min":22,"x_max":856,"o":"m 460 931 q 856 775 711 931 l 740 621 q 456 746 619 746 q 313 660 313 746 q 428 576 313 603 l 582 542 q 783 449 719 511 q 847 286 847 388 q 771 91 847 165 q 563 -6 694 17 q 617 -125 617 -51 q 564 -251 617 -204 q 421 -299 511 -299 q 279 -258 339 -299 l 317 -146 q 401 -171 357 -171 q 459 -150 438 -171 q 481 -92 481 -129 q 417 -12 481 -44 q 190 38 293 -6 q 22 150 86 81 l 138 310 q 278 210 190 249 q 457 171 365 171 q 601 256 601 171 q 579 306 601 286 q 501 339 557 326 l 332 376 q 64 632 64 433 q 170 847 64 764 q 460 931 276 931 z "},"ş":{"ha":742,"x_min":35,"x_max":703,"o":"m 542 -125 q 489 -251 542 -204 q 346 -299 436 -299 q 204 -258 263 -299 l 242 -146 q 325 -171 282 -171 q 383 -150 361 -171 q 406 -92 406 -129 q 342 -12 406 -44 q 35 118 144 -1 l 146 249 q 367 144 226 144 q 465 196 465 144 q 451 227 465 215 q 396 247 436 239 l 299 267 q 114 344 169 293 q 58 482 58 396 q 143 642 58 575 q 385 708 228 708 q 699 589 599 708 l 586 461 q 500 526 553 501 q 394 550 447 550 q 293 499 293 550 q 375 444 293 461 l 501 419 q 703 225 703 382 q 647 78 703 140 q 485 -4 592 17 q 542 -125 542 -49 z "},"Š":{"ha":896,"x_min":22,"x_max":856,"o":"m 711 1231 l 572 1004 l 342 1004 l 203 1231 l 367 1231 l 457 1103 l 547 1231 l 711 1231 m 460 931 q 856 775 711 931 l 740 621 q 456 746 619 746 q 313 660 313 746 q 428 576 313 603 l 582 542 q 783 449 719 511 q 847 286 847 388 q 740 65 847 143 q 460 -14 633 -14 q 208 31 324 -14 q 22 150 92 75 l 138 310 q 278 210 190 249 q 457 171 365 171 q 601 256 601 171 q 579 306 601 286 q 501 339 557 326 l 332 376 q 64 632 64 433 q 170 847 64 764 q 460 931 276 931 z "},"š":{"ha":742,"x_min":35,"x_max":703,"o":"m 640 1025 l 489 785 l 261 785 l 110 1025 l 279 1025 l 375 901 l 471 1025 l 640 1025 m 376 -14 q 35 118 156 -14 l 146 249 q 367 144 226 144 q 465 196 465 144 q 451 227 465 215 q 396 247 436 239 l 299 267 q 114 344 169 293 q 58 482 58 396 q 143 642 58 575 q 385 708 228 708 q 699 589 599 708 l 586 461 q 500 526 553 501 q 394 550 447 550 q 293 499 293 550 q 375 444 293 461 l 501 419 q 703 225 703 382 q 618 53 703 119 q 376 -14 533 -14 z "},"Ţ":{"ha":907,"x_min":35,"x_max":872,"o":"m 872 917 l 872 732 l 574 732 l 574 0 l 556 0 q 618 -125 618 -44 q 565 -251 618 -204 q 424 -299 513 -299 q 281 -258 342 -299 l 319 -146 q 403 -171 357 -171 q 461 -150 439 -171 q 483 -92 483 -129 q 390 0 483 -36 l 335 0 l 335 732 l 35 732 l 35 917 l 872 917 z "},"ţ":{"ha":607,"x_min":19,"x_max":593,"o":"m 582 694 l 582 526 l 375 526 l 375 247 q 467 154 375 154 q 568 185 525 154 l 593 39 q 467 -8 544 6 q 518 -125 518 -51 q 465 -251 518 -204 q 322 -299 413 -299 q 181 -258 242 -299 l 218 -146 q 303 -171 258 -171 q 360 -150 339 -171 q 382 -92 382 -129 q 297 -4 382 -39 q 139 208 140 33 l 139 526 l 19 526 l 19 694 l 139 694 l 139 850 l 375 915 l 375 694 l 582 694 z "},"Ť":{"ha":907,"x_min":35,"x_max":872,"o":"m 708 1231 l 569 1004 l 339 1004 l 199 1231 l 364 1231 l 454 1103 l 544 1231 l 708 1231 m 872 917 l 872 732 l 574 732 l 574 0 l 335 0 l 335 732 l 35 732 l 35 917 l 872 917 z "},"ť":{"ha":607,"x_min":19,"x_max":650,"o":"m 650 1064 l 576 761 l 440 761 l 469 1064 l 650 1064 m 582 694 l 582 526 l 375 526 l 375 247 q 467 154 375 154 q 568 185 525 154 l 593 39 q 397 -14 517 -14 q 139 208 140 -14 l 139 526 l 19 526 l 19 694 l 139 694 l 139 850 l 375 915 l 375 694 l 582 694 z "},"Ŧ":{"ha":907,"x_min":35,"x_max":872,"o":"m 781 511 l 781 326 l 574 326 l 574 0 l 335 0 l 335 326 l 128 326 l 128 511 l 335 511 l 335 732 l 35 732 l 35 917 l 872 917 l 872 732 l 574 732 l 574 511 l 781 511 z "},"ŧ":{"ha":608,"x_min":19,"x_max":594,"o":"m 583 447 l 583 313 l 378 313 l 378 247 q 469 154 378 154 q 571 185 528 154 l 594 39 q 400 -14 518 -14 q 142 208 142 -14 l 142 313 l 19 313 l 19 447 l 142 447 l 142 526 l 21 526 l 21 694 l 142 694 l 142 850 l 378 915 l 378 694 l 583 694 l 583 526 l 378 526 l 378 447 l 583 447 z "},"Ũ":{"ha":986,"x_min":83,"x_max":903,"o":"m 768 1206 q 717 1042 764 1099 q 597 985 669 985 q 516 1005 553 985 q 452 1044 479 1025 q 404 1064 425 1064 q 350 986 361 1064 l 217 986 q 270 1151 222 1094 q 399 1207 318 1207 q 476 1187 442 1207 q 536 1147 511 1167 q 582 1128 561 1128 q 635 1206 626 1128 l 768 1206 m 903 917 l 903 374 q 493 -14 903 -14 q 83 374 83 -14 l 83 917 l 324 917 l 324 369 q 493 174 324 174 q 664 369 664 174 l 664 917 l 903 917 z "},"ũ":{"ha":860,"x_min":81,"x_max":775,"o":"m 699 992 q 647 827 693 883 q 526 771 600 771 q 445 791 482 771 q 381 831 408 811 q 333 850 354 850 q 281 772 292 850 l 147 772 q 201 937 153 881 q 328 993 249 993 q 438 953 385 993 q 513 914 492 914 q 565 992 554 914 l 699 992 m 319 -14 q 144 45 207 -14 q 81 231 81 104 l 81 694 l 317 694 l 317 286 q 342 194 317 222 q 418 167 367 167 q 505 206 471 167 q 539 322 539 244 l 539 694 l 775 694 l 775 0 l 564 0 l 557 131 q 319 -14 493 -14 z "},"Ū":{"ha":986,"x_min":83,"x_max":903,"o":"m 746 1144 l 746 999 l 240 999 l 240 1144 l 746 1144 m 903 917 l 903 374 q 493 -14 903 -14 q 83 374 83 -14 l 83 917 l 324 917 l 324 369 q 493 174 324 174 q 664 369 664 174 l 664 917 l 903 917 z "},"ū":{"ha":860,"x_min":81,"x_max":775,"o":"m 676 931 l 676 785 l 171 785 l 171 931 l 676 931 m 319 -14 q 144 45 207 -14 q 81 231 81 104 l 81 694 l 317 694 l 317 286 q 342 194 317 222 q 418 167 367 167 q 505 206 471 167 q 539 322 539 244 l 539 694 l 775 694 l 775 0 l 564 0 l 557 131 q 319 -14 493 -14 z "},"Ŭ":{"ha":986,"x_min":83,"x_max":903,"o":"m 728 1206 q 665 1040 728 1100 q 493 979 601 979 q 322 1040 385 979 q 258 1206 258 1101 l 411 1206 q 432 1137 411 1163 q 493 1111 453 1111 q 576 1206 574 1111 l 728 1206 m 903 917 l 903 374 q 493 -14 903 -14 q 83 374 83 -14 l 83 917 l 324 917 l 324 369 q 493 174 324 174 q 664 369 664 174 l 664 917 l 903 917 z "},"ŭ":{"ha":860,"x_min":81,"x_max":775,"o":"m 658 992 q 595 826 658 888 q 424 765 532 765 q 252 826 315 765 q 189 992 189 886 l 340 992 q 424 897 343 897 q 485 923 464 897 q 506 992 506 949 l 658 992 m 319 -14 q 144 45 207 -14 q 81 231 81 104 l 81 694 l 317 694 l 317 286 q 342 194 317 222 q 418 167 367 167 q 505 206 471 167 q 539 322 539 244 l 539 694 l 775 694 l 775 0 l 564 0 l 557 131 q 319 -14 493 -14 z "},"Ů":{"ha":986,"x_min":83,"x_max":903,"o":"m 350 1254 q 376 1278 350 1254 q 492 1301 403 1301 q 633 1254 581 1301 q 685 1128 685 1207 q 633 1000 685 1047 q 492 953 581 953 q 350 1000 403 953 q 297 1128 297 1047 q 350 1254 297 1207 m 546 1180 q 535 1190 546 1180 q 492 1200 525 1200 q 438 1180 458 1200 q 417 1128 417 1160 q 438 1075 417 1096 q 492 1054 458 1054 q 546 1075 525 1054 q 567 1128 567 1096 q 546 1180 567 1160 m 903 917 l 903 374 q 493 -14 903 -14 q 83 374 83 -14 l 83 917 l 324 917 l 324 369 q 493 174 324 174 q 664 369 664 174 l 664 917 l 903 917 z "},"ů":{"ha":860,"x_min":81,"x_max":775,"o":"m 422 1108 q 563 1061 510 1108 q 615 935 615 1014 q 563 807 615 854 q 422 760 510 760 q 281 807 333 760 q 228 935 228 854 q 281 1061 228 1014 q 422 1108 333 1108 m 476 987 q 466 997 476 987 q 422 1007 456 1007 q 368 987 389 1007 q 347 935 347 967 q 368 882 347 903 q 422 861 389 861 q 476 882 456 861 q 496 935 496 903 q 476 987 496 967 m 319 -14 q 144 45 207 -14 q 81 231 81 104 l 81 694 l 317 694 l 317 286 q 342 194 317 222 q 418 167 367 167 q 505 206 471 167 q 539 322 539 244 l 539 694 l 775 694 l 775 0 l 564 0 l 557 131 q 319 -14 493 -14 z "},"Ű":{"ha":986,"x_min":83,"x_max":903,"o":"m 640 1217 l 851 1217 l 728 990 l 556 990 l 640 1217 m 331 1217 l 540 1217 l 417 990 l 244 990 l 331 1217 m 903 917 l 903 374 q 493 -14 903 -14 q 83 374 83 -14 l 83 917 l 324 917 l 324 369 q 493 174 324 174 q 664 369 664 174 l 664 917 l 903 917 z "},"ű":{"ha":860,"x_min":81,"x_max":775,"o":"m 471 779 l 567 1019 l 765 1019 l 633 779 l 471 779 m 176 779 l 272 1019 l 471 1019 l 339 779 l 176 779 m 319 -14 q 144 45 207 -14 q 81 231 81 104 l 81 694 l 317 694 l 317 286 q 342 194 317 222 q 418 167 367 167 q 505 206 471 167 q 539 322 539 244 l 539 694 l 775 694 l 775 0 l 564 0 l 557 131 q 319 -14 493 -14 z "},"Ų":{"ha":986,"x_min":83,"x_max":903,"o":"m 554 -303 q 417 -262 467 -303 q 367 -149 367 -221 q 438 -12 367 -64 q 83 374 83 15 l 83 917 l 324 917 l 324 369 q 493 174 324 174 q 664 369 664 174 l 664 917 l 903 917 l 903 374 q 657 6 903 75 q 551 -46 582 -19 q 521 -108 521 -72 q 541 -153 521 -137 q 597 -169 561 -169 q 661 -157 638 -169 l 685 -276 q 554 -303 632 -303 z "},"ų":{"ha":860,"x_min":81,"x_max":794,"o":"m 319 -14 q 144 45 207 -14 q 81 231 81 104 l 81 694 l 317 694 l 317 286 q 342 194 317 222 q 418 167 367 167 q 505 206 471 167 q 539 322 539 244 l 539 694 l 775 694 l 775 0 q 665 -59 699 -32 q 631 -122 631 -86 q 703 -183 631 -183 q 763 -171 742 -183 l 794 -285 q 654 -315 744 -315 q 512 -275 568 -315 q 456 -153 456 -235 q 563 15 456 -43 l 557 131 q 319 -14 493 -14 z "},"Ŵ":{"ha":1385,"x_min":14,"x_max":1371,"o":"m 947 1004 l 782 1004 l 692 1132 l 601 1004 l 438 1004 l 576 1231 l 807 1231 l 947 1004 m 278 0 l 14 917 l 268 917 l 424 193 l 588 917 l 804 917 l 972 194 l 1125 917 l 1371 917 l 1106 0 l 846 0 l 738 444 l 696 668 l 693 668 l 653 444 l 546 0 l 278 0 z "},"ŵ":{"ha":1250,"x_min":7,"x_max":1242,"o":"m 890 776 l 719 776 l 625 899 l 529 776 l 358 776 l 511 1017 l 739 1017 l 890 776 m 994 694 l 1242 694 l 1032 0 l 749 0 l 622 426 l 500 0 l 218 0 l 7 694 l 256 694 l 372 182 l 508 694 l 742 694 l 876 182 l 994 694 z "},"Ŷ":{"ha":913,"x_min":13,"x_max":899,"o":"m 710 993 l 546 993 l 456 1121 l 365 993 l 201 993 l 340 1219 l 571 1219 l 710 993 m 899 917 l 575 335 l 575 0 l 336 0 l 336 335 l 13 917 l 260 917 l 389 665 l 457 513 l 526 665 l 656 917 l 899 917 z "},"ŷ":{"ha":782,"x_min":-4,"x_max":783,"o":"m 679 771 l 508 771 l 413 893 l 318 771 l 147 771 l 299 1011 l 528 1011 l 679 771 m 783 694 l 531 0 q 397 -232 474 -165 q 188 -299 319 -299 q -4 -251 72 -299 l 43 -92 q 167 -125 88 -125 q 235 -110 210 -125 q 274 -58 260 -96 l 292 -15 l 211 174 l 3 694 l 263 694 l 369 299 l 403 151 l 442 304 l 549 694 l 783 694 z "},"Ÿ":{"ha":913,"x_min":13,"x_max":899,"o":"m 301 1197 q 389 1169 357 1197 q 421 1090 421 1140 q 389 1012 421 1040 q 301 983 357 983 q 216 1012 247 983 q 185 1090 185 1040 q 216 1169 185 1140 q 301 1197 247 1197 m 521 1169 q 536 1183 521 1169 q 607 1197 551 1197 q 694 1169 663 1197 q 726 1090 726 1140 q 694 1012 726 1040 q 607 983 663 983 q 521 1012 551 983 q 490 1090 490 1040 q 521 1169 490 1140 m 899 917 l 575 335 l 575 0 l 336 0 l 336 335 l 13 917 l 260 917 l 389 665 l 457 513 l 526 665 l 656 917 l 899 917 z "},"Ź":{"ha":881,"x_min":51,"x_max":838,"o":"m 429 1231 l 639 1231 l 515 1004 l 344 1004 l 429 1231 m 838 181 l 838 0 l 51 0 l 51 172 l 564 736 l 61 736 l 61 917 l 821 917 l 821 744 l 311 181 l 838 181 z "},"ź":{"ha":717,"x_min":49,"x_max":672,"o":"m 335 1025 l 554 1025 l 414 785 l 243 785 l 335 1025 m 49 0 l 49 144 l 325 458 l 399 532 l 289 529 l 51 529 l 51 694 l 660 694 l 660 550 l 388 239 l 311 163 l 433 165 l 672 165 l 672 0 l 49 0 z "},"Ż":{"ha":881,"x_min":51,"x_max":838,"o":"m 444 1225 q 574 1114 574 1225 q 444 1001 574 1001 q 318 1114 318 1001 q 444 1225 318 1225 m 838 181 l 838 0 l 51 0 l 51 172 l 564 736 l 61 736 l 61 917 l 821 917 l 821 744 l 311 181 l 838 181 z "},"ż":{"ha":717,"x_min":49,"x_max":672,"o":"m 349 1003 q 478 892 478 1003 q 349 779 478 779 q 222 892 222 779 q 349 1003 222 1003 m 49 0 l 49 144 l 325 458 l 399 532 l 289 529 l 51 529 l 51 694 l 660 694 l 660 550 l 388 239 l 311 163 l 433 165 l 672 165 l 672 0 l 49 0 z "},"Ž":{"ha":881,"x_min":51,"x_max":838,"o":"m 699 1231 l 560 1004 l 329 1004 l 189 1231 l 354 1231 l 444 1103 l 535 1231 l 699 1231 m 838 181 l 838 0 l 51 0 l 51 172 l 564 736 l 61 736 l 61 917 l 821 917 l 821 744 l 311 181 l 838 181 z "},"ž":{"ha":717,"x_min":49,"x_max":672,"o":"m 610 1025 l 458 785 l 231 785 l 78 1025 l 249 1025 l 344 901 l 439 1025 l 610 1025 m 49 0 l 49 144 l 325 458 l 399 532 l 289 529 l 51 529 l 51 694 l 660 694 l 660 550 l 388 239 l 311 163 l 433 165 l 672 165 l 672 0 l 49 0 z "},"ſ":{"ha":451,"x_min":82,"x_max":482,"o":"m 82 0 l 82 758 q 155 946 82 883 q 347 1008 228 1008 q 482 974 439 1008 l 468 826 q 408 843 444 843 q 311 740 311 843 l 311 0 l 82 0 z "},"Ǝ":{"ha":876,"x_min":42,"x_max":775,"o":"m 775 0 l 42 0 l 42 185 l 536 185 l 536 372 l 158 372 l 158 546 l 536 546 l 536 732 l 61 732 l 61 917 l 775 917 l 775 0 z "},"Ə":{"ha":983,"x_min":53,"x_max":921,"o":"m 472 -14 q 165 106 276 -14 q 53 418 53 225 q 57 499 53 457 l 679 499 q 622 681 674 618 q 475 743 569 743 q 286 597 328 743 l 63 646 q 213 858 103 786 q 476 931 324 931 q 803 806 685 931 q 921 458 921 681 q 801 112 921 238 q 472 -14 681 -14 m 481 174 q 671 358 640 174 l 292 358 q 350 221 299 268 q 481 174 401 174 z "},"ƒ":{"ha":717,"x_min":-36,"x_max":724,"o":"m 663 579 l 663 415 l 447 415 l 388 65 q 297 -115 367 -53 q 114 -178 226 -178 q -36 -140 22 -178 l -6 8 q 72 -14 25 -14 q 148 13 118 -14 q 186 92 178 40 l 242 415 l 53 415 l 53 579 l 269 579 l 301 767 q 391 947 321 885 q 574 1010 461 1010 q 724 972 665 1010 l 693 824 q 617 846 661 846 q 501 739 521 846 l 475 579 l 663 579 z "},"Ơ":{"ha":1024,"x_min":63,"x_max":961,"o":"m 513 931 q 639 917 583 931 q 742 953 711 918 q 774 1064 774 989 l 938 1064 q 822 825 938 892 q 961 458 961 697 q 842 112 961 238 q 513 -14 722 -14 q 183 112 303 -14 q 63 458 63 238 q 183 805 63 679 q 513 931 303 931 m 665 671 q 639 707 665 671 q 513 743 613 743 q 360 671 413 743 q 307 458 307 599 q 360 246 307 318 q 513 174 413 174 q 665 246 613 174 q 717 458 717 318 q 665 671 717 599 z "},"ơ":{"ha":832,"x_min":49,"x_max":783,"o":"m 415 708 q 531 694 481 708 q 624 847 624 694 l 783 847 q 683 610 783 675 q 783 347 783 514 q 683 83 783 179 q 415 -14 582 -14 q 149 83 250 -14 q 49 347 49 179 q 149 612 49 515 q 415 708 250 708 m 415 540 q 286 347 286 540 q 415 154 286 154 q 546 347 546 154 q 415 540 546 540 z "},"Ư":{"ha":986,"x_min":83,"x_max":1061,"o":"m 1061 1064 q 903 803 1061 858 l 903 374 q 493 -14 903 -14 q 83 374 83 -14 l 83 917 l 324 917 l 324 369 q 493 174 324 174 q 664 369 664 174 l 664 917 l 771 917 q 867 952 838 917 q 896 1064 896 988 l 1061 1064 z "},"ư":{"ha":876,"x_min":81,"x_max":925,"o":"m 319 -14 q 144 45 207 -14 q 81 231 81 104 l 81 694 l 317 694 l 317 286 q 342 194 317 222 q 418 167 367 167 q 505 206 471 167 q 539 322 539 244 l 539 694 l 671 694 q 764 847 764 694 l 925 847 q 775 586 925 636 l 775 0 l 564 0 l 557 131 q 319 -14 493 -14 z "},"Ǆ":{"ha":1871,"x_min":101,"x_max":1828,"o":"m 1689 1231 l 1550 1004 l 1319 1004 l 1179 1231 l 1344 1231 l 1435 1103 l 1525 1231 l 1689 1231 m 490 917 q 820 798 706 917 q 935 458 935 679 q 820 119 935 238 q 490 0 706 0 l 101 0 l 101 917 l 490 917 m 1828 181 l 1828 0 l 1042 0 l 1042 172 l 1554 736 l 1051 736 l 1051 917 l 1811 917 l 1811 744 l 1301 181 l 1828 181 m 467 181 q 636 250 582 181 q 690 458 690 319 q 636 667 690 597 q 467 736 582 736 l 340 736 l 340 181 l 467 181 z "},"ǅ":{"ha":1711,"x_min":101,"x_max":1667,"o":"m 1604 1025 l 1453 785 l 1224 785 l 1072 1025 l 1243 1025 l 1338 901 l 1433 1025 l 1604 1025 m 490 917 q 820 798 706 917 q 935 458 935 679 q 820 119 935 238 q 490 0 706 0 l 101 0 l 101 917 l 490 917 m 467 181 q 636 250 582 181 q 690 458 690 319 q 636 667 690 597 q 467 736 582 736 l 340 736 l 340 181 l 467 181 m 1043 0 l 1043 144 l 1318 458 l 1393 532 l 1282 529 l 1044 529 l 1044 694 l 1654 694 l 1654 550 l 1381 239 l 1306 163 l 1428 165 l 1667 165 l 1667 0 l 1043 0 z "},"ǆ":{"ha":1588,"x_min":54,"x_max":1543,"o":"m 1481 1025 l 1329 785 l 1101 785 l 949 1025 l 1119 1025 l 1215 901 l 1310 1025 l 1481 1025 m 340 -14 q 132 81 210 -14 q 54 344 54 176 q 134 612 54 515 q 346 708 214 708 q 550 576 490 708 l 550 989 l 786 989 l 786 0 l 575 0 l 567 136 q 478 26 538 65 q 340 -14 418 -14 m 919 0 l 919 144 l 1196 458 l 1269 532 l 1160 529 l 922 529 l 922 694 l 1531 694 l 1531 550 l 1258 239 l 1182 163 l 1304 165 l 1543 165 l 1543 0 l 919 0 m 422 160 q 516 210 482 160 q 550 351 550 260 q 517 487 550 439 q 424 535 483 535 q 292 347 292 535 q 422 160 292 160 z "},"Ǉ":{"ha":1694,"x_min":101,"x_max":1610,"o":"m 340 185 l 800 185 l 800 0 l 101 0 l 101 917 l 340 917 l 340 185 m 1610 917 l 1610 353 q 1510 83 1610 179 q 1226 -14 1410 -14 q 944 89 1031 -14 q 885 363 857 192 l 1118 404 q 1129 227 1101 281 q 1235 174 1157 174 q 1340 222 1308 174 q 1371 378 1371 271 l 1371 917 l 1610 917 z "},"ǈ":{"ha":1240,"x_min":101,"x_max":1176,"o":"m 1144 802 q 1127 789 1144 802 q 1039 775 1111 775 q 934 802 967 775 q 901 888 901 829 q 934 974 901 947 q 1039 1001 967 1001 q 1144 974 1111 1001 q 1176 888 1176 947 q 1144 802 1176 829 m 340 185 l 800 185 l 800 0 l 101 0 l 101 917 l 340 917 l 340 185 m 1157 694 l 1157 -39 q 888 -299 1157 -299 q 706 -254 778 -299 l 739 -101 q 828 -128 775 -128 q 921 -18 921 -128 l 921 694 l 1157 694 z "},"ǉ":{"ha":858,"x_min":82,"x_max":794,"o":"m 762 802 q 745 789 762 802 q 657 775 729 775 q 552 802 585 775 q 519 888 519 829 q 552 974 519 947 q 657 1001 585 1001 q 762 974 729 1001 q 794 888 794 947 q 762 802 794 829 m 318 989 l 318 236 q 333 171 318 190 q 385 151 349 151 q 453 163 419 151 l 438 21 q 293 -14 382 -14 q 132 38 182 -14 q 82 206 82 90 l 82 989 l 318 989 m 775 694 l 775 -39 q 506 -299 775 -299 q 324 -254 396 -299 l 357 -101 q 446 -128 393 -128 q 539 -18 539 -128 l 539 694 l 775 694 z "},"Ǌ":{"ha":1888,"x_min":101,"x_max":1803,"o":"m 928 917 l 928 0 l 663 0 l 378 496 l 308 632 l 307 632 l 313 463 l 313 0 l 101 0 l 101 917 l 367 917 l 651 421 l 721 285 l 722 285 l 717 454 l 717 917 l 928 917 m 1803 917 l 1803 353 q 1703 83 1803 179 q 1419 -14 1603 -14 q 1137 89 1224 -14 q 1078 363 1050 192 l 1311 404 q 1322 227 1294 281 q 1428 174 1350 174 q 1533 222 1501 174 q 1564 378 1564 271 l 1564 917 l 1803 917 z "},"ǋ":{"ha":1433,"x_min":101,"x_max":1369,"o":"m 1337 802 q 1320 789 1337 802 q 1232 775 1304 775 q 1127 802 1160 775 q 1094 888 1094 829 q 1127 974 1094 947 q 1232 1001 1160 1001 q 1337 974 1304 1001 q 1369 888 1369 947 q 1337 802 1369 829 m 928 917 l 928 0 l 663 0 l 378 496 l 308 632 l 307 632 l 313 463 l 313 0 l 101 0 l 101 917 l 367 917 l 651 421 l 721 285 l 722 285 l 717 454 l 717 917 l 928 917 m 1350 694 l 1350 -39 q 1081 -299 1350 -299 q 899 -254 971 -299 l 932 -101 q 1021 -128 968 -128 q 1114 -18 1114 -128 l 1114 694 l 1350 694 z "},"ǌ":{"ha":1265,"x_min":85,"x_max":1200,"o":"m 1167 802 q 1151 789 1167 802 q 1063 775 1135 775 q 958 802 990 775 q 925 888 925 829 q 958 974 925 947 q 1063 1001 990 1001 q 1167 974 1135 1001 q 1200 888 1200 947 q 1167 802 1200 829 m 85 0 l 85 694 l 296 694 l 303 554 q 540 708 367 708 q 715 644 650 708 q 781 463 781 581 l 781 0 l 544 0 l 544 400 q 446 528 544 528 q 356 489 390 528 q 321 368 321 450 l 321 0 l 85 0 m 1181 694 l 1181 -39 q 913 -299 1181 -299 q 731 -254 800 -299 l 763 -101 q 851 -128 801 -128 q 944 -18 944 -128 l 944 694 l 1181 694 z "},"ǝ":{"ha":804,"x_min":47,"x_max":756,"o":"m 385 708 q 657 613 558 708 q 756 347 756 518 q 657 83 756 179 q 394 -14 558 -14 q 141 81 235 -14 q 47 315 47 175 q 53 397 47 358 l 528 397 q 485 508 521 474 q 383 542 449 542 q 249 458 286 542 l 58 521 q 185 656 96 604 q 385 708 274 708 m 393 151 q 526 286 507 151 l 272 286 q 393 151 286 151 z "},"Ǧ":{"ha":1004,"x_min":63,"x_max":922,"o":"m 765 1231 l 626 1004 l 396 1004 l 256 1231 l 421 1231 l 511 1103 l 601 1231 l 765 1231 m 481 -14 q 177 110 292 -14 q 63 457 63 233 q 185 804 63 678 q 521 931 308 931 q 772 874 676 931 q 921 696 868 818 l 700 608 q 522 743 667 743 q 363 670 418 743 q 307 458 307 597 q 535 168 307 168 q 669 207 618 168 q 719 321 719 246 l 719 335 l 510 335 l 510 494 l 922 494 l 922 0 l 760 0 l 750 113 q 481 -14 671 -14 z "},"ǧ":{"ha":778,"x_min":31,"x_max":776,"o":"m 622 1025 l 469 785 l 242 785 l 90 1025 l 261 1025 l 356 901 l 451 1025 l 622 1025 m 518 154 q 703 103 639 154 q 768 -42 768 53 q 667 -234 768 -169 q 386 -299 565 -299 q 31 -124 31 -299 q 163 3 31 -21 q 61 143 61 40 q 90 228 61 192 q 171 282 119 264 q 60 472 60 343 q 148 647 60 585 q 396 708 236 708 q 542 692 478 708 q 601 828 551 774 q 735 882 650 882 q 757 881 749 882 l 776 722 q 743 726 758 726 q 626 657 650 726 q 731 472 731 596 q 643 299 731 360 q 396 238 556 238 q 265 250 324 238 q 219 201 219 236 q 297 154 219 154 l 518 154 m 396 574 q 321 547 349 574 q 293 472 293 521 q 321 399 293 425 q 396 372 349 372 q 470 399 442 372 q 499 472 499 425 q 470 547 499 519 q 396 574 442 574 m 388 -146 q 535 -126 485 -146 q 586 -75 586 -107 q 515 -31 586 -31 l 267 -31 q 224 -44 240 -31 q 208 -79 208 -58 q 256 -128 208 -111 q 388 -146 303 -146 z "},"Ǫ":{"ha":1024,"x_min":63,"x_max":961,"o":"m 554 -306 q 417 -264 467 -306 q 368 -150 368 -222 q 444 -10 368 -61 q 163 133 264 10 q 63 458 63 256 q 183 805 63 679 q 513 931 303 931 q 842 805 722 931 q 961 458 961 679 q 883 164 961 282 q 664 6 806 46 q 554 -47 586 -21 q 522 -110 522 -72 q 597 -172 522 -172 q 661 -160 636 -172 l 685 -278 q 554 -306 635 -306 m 665 671 q 639 707 665 671 q 513 743 613 743 q 360 671 413 743 q 307 458 307 599 q 360 246 307 318 q 513 174 413 174 q 665 246 613 174 q 717 458 717 318 q 665 671 717 599 z "},"ǫ":{"ha":832,"x_min":49,"x_max":783,"o":"m 460 -299 q 322 -257 372 -299 q 272 -144 272 -215 q 342 -8 272 -58 q 128 106 207 13 q 49 347 49 199 q 149 612 49 515 q 415 708 250 708 q 683 612 582 708 q 783 347 783 515 q 730 142 783 228 q 582 17 676 57 l 579 17 q 543 3 568 11 q 453 -44 481 -19 q 426 -104 426 -69 q 447 -149 426 -133 q 503 -165 467 -165 q 567 -153 539 -165 l 590 -271 q 460 -299 539 -299 m 415 540 q 286 347 286 540 q 415 154 286 154 q 546 347 546 154 q 415 540 546 540 z "},"Ǳ":{"ha":1871,"x_min":101,"x_max":1828,"o":"m 490 917 q 820 798 706 917 q 935 458 935 679 q 820 119 935 238 q 490 0 706 0 l 101 0 l 101 917 l 490 917 m 1828 181 l 1828 0 l 1042 0 l 1042 172 l 1554 736 l 1051 736 l 1051 917 l 1811 917 l 1811 744 l 1301 181 l 1828 181 m 467 181 q 636 250 582 181 q 690 458 690 319 q 636 667 690 597 q 467 736 582 736 l 340 736 l 340 181 l 467 181 z "},"ǲ":{"ha":1711,"x_min":101,"x_max":1667,"o":"m 490 917 q 820 798 706 917 q 935 458 935 679 q 820 119 935 238 q 490 0 706 0 l 101 0 l 101 917 l 490 917 m 467 181 q 636 250 582 181 q 690 458 690 319 q 636 667 690 597 q 467 736 582 736 l 340 736 l 340 181 l 467 181 m 1043 0 l 1043 144 l 1318 458 l 1393 532 l 1282 529 l 1044 529 l 1044 694 l 1654 694 l 1654 550 l 1381 239 l 1306 163 l 1428 165 l 1667 165 l 1667 0 l 1043 0 z "},"ǳ":{"ha":1588,"x_min":54,"x_max":1543,"o":"m 340 -14 q 132 81 210 -14 q 54 344 54 176 q 134 612 54 515 q 346 708 214 708 q 550 576 490 708 l 550 989 l 786 989 l 786 0 l 575 0 l 567 136 q 478 26 538 65 q 340 -14 418 -14 m 919 0 l 919 144 l 1196 458 l 1269 532 l 1160 529 l 922 529 l 922 694 l 1531 694 l 1531 550 l 1258 239 l 1182 163 l 1304 165 l 1543 165 l 1543 0 l 919 0 m 422 160 q 516 210 482 160 q 550 351 550 260 q 517 487 550 439 q 424 535 483 535 q 292 347 292 535 q 422 160 292 160 z "},"Ǻ":{"ha":940,"x_min":6,"x_max":935,"o":"m 469 1451 l 681 1451 l 557 1224 l 385 1224 l 469 1451 m 935 0 l 689 0 l 625 207 l 311 207 l 246 0 l 6 0 l 315 882 q 275 994 275 929 q 328 1122 275 1074 q 469 1169 382 1169 q 611 1122 558 1169 q 664 994 664 1074 q 625 883 664 929 l 935 0 m 524 1048 q 513 1058 524 1048 q 469 1068 503 1068 q 416 1048 436 1068 q 396 994 396 1028 q 416 942 396 963 q 469 922 436 922 q 524 942 503 922 q 544 994 544 963 q 524 1048 544 1028 m 356 369 l 581 369 l 468 740 l 356 369 z "},"ǻ":{"ha":804,"x_min":44,"x_max":796,"o":"m 301 1163 l 378 1374 l 588 1374 l 471 1163 l 301 1163 m 382 1114 q 524 1067 471 1114 q 576 940 576 1019 q 524 813 576 860 q 382 765 471 765 q 242 813 294 765 q 189 940 189 860 q 242 1067 189 1019 q 382 1114 294 1114 m 436 992 q 426 1002 436 992 q 382 1013 415 1013 q 328 992 349 1013 q 308 940 308 972 q 328 888 308 908 q 382 867 349 867 q 436 888 415 867 q 457 940 457 908 q 436 992 457 972 m 472 440 q 445 517 472 489 q 372 546 418 546 q 249 442 271 546 l 49 489 q 153 650 68 592 q 386 708 239 708 q 623 640 539 708 q 707 444 707 572 l 707 190 q 756 136 707 136 q 796 142 781 136 l 782 7 q 681 -12 740 -12 q 504 92 538 -12 q 415 13 476 40 q 278 -14 353 -14 q 107 35 169 -14 q 44 178 44 85 q 232 371 44 332 l 472 421 l 472 440 m 297 247 q 288 239 297 247 q 278 200 278 231 q 299 154 278 169 q 353 139 319 139 q 438 169 404 139 q 472 257 472 199 l 472 296 l 360 272 q 297 247 317 264 z "},"Ǽ":{"ha":1283,"x_min":-6,"x_max":1242,"o":"m 682 1231 l 892 1231 l 768 1004 l 596 1004 l 682 1231 m 807 176 l 1242 176 l 1242 0 l 585 0 l 585 272 l 342 272 l 235 0 l -6 0 l 388 917 l 1222 917 l 1222 740 l 807 740 l 807 543 l 1125 543 l 1125 376 l 807 376 l 807 176 m 393 428 l 585 428 l 585 747 l 526 747 l 393 428 z "},"ǽ":{"ha":1222,"x_min":44,"x_max":1172,"o":"m 585 1025 l 804 1025 l 664 785 l 493 785 l 585 1025 m 289 -14 q 108 35 172 -14 q 44 178 44 85 q 94 303 44 253 q 235 372 144 354 l 471 419 l 471 438 q 443 517 471 489 q 367 546 415 546 q 249 442 272 546 l 47 489 q 148 646 58 583 q 368 708 238 708 q 618 617 549 708 q 847 708 707 708 q 1087 617 1001 708 q 1172 379 1172 526 q 1167 288 1172 346 l 699 288 q 743 189 699 225 q 851 153 788 153 q 969 232 936 153 l 1160 169 q 1047 34 1131 82 q 854 -14 964 -14 q 572 133 653 -14 q 467 26 540 67 q 289 -14 393 -14 m 699 414 l 949 414 q 915 509 946 475 q 832 543 883 543 q 699 414 719 543 m 353 138 q 436 170 401 138 q 471 258 471 203 l 471 299 l 357 274 q 294 248 313 264 q 276 200 276 232 q 297 155 276 172 q 353 138 317 138 z "},"Ǿ":{"ha":1024,"x_min":63,"x_max":961,"o":"m 497 1231 l 707 1231 l 583 1004 l 413 1004 l 497 1231 m 86 -37 l 192 101 q 63 458 63 226 q 183 805 63 679 q 513 931 303 931 q 764 867 660 931 l 826 946 l 938 946 l 835 813 q 961 458 961 686 q 842 112 961 238 q 513 -14 722 -14 q 264 47 367 -14 l 197 -37 l 86 -37 m 513 743 q 360 671 413 743 q 307 458 307 599 q 336 288 307 354 l 636 701 q 513 743 589 743 m 717 458 q 689 625 717 557 l 390 213 q 513 174 438 174 q 665 246 613 174 q 717 458 717 318 z "},"ǿ":{"ha":832,"x_min":49,"x_max":783,"o":"m 401 1025 l 621 1025 l 481 785 l 310 785 l 401 1025 m 63 -35 l 153 79 q 49 347 49 176 q 149 612 49 515 q 415 708 250 708 q 621 658 535 708 l 676 728 l 769 728 l 679 615 q 783 347 783 515 q 683 83 783 179 q 415 -14 582 -14 q 211 36 297 -14 l 156 -35 l 63 -35 m 415 540 q 286 347 286 540 q 296 256 286 290 l 500 508 q 415 540 469 540 m 546 347 q 536 439 546 404 l 332 185 q 415 154 363 154 q 546 347 546 154 z "},"Ȁ":{"ha":940,"x_min":6,"x_max":935,"o":"m 322 1231 l 407 1004 l 236 1004 l 113 1231 l 322 1231 m 633 1231 l 718 1004 l 547 1004 l 424 1231 l 633 1231 m 935 0 l 689 0 l 625 207 l 311 207 l 246 0 l 6 0 l 328 917 l 614 917 l 935 0 m 356 369 l 581 369 l 468 740 l 356 369 z "},"ȁ":{"ha":804,"x_min":36,"x_max":796,"o":"m 332 785 l 168 785 l 36 1025 l 235 1025 l 332 785 m 626 785 l 463 785 l 331 1025 l 529 1025 l 626 785 m 472 440 q 445 517 472 489 q 372 546 418 546 q 249 442 271 546 l 49 489 q 153 650 68 592 q 386 708 239 708 q 623 640 539 708 q 707 444 707 572 l 707 190 q 756 136 707 136 q 796 142 781 136 l 782 7 q 681 -12 740 -12 q 504 92 538 -12 q 415 13 476 40 q 278 -14 353 -14 q 107 35 169 -14 q 44 178 44 85 q 232 371 44 332 l 472 421 l 472 440 m 297 247 q 288 239 297 247 q 278 200 278 231 q 299 154 278 169 q 353 139 319 139 q 438 169 404 139 q 472 257 472 199 l 472 296 l 360 272 q 297 247 317 264 z "},"Ȃ":{"ha":940,"x_min":6,"x_max":935,"o":"m 704 993 l 553 993 q 531 1062 553 1036 q 469 1088 510 1088 q 409 1062 431 1088 q 388 993 388 1036 l 235 993 q 298 1158 235 1097 q 469 1219 361 1219 q 641 1159 578 1219 q 704 993 704 1099 m 935 0 l 689 0 l 625 207 l 311 207 l 246 0 l 6 0 l 328 917 l 614 917 l 935 0 m 356 369 l 581 369 l 468 740 l 356 369 z "},"ȃ":{"ha":804,"x_min":44,"x_max":796,"o":"m 619 771 l 467 771 q 445 840 467 814 q 385 865 424 865 q 323 840 344 865 q 301 771 301 814 l 150 771 q 213 937 150 876 q 385 997 276 997 q 556 936 493 997 q 619 771 619 875 m 472 440 q 445 517 472 489 q 372 546 418 546 q 249 442 271 546 l 49 489 q 153 650 68 592 q 386 708 239 708 q 623 640 539 708 q 707 444 707 572 l 707 190 q 756 136 707 136 q 796 142 781 136 l 782 7 q 681 -12 740 -12 q 504 92 538 -12 q 415 13 476 40 q 278 -14 353 -14 q 107 35 169 -14 q 44 178 44 85 q 232 371 44 332 l 472 421 l 472 440 m 297 247 q 288 239 297 247 q 278 200 278 231 q 299 154 278 169 q 353 139 319 139 q 438 169 404 139 q 472 257 472 199 l 472 296 l 360 272 q 297 247 317 264 z "},"Ȅ":{"ha":876,"x_min":101,"x_max":833,"o":"m 311 1231 l 396 1004 l 225 1004 l 101 1231 l 311 1231 m 622 1231 l 707 1004 l 536 1004 l 413 1231 l 622 1231 m 101 0 l 101 917 l 815 917 l 815 732 l 340 732 l 340 546 l 718 546 l 718 372 l 340 372 l 340 185 l 833 185 l 833 0 l 101 0 z "},"ȅ":{"ha":804,"x_min":49,"x_max":757,"o":"m 356 785 l 192 785 l 60 1025 l 260 1025 l 356 785 m 650 785 l 486 785 l 354 1025 l 554 1025 l 650 785 m 424 -14 q 149 81 250 -14 q 49 347 49 176 q 149 613 49 517 q 413 708 249 708 q 665 617 574 708 q 757 379 757 526 q 751 288 757 332 l 278 288 q 424 153 297 153 q 554 232 521 153 l 743 169 q 626 34 714 82 q 424 -14 538 -14 m 413 543 q 279 414 301 543 l 533 414 q 413 543 518 543 z "},"Ȇ":{"ha":876,"x_min":101,"x_max":833,"o":"m 693 993 l 542 993 q 520 1062 542 1036 q 458 1088 499 1088 q 398 1062 419 1088 q 376 993 376 1036 l 224 993 q 287 1158 224 1097 q 458 1219 350 1219 q 630 1159 567 1219 q 693 993 693 1099 m 101 0 l 101 917 l 815 917 l 815 732 l 340 732 l 340 546 l 718 546 l 718 372 l 340 372 l 340 185 l 833 185 l 833 0 l 101 0 z "},"ȇ":{"ha":804,"x_min":49,"x_max":757,"o":"m 643 771 l 492 771 q 408 865 489 865 q 325 771 328 865 l 174 771 q 237 937 174 876 q 408 997 300 997 q 580 937 517 997 q 643 771 643 876 m 424 -14 q 149 81 250 -14 q 49 347 49 176 q 149 613 49 517 q 413 708 249 708 q 665 617 574 708 q 757 379 757 526 q 751 288 757 332 l 278 288 q 424 153 297 153 q 554 232 521 153 l 743 169 q 626 34 714 82 q 424 -14 538 -14 m 413 543 q 279 414 301 543 l 533 414 q 413 543 518 543 z "},"Ȉ":{"ha":442,"x_min":-137,"x_max":469,"o":"m 74 1231 l 158 1004 l -14 1004 l -137 1231 l 74 1231 m 383 1231 l 469 1004 l 297 1004 l 174 1231 l 383 1231 m 340 917 l 340 0 l 101 0 l 101 917 l 340 917 z "},"ȉ":{"ha":404,"x_min":-146,"x_max":444,"o":"m 150 785 l -14 785 l -146 1025 l 53 1025 l 150 785 m 444 785 l 281 785 l 149 1025 l 347 1025 l 444 785 m 321 694 l 321 0 l 85 0 l 85 694 l 321 694 z "},"Ȋ":{"ha":442,"x_min":-14,"x_max":456,"o":"m 456 993 l 303 993 q 281 1062 303 1036 q 221 1088 260 1088 q 138 993 140 1088 l -14 993 q 49 1159 -14 1099 q 221 1219 113 1219 q 392 1158 329 1219 q 456 993 456 1097 m 340 917 l 340 0 l 101 0 l 101 917 l 340 917 z "},"ȋ":{"ha":404,"x_min":-32,"x_max":438,"o":"m 438 771 l 285 771 q 263 840 285 814 q 203 865 242 865 q 141 840 163 865 q 119 771 119 814 l -32 771 q 31 937 -32 876 q 203 997 94 997 q 374 936 311 997 q 438 771 438 875 m 321 694 l 321 0 l 85 0 l 85 694 l 321 694 z "},"Ȍ":{"ha":1024,"x_min":63,"x_max":961,"o":"m 364 1231 l 450 1004 l 278 1004 l 154 1231 l 364 1231 m 675 1231 l 760 1004 l 589 1004 l 465 1231 l 675 1231 m 183 805 q 243 868 183 805 q 513 931 303 931 q 842 805 722 931 q 961 458 961 679 q 842 112 961 238 q 513 -14 722 -14 q 183 112 303 -14 q 63 458 63 238 q 183 805 63 679 m 665 671 q 639 707 665 671 q 513 743 613 743 q 360 671 413 743 q 307 458 307 599 q 360 246 307 318 q 513 174 413 174 q 665 246 613 174 q 717 458 717 318 q 665 671 717 599 z "},"ȍ":{"ha":832,"x_min":49,"x_max":783,"o":"m 364 785 l 200 785 l 68 1025 l 267 1025 l 364 785 m 658 785 l 494 785 l 363 1025 l 561 1025 l 658 785 m 415 708 q 683 612 582 708 q 783 347 783 515 q 683 83 783 179 q 415 -14 582 -14 q 149 83 250 -14 q 49 347 49 179 q 149 612 49 515 q 415 708 250 708 m 415 540 q 286 347 286 540 q 415 154 286 154 q 546 347 546 154 q 415 540 546 540 z "},"Ȏ":{"ha":1024,"x_min":63,"x_max":961,"o":"m 747 993 l 594 993 q 573 1062 594 1036 q 513 1088 551 1088 q 451 1062 472 1088 q 429 993 429 1036 l 278 993 q 341 1159 278 1099 q 513 1219 404 1219 q 684 1158 621 1219 q 747 993 747 1097 m 183 805 q 243 868 183 805 q 513 931 303 931 q 842 805 722 931 q 961 458 961 679 q 842 112 961 238 q 513 -14 722 -14 q 183 112 303 -14 q 63 458 63 238 q 183 805 63 679 m 665 671 q 639 707 665 671 q 513 743 613 743 q 360 671 413 743 q 307 458 307 599 q 360 246 307 318 q 513 174 413 174 q 665 246 613 174 q 717 458 717 318 q 665 671 717 599 z "},"ȏ":{"ha":832,"x_min":49,"x_max":783,"o":"m 650 771 l 499 771 q 477 840 499 814 q 415 865 456 865 q 355 840 376 865 q 333 771 333 814 l 181 771 q 244 936 181 875 q 415 997 307 997 q 587 937 524 997 q 650 771 650 876 m 415 708 q 683 612 582 708 q 783 347 783 515 q 683 83 783 179 q 415 -14 582 -14 q 149 83 250 -14 q 49 347 49 179 q 149 612 49 515 q 415 708 250 708 m 415 540 q 286 347 286 540 q 415 154 286 154 q 546 347 546 154 q 415 540 546 540 z "},"Ȑ":{"ha":957,"x_min":100,"x_max":939,"o":"m 310 1231 l 394 1004 l 224 1004 l 100 1231 l 310 1231 m 621 1231 l 706 1004 l 535 1004 l 411 1231 l 621 1231 m 539 917 q 793 841 701 917 q 885 635 885 765 q 700 369 885 432 l 939 0 l 675 0 l 479 335 l 336 335 l 336 0 l 101 0 l 101 917 l 539 917 m 506 504 q 644 621 644 504 q 506 736 644 736 l 336 736 l 336 504 l 506 504 z "},"ȑ":{"ha":597,"x_min":-11,"x_max":589,"o":"m 285 785 l 121 785 l -11 1025 l 188 1025 l 285 785 m 579 785 l 415 785 l 283 1025 l 482 1025 l 579 785 m 85 0 l 85 694 l 293 694 l 303 544 q 514 708 358 708 q 589 693 561 708 l 565 499 q 478 511 531 511 q 365 469 410 511 q 321 350 321 428 l 321 0 l 85 0 z "},"Ȓ":{"ha":957,"x_min":101,"x_max":939,"o":"m 692 993 l 540 993 q 457 1088 538 1088 q 397 1062 418 1088 q 375 993 375 1036 l 222 993 q 285 1158 222 1097 q 457 1219 349 1219 q 628 1159 565 1219 q 692 993 692 1099 m 539 917 q 793 841 701 917 q 885 635 885 765 q 700 369 885 432 l 939 0 l 675 0 l 479 335 l 336 335 l 336 0 l 101 0 l 101 917 l 539 917 m 506 504 q 644 621 644 504 q 506 736 644 736 l 336 736 l 336 504 l 506 504 z "},"ȓ":{"ha":597,"x_min":85,"x_max":589,"o":"m 572 771 l 419 771 q 398 840 419 814 q 338 865 376 865 q 276 840 297 865 q 254 771 254 814 l 103 771 q 166 937 103 876 q 338 997 229 997 q 509 936 446 997 q 572 771 572 875 m 85 0 l 85 694 l 293 694 l 303 544 q 514 708 358 708 q 589 693 561 708 l 565 499 q 478 511 531 511 q 365 469 410 511 q 321 350 321 428 l 321 0 l 85 0 z "},"Ȕ":{"ha":986,"x_min":83,"x_max":903,"o":"m 346 1217 l 431 990 l 260 990 l 136 1217 l 346 1217 m 657 1217 l 742 990 l 571 990 l 447 1217 l 657 1217 m 903 917 l 903 374 q 493 -14 903 -14 q 83 374 83 -14 l 83 917 l 324 917 l 324 369 q 493 174 324 174 q 664 369 664 174 l 664 917 l 903 917 z "},"ȕ":{"ha":860,"x_min":75,"x_max":775,"o":"m 371 779 l 207 779 l 75 1019 l 275 1019 l 371 779 m 665 779 l 501 779 l 369 1019 l 569 1019 l 665 779 m 319 -14 q 144 45 207 -14 q 81 231 81 104 l 81 694 l 317 694 l 317 286 q 342 194 317 222 q 418 167 367 167 q 505 206 471 167 q 539 322 539 244 l 539 694 l 775 694 l 775 0 l 564 0 l 557 131 q 319 -14 493 -14 z "},"Ȗ":{"ha":986,"x_min":83,"x_max":903,"o":"m 728 979 l 576 979 q 493 1074 574 1074 q 433 1048 454 1074 q 411 979 411 1022 l 258 979 q 322 1144 258 1083 q 493 1206 385 1206 q 665 1145 601 1206 q 728 979 728 1085 m 903 917 l 903 374 q 493 -14 903 -14 q 83 374 83 -14 l 83 917 l 324 917 l 324 369 q 493 174 324 174 q 664 369 664 174 l 664 917 l 903 917 z "},"ȗ":{"ha":860,"x_min":81,"x_max":775,"o":"m 658 765 l 506 765 q 484 834 506 808 q 424 860 463 860 q 340 765 343 860 l 189 765 q 252 931 189 871 q 424 992 315 992 q 595 931 532 992 q 658 765 658 869 m 319 -14 q 144 45 207 -14 q 81 231 81 104 l 81 694 l 317 694 l 317 286 q 342 194 317 222 q 418 167 367 167 q 505 206 471 167 q 539 322 539 244 l 539 694 l 775 694 l 775 0 l 564 0 l 557 131 q 319 -14 493 -14 z "},"Ș":{"ha":896,"x_min":22,"x_max":856,"o":"m 460 931 q 856 775 711 931 l 740 621 q 456 746 619 746 q 313 660 313 746 q 428 576 313 603 l 582 542 q 783 449 719 511 q 847 286 847 388 q 740 65 847 143 q 460 -14 633 -14 q 208 31 324 -14 q 22 150 92 75 l 138 310 q 278 210 190 249 q 457 171 365 171 q 601 256 601 171 q 579 306 601 286 q 501 339 557 326 l 332 376 q 64 632 64 433 q 170 847 64 764 q 460 931 276 931 m 571 -83 l 472 -335 l 319 -335 l 364 -83 l 571 -83 z "},"ș":{"ha":742,"x_min":35,"x_max":703,"o":"m 376 -14 q 35 118 156 -14 l 146 249 q 367 144 226 144 q 465 196 465 144 q 451 227 465 215 q 396 247 436 239 l 299 267 q 114 344 169 293 q 58 482 58 396 q 143 642 58 575 q 385 708 228 708 q 699 589 599 708 l 586 461 q 500 526 553 501 q 394 550 447 550 q 293 499 293 550 q 375 444 293 461 l 501 419 q 703 225 703 382 q 618 53 703 119 q 376 -14 533 -14 m 496 -83 l 397 -335 l 244 -335 l 289 -83 l 496 -83 z "},"Ț":{"ha":907,"x_min":35,"x_max":872,"o":"m 872 917 l 872 732 l 574 732 l 574 0 l 335 0 l 335 732 l 35 732 l 35 917 l 872 917 m 568 -83 l 469 -335 l 317 -335 l 361 -83 l 568 -83 z "},"ț":{"ha":607,"x_min":19,"x_max":593,"o":"m 582 694 l 582 526 l 375 526 l 375 247 q 467 154 375 154 q 568 185 525 154 l 593 39 q 397 -14 517 -14 q 139 208 140 -14 l 139 526 l 19 526 l 19 694 l 139 694 l 139 850 l 375 915 l 375 694 l 582 694 m 472 -83 l 374 -335 l 221 -335 l 265 -83 l 472 -83 z "},"Ȫ":{"ha":1024,"x_min":63,"x_max":961,"o":"m 765 1422 l 765 1276 l 260 1276 l 260 1422 l 765 1422 m 272 1180 q 288 1194 272 1180 q 358 1208 303 1208 q 446 1180 414 1208 q 478 1101 478 1151 q 446 1023 478 1051 q 358 994 414 994 q 272 1023 303 994 q 242 1101 242 1051 q 272 1180 242 1151 m 578 1180 q 593 1194 578 1180 q 664 1208 608 1208 q 751 1180 719 1208 q 782 1101 782 1151 q 751 1023 782 1051 q 664 994 719 994 q 578 1023 608 994 q 547 1101 547 1051 q 578 1180 547 1151 m 183 805 q 243 868 183 805 q 513 931 303 931 q 842 805 722 931 q 961 458 961 679 q 842 112 961 238 q 513 -14 722 -14 q 183 112 303 -14 q 63 458 63 238 q 183 805 63 679 m 665 671 q 639 707 665 671 q 513 743 613 743 q 360 671 413 743 q 307 458 307 599 q 360 246 307 318 q 513 174 413 174 q 665 246 613 174 q 717 458 717 318 q 665 671 717 599 z "},"ȫ":{"ha":832,"x_min":49,"x_max":783,"o":"m 668 1200 l 668 1054 l 163 1054 l 163 1200 l 668 1200 m 176 958 q 192 972 176 958 q 263 986 207 986 q 349 958 318 986 q 381 879 381 929 q 349 801 381 829 q 263 772 318 772 q 176 801 207 772 q 146 879 146 829 q 176 958 146 929 m 567 986 q 654 958 622 986 q 686 879 686 929 q 654 801 686 829 q 567 772 622 772 q 481 801 513 772 q 450 879 450 829 q 481 958 450 929 q 567 986 513 986 m 415 708 q 683 612 582 708 q 783 347 783 515 q 683 83 783 179 q 415 -14 582 -14 q 149 83 250 -14 q 49 347 49 179 q 149 612 49 515 q 415 708 250 708 m 415 540 q 286 347 286 540 q 415 154 286 154 q 546 347 546 154 q 415 540 546 540 z "},"Ȭ":{"ha":1024,"x_min":63,"x_max":961,"o":"m 764 1444 l 764 1299 l 258 1299 l 258 1444 l 764 1444 m 788 1219 q 735 1055 782 1111 q 615 999 688 999 q 534 1019 571 999 q 470 1058 497 1039 q 422 1078 443 1078 q 369 1000 378 1078 l 236 1000 q 289 1165 240 1108 q 417 1221 338 1221 q 494 1201 460 1221 q 555 1161 529 1181 q 601 1142 581 1142 q 654 1219 643 1142 l 788 1219 m 183 805 q 243 868 183 805 q 513 931 303 931 q 842 805 722 931 q 961 458 961 679 q 842 112 961 238 q 513 -14 722 -14 q 183 112 303 -14 q 63 458 63 238 q 183 805 63 679 m 665 671 q 639 707 665 671 q 513 743 613 743 q 360 671 413 743 q 307 458 307 599 q 360 246 307 318 q 513 174 413 174 q 665 246 613 174 q 717 458 717 318 q 665 671 717 599 z "},"ȭ":{"ha":832,"x_min":49,"x_max":783,"o":"m 668 1222 l 668 1076 l 163 1076 l 163 1222 l 668 1222 m 690 997 q 639 833 686 890 q 519 776 592 776 q 438 797 475 776 q 374 836 401 817 q 326 856 347 856 q 274 778 282 856 l 140 778 q 192 942 144 886 q 321 999 240 999 q 399 978 364 999 q 458 939 433 958 q 504 919 483 919 q 557 997 549 919 l 690 997 m 415 708 q 683 612 582 708 q 783 347 783 515 q 683 83 783 179 q 415 -14 582 -14 q 149 83 250 -14 q 49 347 49 179 q 149 612 49 515 q 415 708 250 708 m 415 540 q 286 347 286 540 q 415 154 286 154 q 546 347 546 154 q 415 540 546 540 z "},"Ȱ":{"ha":1024,"x_min":63,"x_max":961,"o":"m 767 1433 l 767 1288 l 261 1288 l 261 1433 l 767 1433 m 513 1225 q 642 1114 642 1225 q 513 1001 642 1001 q 385 1114 385 1001 q 513 1225 385 1225 m 183 805 q 243 868 183 805 q 513 931 303 931 q 842 805 722 931 q 961 458 961 679 q 842 112 961 238 q 513 -14 722 -14 q 183 112 303 -14 q 63 458 63 238 q 183 805 63 679 m 665 671 q 639 707 665 671 q 513 743 613 743 q 360 671 413 743 q 307 458 307 599 q 360 246 307 318 q 513 174 413 174 q 665 246 613 174 q 717 458 717 318 q 665 671 717 599 z "},"ȱ":{"ha":832,"x_min":49,"x_max":783,"o":"m 671 1211 l 671 1065 l 165 1065 l 165 1211 l 671 1211 m 415 1003 q 544 892 544 1003 q 415 779 544 779 q 289 892 289 779 q 415 1003 289 1003 m 415 708 q 683 612 582 708 q 783 347 783 515 q 683 83 783 179 q 415 -14 582 -14 q 149 83 250 -14 q 49 347 49 179 q 149 612 49 515 q 415 708 250 708 m 415 540 q 286 347 286 540 q 415 154 286 154 q 546 347 546 154 q 415 540 546 540 z "},"Ȳ":{"ha":913,"x_min":13,"x_max":899,"o":"m 708 1147 l 708 1001 l 203 1001 l 203 1147 l 708 1147 m 899 917 l 575 335 l 575 0 l 336 0 l 336 335 l 13 917 l 260 917 l 389 665 l 457 513 l 526 665 l 656 917 l 899 917 z "},"ȳ":{"ha":782,"x_min":-4,"x_max":783,"o":"m 665 931 l 665 785 l 160 785 l 160 931 l 665 931 m 783 694 l 531 0 q 397 -232 474 -165 q 188 -299 319 -299 q -4 -251 72 -299 l 43 -92 q 167 -125 88 -125 q 235 -110 210 -125 q 274 -58 260 -96 l 292 -15 l 211 174 l 3 694 l 263 694 l 369 299 l 403 151 l 442 304 l 549 694 l 783 694 z "},"ȷ":{"ha":404,"x_min":-131,"x_max":321,"o":"m 321 694 l 321 -39 q 51 -299 321 -299 q -131 -254 -58 -299 l -97 -101 q -8 -128 -61 -128 q 85 -18 85 -128 l 85 694 l 321 694 z "},"Ɂ":{"ha":847,"x_min":29,"x_max":815,"o":"m 444 931 q 712 847 608 931 q 815 622 815 764 q 536 286 815 346 l 536 0 l 306 0 l 306 417 q 499 479 442 429 q 557 619 557 529 q 520 706 557 674 q 425 739 483 739 q 310 695 353 739 q 257 568 268 651 l 29 646 q 444 931 93 931 z "},"ɂ":{"ha":768,"x_min":7,"x_max":747,"o":"m 390 710 q 649 643 550 710 q 747 451 747 576 q 486 178 747 226 l 486 0 l 250 0 l 250 279 q 439 328 386 296 q 492 419 492 360 q 374 518 492 518 q 236 383 260 518 l 7 457 q 128 641 33 572 q 390 710 222 710 z "},"ə":{"ha":804,"x_min":50,"x_max":756,"o":"m 394 -14 q 142 77 233 -14 q 50 315 50 168 q 56 388 50 356 l 529 388 q 488 506 522 469 q 390 542 454 542 q 263 450 296 542 l 65 508 q 188 655 100 601 q 396 708 275 708 q 663 614 569 708 q 756 347 756 519 q 661 81 756 176 q 394 -14 567 -14 m 397 151 q 526 278 507 151 l 272 278 q 311 184 279 217 q 397 151 343 151 z "},"ʹ":{"ha":833,"x_min":57,"x_max":344,"o":"m 344 942 l 222 557 l 57 557 l 138 942 l 344 942 z "},"ʺ":{"ha":660,"x_min":57,"x_max":631,"o":"m 631 942 l 508 557 l 343 557 l 424 942 l 631 942 m 344 942 l 222 557 l 57 557 l 138 942 l 344 942 z "},"ʻ":{"ha":833,"x_min":43,"x_max":290,"o":"m 290 1072 l 240 782 l 43 782 l 142 1072 l 290 1072 z "},"ʼ":{"ha":833,"x_min":69,"x_max":358,"o":"m 208 958 q 320 910 282 958 q 358 789 358 861 q 302 617 358 697 q 165 500 246 536 l 69 571 q 171 634 126 594 q 235 718 215 674 l 229 722 q 181 711 211 711 q 103 741 138 711 q 69 825 69 771 q 110 923 69 888 q 208 958 150 958 z "},"ʾ":{"ha":511,"x_min":129,"x_max":389,"o":"m 179 989 q 332 936 275 989 q 389 797 389 883 q 332 658 389 711 q 179 606 275 606 l 129 606 l 129 715 l 183 715 q 245 738 221 715 q 269 797 269 760 q 245 856 269 833 q 183 879 221 879 l 129 879 l 129 989 l 179 989 z "},"ʿ":{"ha":511,"x_min":122,"x_max":382,"o":"m 332 606 q 179 658 236 606 q 122 797 122 711 q 179 936 122 883 q 332 989 236 989 l 382 989 l 382 879 l 328 879 q 266 856 290 879 q 242 797 242 833 q 266 738 242 760 q 328 715 290 715 l 382 715 l 382 606 l 332 606 z "},"ˆ":{"ha":694,"x_min":82,"x_max":613,"o":"m 613 776 l 443 776 l 347 899 l 251 776 l 82 776 l 233 1017 l 461 1017 l 613 776 z "},"ˇ":{"ha":694,"x_min":82,"x_max":613,"o":"m 613 1025 l 461 785 l 233 785 l 82 1025 l 251 1025 l 347 901 l 443 1025 l 613 1025 z "},"ˈ":{"ha":343,"x_min":90,"x_max":253,"o":"m 90 989 l 253 989 l 253 619 l 90 619 l 90 989 z "},"ˉ":{"ha":694,"x_min":94,"x_max":600,"o":"m 600 936 l 600 790 l 94 790 l 94 936 l 600 936 z "},"ˊ":{"ha":833,"x_min":261,"x_max":572,"o":"m 353 1025 l 572 1025 l 432 785 l 261 785 l 353 1025 z "},"ˋ":{"ha":778,"x_min":233,"x_max":546,"o":"m 453 1025 l 546 785 l 374 785 l 233 1025 l 453 1025 z "},"ˌ":{"ha":343,"x_min":90,"x_max":253,"o":"m 90 83 l 253 83 l 253 -286 l 90 -286 l 90 83 z "},"˘":{"ha":694,"x_min":113,"x_max":582,"o":"m 582 997 q 519 831 582 892 q 347 771 456 771 q 176 831 239 771 q 113 997 113 892 l 264 997 q 347 903 267 903 q 431 997 428 903 l 582 997 z "},"˙":{"ha":694,"x_min":219,"x_max":475,"o":"m 346 1003 q 475 892 475 1003 q 346 779 475 779 q 219 892 219 779 q 346 1003 219 1003 z "},"˚":{"ha":694,"x_min":154,"x_max":542,"o":"m 347 1114 q 489 1067 436 1114 q 542 940 542 1019 q 489 813 542 860 q 347 765 436 765 q 207 813 260 765 q 154 940 154 860 q 207 1067 154 1019 q 347 1114 260 1114 m 401 992 q 391 1002 401 992 q 347 1013 381 1013 q 294 992 314 1013 q 274 940 274 972 q 294 888 274 908 q 347 867 314 867 q 401 888 381 867 q 422 940 422 908 q 401 992 422 972 z "},"˛":{"ha":694,"x_min":189,"x_max":507,"o":"m 375 -299 q 238 -257 288 -299 q 189 -144 189 -215 q 406 47 189 7 l 499 17 q 378 -37 413 -10 q 343 -104 343 -64 q 418 -165 343 -165 q 482 -153 457 -165 l 507 -271 q 375 -299 456 -299 z "},"˜":{"ha":694,"x_min":72,"x_max":622,"o":"m 622 997 q 571 833 618 890 q 451 776 524 776 q 370 797 407 776 q 306 836 333 817 q 258 856 279 856 q 206 778 214 856 l 72 778 q 124 942 76 886 q 253 999 172 999 q 331 978 296 999 q 390 939 365 958 q 436 919 415 919 q 489 997 481 919 l 622 997 z "},"˝":{"ha":694,"x_min":53,"x_max":643,"o":"m 347 785 l 443 1025 l 643 1025 l 511 785 l 347 785 m 53 785 l 149 1025 l 349 1025 l 217 785 l 53 785 z "},"̀":{"ha":0,"x_min":-219,"x_max":93,"o":"m 0 1025 l 93 785 l -79 785 l -219 1025 l 0 1025 z "},"́":{"ha":0,"x_min":-107,"x_max":206,"o":"m -14 1025 l 206 1025 l 65 785 l -107 785 l -14 1025 z "},"̂":{"ha":0,"x_min":-265,"x_max":265,"o":"m 265 776 l 96 776 l 0 899 l -96 776 l -265 776 l -114 1017 l 114 1017 l 265 776 z "},"̃":{"ha":0,"x_min":-276,"x_max":275,"o":"m 275 997 q 223 833 269 889 q 104 776 176 776 q 22 797 60 776 q -42 836 -15 817 q -90 856 -69 856 q -143 778 -132 856 l -276 778 q -223 942 -271 886 q -94 999 -175 999 q -17 978 -51 999 q 43 939 18 958 q 89 919 68 919 q 142 997 131 919 l 275 997 z "},"̄":{"ha":0,"x_min":-253,"x_max":253,"o":"m 253 936 l 253 790 l -253 790 l -253 936 l 253 936 z "},"̆":{"ha":0,"x_min":-235,"x_max":235,"o":"m 235 997 q 172 831 235 892 q 0 771 108 771 q -172 831 -108 771 q -235 997 -235 892 l -83 997 q 0 903 -81 903 q 83 997 81 903 l 235 997 z "},"̇":{"ha":0,"x_min":-126,"x_max":129,"o":"m 0 1003 q 129 892 129 1003 q 0 779 129 779 q -126 892 -126 779 q 0 1003 -126 1003 z "},"̈":{"ha":0,"x_min":-271,"x_max":271,"o":"m -154 986 q -67 958 -99 986 q -35 879 -35 929 q -67 801 -35 829 q -154 772 -99 772 q -240 801 -208 772 q -271 879 -271 829 q -240 958 -271 929 q -154 986 -208 986 m 65 958 q 81 972 65 958 q 151 986 96 986 q 239 958 207 986 q 271 879 271 929 q 239 801 271 829 q 151 772 207 772 q 65 801 96 772 q 35 879 35 829 q 65 958 35 929 z "},"̉":{"ha":0,"x_min":204,"x_max":550,"o":"m 390 756 l 339 828 q 414 903 414 858 q 365 949 414 949 q 311 908 331 949 l 204 961 q 267 1046 219 1015 q 383 1076 315 1076 q 501 1038 453 1076 q 550 932 550 999 q 390 756 550 807 z "},"̊":{"ha":0,"x_min":-196,"x_max":192,"o":"m -1 1114 q 139 1067 86 1114 q 192 940 192 1019 q 139 813 192 860 q -1 765 86 765 q -143 813 -90 765 q -196 940 -196 860 q -143 1067 -196 1019 q -1 1114 -90 1114 m 52 992 q 42 1002 52 992 q -1 1013 32 1013 q -56 992 -35 1013 q -76 940 -76 972 q -56 888 -76 908 q -1 867 -35 867 q 52 888 32 867 q 72 940 72 908 q 52 992 72 972 z "},"̋":{"ha":0,"x_min":-247,"x_max":343,"o":"m 47 785 l 143 1025 l 343 1025 l 211 785 l 47 785 m -247 785 l -151 1025 l 49 1025 l -83 785 l -247 785 z "},"̌":{"ha":0,"x_min":-271,"x_max":261,"o":"m 261 1025 l 110 785 l -119 785 l -271 1025 l -100 1025 l -6 901 l 90 1025 l 261 1025 z "},"̏":{"ha":0,"x_min":-349,"x_max":242,"o":"m -53 785 l -217 785 l -349 1025 l -149 1025 l -53 785 m 242 785 l 78 785 l -54 1025 l 146 1025 l 242 785 z "},"̑":{"ha":0,"x_min":-235,"x_max":235,"o":"m 235 771 l 83 771 q 0 865 81 865 q -83 771 -81 865 l -235 771 q -172 937 -235 876 q 0 997 -108 997 q 172 937 108 997 q 235 771 235 876 z "},"̒":{"ha":0,"x_min":285,"x_max":532,"o":"m 532 1072 l 482 782 l 285 782 l 383 1072 l 532 1072 z "},"̛":{"ha":0,"x_min":374,"x_max":628,"o":"m 374 569 l 374 694 q 467 847 467 694 l 628 847 q 562 639 628 708 q 374 569 496 569 z "},"̣":{"ha":0,"x_min":-126,"x_max":129,"o":"m 0 -308 q -126 -197 -126 -308 q 0 -85 -126 -85 q 129 -197 129 -85 q 0 -308 129 -308 z "},"̤":{"ha":0,"x_min":-271,"x_max":271,"o":"m -154 -78 q -67 -106 -99 -78 q -35 -185 -35 -135 q -67 -263 -35 -235 q -154 -292 -99 -292 q -240 -263 -208 -292 q -271 -185 -271 -235 q -240 -106 -271 -135 q -154 -78 -208 -78 m 65 -106 q 81 -92 65 -106 q 151 -78 96 -78 q 239 -106 207 -78 q 271 -185 271 -135 q 239 -263 271 -235 q 151 -292 207 -292 q 65 -263 96 -292 q 35 -185 35 -235 q 65 -106 35 -135 z "},"̦":{"ha":0,"x_min":-132,"x_max":119,"o":"m 119 -83 l 21 -335 l -132 -335 l -87 -83 l 119 -83 z "},"̧":{"ha":0,"x_min":-176,"x_max":161,"o":"m -107 14 l -50 51 q 161 -125 161 21 q 108 -251 161 -204 q -33 -299 56 -299 q -176 -258 -115 -299 l -137 -146 q -54 -171 -100 -171 q 4 -150 -18 -171 q 26 -92 26 -129 q -3 -34 26 -58 q -107 14 -33 -10 z "},"̨":{"ha":0,"x_min":-310,"x_max":7,"o":"m -124 -299 q -260 -257 -211 -299 q -310 -144 -310 -215 q -93 47 -310 7 l 0 17 q -121 -37 -86 -10 q -156 -104 -156 -64 q -81 -165 -156 -165 q -17 -153 -42 -165 l 7 -271 q -124 -299 -43 -299 z "},"̮":{"ha":0,"x_min":-235,"x_max":235,"o":"m 235 -76 q 172 -242 235 -182 q 0 -303 108 -303 q -172 -242 -108 -303 q -235 -76 -235 -182 l -83 -76 q 0 -171 -81 -171 q 83 -76 81 -171 l 235 -76 z "},"̱":{"ha":0,"x_min":-253,"x_max":253,"o":"m 253 -96 l 253 -242 l -253 -242 l -253 -96 l 253 -96 z "},"̵":{"ha":0,"x_min":-326,"x_max":326,"o":"m 326 526 l 326 392 l -326 392 l -326 526 l 326 526 z "},"̸":{"ha":0,"x_min":64,"x_max":772,"o":"m 64 -35 l 679 728 l 772 728 l 157 -35 l 64 -35 z "},"Ω":{"ha":1065,"x_min":75,"x_max":990,"o":"m 75 0 l 75 178 l 281 178 q 83 513 83 269 q 205 816 83 701 q 533 931 326 931 q 861 816 740 931 q 982 513 982 701 q 785 178 982 269 l 990 178 l 990 0 l 588 0 l 588 181 q 704 269 664 193 q 744 469 744 346 q 690 675 744 603 q 533 747 635 747 q 376 676 431 747 q 321 469 321 604 q 361 269 321 346 q 478 181 401 193 l 478 0 l 75 0 z "},"μ":{"ha":863,"x_min":85,"x_max":779,"o":"m 85 -292 l 85 694 l 321 694 l 321 290 q 421 167 321 167 q 510 207 476 167 q 543 331 543 247 l 543 694 l 779 694 l 779 0 l 571 0 l 563 126 q 363 -12 504 -12 q 321 -10 346 -12 l 321 -292 l 85 -292 z "},"π":{"ha":1096,"x_min":32,"x_max":1054,"o":"m 200 0 l 200 531 l 32 531 l 32 694 l 1054 694 l 1054 531 l 871 531 l 871 258 q 1006 158 871 149 l 983 -4 q 711 34 788 -17 q 635 207 635 85 l 635 531 l 436 531 l 436 0 l 200 0 z "},"Ḉ":{"ha":946,"x_min":63,"x_max":914,"o":"m 489 1231 l 699 1231 l 575 1004 l 404 1004 l 489 1231 m 914 263 q 608 -7 850 35 q 661 -125 661 -50 q 608 -251 661 -204 q 467 -299 556 -299 q 324 -258 383 -299 l 363 -146 q 446 -171 400 -171 q 504 -150 482 -171 q 526 -92 526 -129 q 460 -11 526 -43 q 168 128 274 4 q 63 458 63 251 q 183 805 63 679 q 511 931 303 931 q 765 867 661 931 q 903 678 869 804 l 693 593 q 631 709 674 675 q 519 743 589 743 q 363 670 418 743 q 307 458 307 597 q 521 174 307 174 q 697 324 665 174 l 914 263 z "},"ḉ":{"ha":788,"x_min":49,"x_max":750,"o":"m 396 1025 l 615 1025 l 475 785 l 303 785 l 396 1025 m 414 708 q 647 647 563 708 q 749 493 731 586 l 531 421 q 495 511 521 482 q 421 540 469 540 q 286 344 286 540 q 422 154 286 154 q 538 267 521 154 l 750 199 q 677 69 738 124 q 521 -4 617 14 q 576 -125 576 -50 q 524 -251 576 -204 q 382 -299 471 -299 q 239 -258 300 -299 l 278 -146 q 361 -171 315 -171 q 419 -150 397 -171 q 442 -92 442 -129 q 375 -11 442 -43 q 135 97 222 3 q 49 347 49 190 q 149 612 49 515 q 414 708 249 708 z "},"Ḍ":{"ha":997,"x_min":101,"x_max":935,"o":"m 490 917 q 820 798 706 917 q 935 458 935 679 q 820 119 935 238 q 490 0 706 0 l 101 0 l 101 917 l 490 917 m 467 181 q 636 250 582 181 q 690 458 690 319 q 636 667 690 597 q 467 736 582 736 l 340 736 l 340 181 l 467 181 m 468 -308 q 342 -197 342 -308 q 468 -85 342 -85 q 597 -197 597 -85 q 468 -308 597 -308 z "},"ḍ":{"ha":871,"x_min":54,"x_max":786,"o":"m 340 -14 q 132 81 210 -14 q 54 344 54 176 q 134 612 54 515 q 346 708 214 708 q 550 576 490 708 l 550 989 l 786 989 l 786 0 l 575 0 l 567 136 q 478 26 538 65 q 340 -14 418 -14 m 422 160 q 516 210 482 160 q 550 351 550 260 q 517 487 550 439 q 424 535 483 535 q 292 347 292 535 q 422 160 292 160 m 428 -308 q 301 -197 301 -308 q 428 -85 301 -85 q 557 -197 557 -85 q 428 -308 557 -308 z "},"Ḏ":{"ha":997,"x_min":101,"x_max":935,"o":"m 490 917 q 820 798 706 917 q 935 458 935 679 q 820 119 935 238 q 490 0 706 0 l 101 0 l 101 917 l 490 917 m 467 181 q 636 250 582 181 q 690 458 690 319 q 636 667 690 597 q 467 736 582 736 l 340 736 l 340 181 l 467 181 m 721 -96 l 721 -242 l 215 -242 l 215 -96 l 721 -96 z "},"ḏ":{"ha":871,"x_min":54,"x_max":786,"o":"m 340 -14 q 132 81 210 -14 q 54 344 54 176 q 134 612 54 515 q 346 708 214 708 q 550 576 490 708 l 550 989 l 786 989 l 786 0 l 575 0 l 567 136 q 478 26 538 65 q 340 -14 418 -14 m 422 160 q 516 210 482 160 q 550 351 550 260 q 517 487 550 439 q 424 535 483 535 q 292 347 292 535 q 422 160 292 160 m 681 -96 l 681 -242 l 175 -242 l 175 -96 l 681 -96 z "},"Ḕ":{"ha":876,"x_min":101,"x_max":833,"o":"m 474 1469 l 558 1242 l 388 1242 l 264 1469 l 474 1469 m 711 1158 l 711 1013 l 206 1013 l 206 1158 l 711 1158 m 101 0 l 101 917 l 815 917 l 815 732 l 340 732 l 340 546 l 718 546 l 718 372 l 340 372 l 340 185 l 833 185 l 833 0 l 101 0 z "},"ḕ":{"ha":804,"x_min":49,"x_max":757,"o":"m 424 1247 l 508 1019 l 336 1019 l 213 1247 l 424 1247 m 661 936 l 661 790 l 156 790 l 156 936 l 661 936 m 424 -14 q 149 81 250 -14 q 49 347 49 176 q 149 613 49 517 q 413 708 249 708 q 665 617 574 708 q 757 379 757 526 q 751 288 757 332 l 278 288 q 424 153 297 153 q 554 232 521 153 l 743 169 q 626 34 714 82 q 424 -14 538 -14 m 413 543 q 279 414 301 543 l 533 414 q 413 543 518 543 z "},"Ḗ":{"ha":876,"x_min":101,"x_max":833,"o":"m 444 1469 l 654 1469 l 531 1242 l 360 1242 l 444 1469 m 711 1158 l 711 1013 l 206 1013 l 206 1158 l 711 1158 m 101 0 l 101 917 l 815 917 l 815 732 l 340 732 l 340 546 l 718 546 l 718 372 l 340 372 l 340 185 l 833 185 l 833 0 l 101 0 z "},"ḗ":{"ha":804,"x_min":49,"x_max":757,"o":"m 393 1247 l 604 1247 l 481 1019 l 308 1019 l 393 1247 m 661 936 l 661 790 l 156 790 l 156 936 l 661 936 m 424 -14 q 149 81 250 -14 q 49 347 49 176 q 149 613 49 517 q 413 708 249 708 q 665 617 574 708 q 757 379 757 526 q 751 288 757 332 l 278 288 q 424 153 297 153 q 554 232 521 153 l 743 169 q 626 34 714 82 q 424 -14 538 -14 m 413 543 q 279 414 301 543 l 533 414 q 413 543 518 543 z "},"Ḝ":{"ha":876,"x_min":101,"x_max":833,"o":"m 693 1219 q 630 1053 693 1114 q 458 993 567 993 q 287 1054 350 993 q 224 1219 224 1115 l 376 1219 q 397 1151 376 1176 q 458 1125 418 1125 q 520 1150 499 1125 q 542 1219 542 1175 l 693 1219 m 101 0 l 101 917 l 815 917 l 815 732 l 340 732 l 340 546 l 718 546 l 718 372 l 340 372 l 340 185 l 833 185 l 833 0 l 579 0 q 642 -125 642 -46 q 589 -251 642 -204 q 446 -299 536 -299 q 304 -258 363 -299 l 342 -146 q 425 -171 382 -171 q 483 -150 461 -171 q 506 -92 506 -129 q 484 -42 506 -64 q 411 0 463 -21 l 101 0 z "},"ḝ":{"ha":804,"x_min":49,"x_max":757,"o":"m 643 997 q 580 831 643 892 q 408 771 517 771 q 237 831 300 771 q 174 997 174 892 l 325 997 q 408 903 328 903 q 492 997 489 903 l 643 997 m 578 -125 q 525 -251 578 -204 q 383 -299 472 -299 q 240 -258 300 -299 l 279 -146 q 363 -171 317 -171 q 421 -150 399 -171 q 443 -92 443 -129 q 376 -12 443 -44 q 135 95 222 1 q 49 347 49 189 q 149 613 49 517 q 413 708 249 708 q 665 617 574 708 q 757 379 757 526 q 751 288 757 332 l 278 288 q 424 153 297 153 q 554 232 521 153 l 743 169 q 662 57 721 101 q 521 -4 603 13 q 578 -125 578 -47 m 413 543 q 279 414 301 543 l 533 414 q 413 543 518 543 z "},"Ḡ":{"ha":1004,"x_min":63,"x_max":922,"o":"m 764 1158 l 764 1013 l 258 1013 l 258 1158 l 764 1158 m 481 -14 q 177 110 292 -14 q 63 457 63 233 q 185 804 63 678 q 521 931 308 931 q 772 874 676 931 q 921 696 868 818 l 700 608 q 522 743 667 743 q 363 670 418 743 q 307 458 307 597 q 535 168 307 168 q 669 207 618 168 q 719 321 719 246 l 719 335 l 510 335 l 510 494 l 922 494 l 922 0 l 760 0 l 750 113 q 481 -14 671 -14 z "},"ḡ":{"ha":778,"x_min":31,"x_max":776,"o":"m 531 936 l 531 790 l 190 790 l 190 936 l 531 936 m 518 154 q 703 103 639 154 q 768 -42 768 53 q 667 -234 768 -169 q 386 -299 565 -299 q 31 -124 31 -299 q 163 3 31 -21 q 61 143 61 40 q 90 228 61 192 q 171 282 119 264 q 60 472 60 343 q 148 647 60 585 q 396 708 236 708 q 542 692 478 708 q 601 828 551 774 q 735 882 650 882 q 757 881 749 882 l 776 722 q 743 726 758 726 q 626 657 650 726 q 731 472 731 596 q 643 299 731 360 q 396 238 556 238 q 265 250 324 238 q 219 201 219 236 q 297 154 219 154 l 518 154 m 396 574 q 321 547 349 574 q 293 472 293 521 q 321 399 293 425 q 396 372 349 372 q 470 399 442 372 q 499 472 499 425 q 470 547 499 519 q 396 574 442 574 m 388 -146 q 535 -126 485 -146 q 586 -75 586 -107 q 515 -31 586 -31 l 267 -31 q 224 -44 240 -31 q 208 -79 208 -58 q 256 -128 208 -111 q 388 -146 303 -146 z "},"Ḥ":{"ha":1031,"x_min":101,"x_max":929,"o":"m 340 917 l 340 554 l 690 554 l 690 917 l 929 917 l 929 0 l 690 0 l 690 369 l 340 369 l 340 0 l 101 0 l 101 917 l 340 917 m 515 -308 q 389 -197 389 -308 q 515 -85 389 -85 q 644 -197 644 -85 q 515 -308 644 -308 z "},"ḥ":{"ha":861,"x_min":85,"x_max":781,"o":"m 85 0 l 85 989 l 321 989 l 321 568 q 540 708 383 708 q 715 644 650 708 q 781 463 781 581 l 781 0 l 544 0 l 544 397 q 446 529 544 529 q 356 489 390 529 q 321 365 321 449 l 321 0 l 85 0 m 443 -308 q 315 -197 315 -308 q 443 -85 315 -85 q 572 -197 572 -85 q 443 -308 572 -308 z "},"Ḫ":{"ha":1031,"x_min":101,"x_max":929,"o":"m 340 917 l 340 554 l 690 554 l 690 917 l 929 917 l 929 0 l 690 0 l 690 369 l 340 369 l 340 0 l 101 0 l 101 917 l 340 917 m 750 -76 q 687 -242 750 -182 q 515 -303 624 -303 q 344 -242 407 -303 q 281 -76 281 -181 l 433 -76 q 455 -145 433 -119 q 515 -171 476 -171 q 599 -76 596 -171 l 750 -76 z "},"ḫ":{"ha":861,"x_min":85,"x_max":781,"o":"m 85 0 l 85 989 l 321 989 l 321 568 q 540 708 383 708 q 715 644 650 708 q 781 463 781 581 l 781 0 l 544 0 l 544 397 q 446 529 544 529 q 356 489 390 529 q 321 365 321 449 l 321 0 l 85 0 m 678 -76 q 615 -242 678 -181 q 443 -303 551 -303 q 272 -242 335 -303 q 208 -76 208 -182 l 360 -76 q 381 -145 360 -119 q 443 -171 403 -171 q 503 -145 482 -171 q 525 -76 525 -119 l 678 -76 z "},"Ḯ":{"ha":442,"x_min":-50,"x_max":492,"o":"m 206 1494 l 415 1494 l 292 1268 l 121 1268 l 206 1494 m -19 1180 q -4 1194 -19 1180 q 67 1208 11 1208 q 154 1180 122 1208 q 186 1101 186 1151 q 154 1023 186 1051 q 67 994 122 994 q -19 1023 11 994 q -50 1101 -50 1051 q -19 1180 -50 1151 m 286 1180 q 301 1194 286 1180 q 372 1208 317 1208 q 460 1180 428 1208 q 492 1101 492 1151 q 460 1023 492 1051 q 372 994 428 994 q 286 1023 317 994 q 256 1101 256 1051 q 286 1180 256 1151 m 340 917 l 340 0 l 101 0 l 101 917 l 340 917 z "},"ḯ":{"ha":404,"x_min":-68,"x_max":472,"o":"m 188 1272 l 397 1272 l 274 1046 l 103 1046 l 188 1272 m -37 958 q -22 972 -37 958 q 49 986 -7 986 q 136 958 104 986 q 168 879 168 929 q 136 801 168 829 q 49 772 104 772 q -37 801 -7 772 q -68 879 -68 829 q -37 958 -68 929 m 268 958 q 283 972 268 958 q 354 986 299 986 q 441 958 410 986 q 472 879 472 929 q 441 801 472 829 q 354 772 410 772 q 268 801 299 772 q 238 879 238 829 q 268 958 238 929 m 321 694 l 321 0 l 85 0 l 85 694 l 321 694 z "},"Ḷ":{"ha":836,"x_min":101,"x_max":800,"o":"m 340 185 l 800 185 l 800 0 l 101 0 l 101 917 l 340 917 l 340 185 m 467 -308 q 339 -197 339 -308 q 467 -85 339 -85 q 596 -197 596 -85 q 467 -308 596 -308 z "},"ḷ":{"ha":454,"x_min":82,"x_max":453,"o":"m 318 989 l 318 236 q 333 171 318 190 q 385 151 349 151 q 453 163 419 151 l 438 21 q 293 -14 382 -14 q 132 38 182 -14 q 82 206 82 90 l 82 989 l 318 989 m 271 -308 q 144 -197 144 -308 q 271 -85 144 -85 q 400 -197 400 -85 q 271 -308 400 -308 z "},"Ḻ":{"ha":836,"x_min":101,"x_max":800,"o":"m 340 185 l 800 185 l 800 0 l 101 0 l 101 917 l 340 917 l 340 185 m 719 -96 l 719 -242 l 214 -242 l 214 -96 l 719 -96 z "},"ḻ":{"ha":454,"x_min":79,"x_max":461,"o":"m 318 989 l 318 236 q 333 171 318 190 q 385 151 349 151 q 453 163 419 151 l 438 21 q 293 -14 382 -14 q 132 38 182 -14 q 82 206 82 90 l 82 989 l 318 989 m 461 -96 l 461 -242 l 79 -242 l 79 -96 l 461 -96 z "},"Ṃ":{"ha":1264,"x_min":101,"x_max":1163,"o":"m 1163 917 l 1163 0 l 951 0 l 951 421 l 958 703 l 956 703 l 729 0 l 536 0 l 310 703 l 307 703 l 314 421 l 314 0 l 101 0 l 101 917 l 442 917 l 586 450 l 638 256 l 640 256 l 693 449 l 836 917 l 1163 917 m 632 -308 q 506 -197 506 -308 q 632 -85 506 -85 q 761 -197 761 -85 q 632 -308 761 -308 z "},"ṃ":{"ha":1307,"x_min":85,"x_max":1226,"o":"m 85 0 l 85 694 l 296 694 l 303 560 q 536 708 371 708 q 756 571 700 708 q 850 673 788 638 q 989 708 913 708 q 1160 644 1094 708 q 1226 463 1226 581 l 1226 0 l 990 0 l 990 408 q 896 528 990 528 q 807 488 840 528 q 774 371 774 447 l 774 0 l 538 0 l 538 408 q 443 528 538 528 q 356 488 390 528 q 321 367 321 447 l 321 0 l 85 0 m 656 -308 q 529 -197 529 -308 q 656 -85 529 -85 q 785 -197 785 -85 q 656 -308 785 -308 z "},"Ṅ":{"ha":1029,"x_min":101,"x_max":928,"o":"m 517 1225 q 646 1114 646 1225 q 517 1001 646 1001 q 390 1114 390 1001 q 517 1225 390 1225 m 928 917 l 928 0 l 663 0 l 378 496 l 308 632 l 307 632 l 313 463 l 313 0 l 101 0 l 101 917 l 367 917 l 651 421 l 721 285 l 722 285 l 717 454 l 717 917 l 928 917 z "},"ṅ":{"ha":861,"x_min":85,"x_max":781,"o":"m 435 1003 q 564 892 564 1003 q 435 779 564 779 q 307 892 307 779 q 435 1003 307 1003 m 85 0 l 85 694 l 296 694 l 303 554 q 540 708 367 708 q 715 644 650 708 q 781 463 781 581 l 781 0 l 544 0 l 544 400 q 446 528 544 528 q 356 489 390 528 q 321 368 321 450 l 321 0 l 85 0 z "},"Ṇ":{"ha":1029,"x_min":101,"x_max":928,"o":"m 928 917 l 928 0 l 663 0 l 378 496 l 308 632 l 307 632 l 313 463 l 313 0 l 101 0 l 101 917 l 367 917 l 651 421 l 721 285 l 722 285 l 717 454 l 717 917 l 928 917 m 532 -308 q 406 -197 406 -308 q 532 -85 406 -85 q 661 -197 661 -85 q 532 -308 661 -308 z "},"ṇ":{"ha":861,"x_min":85,"x_max":781,"o":"m 85 0 l 85 694 l 296 694 l 303 554 q 540 708 367 708 q 715 644 650 708 q 781 463 781 581 l 781 0 l 544 0 l 544 400 q 446 528 544 528 q 356 489 390 528 q 321 368 321 450 l 321 0 l 85 0 m 443 -308 q 315 -197 315 -308 q 443 -85 315 -85 q 572 -197 572 -85 q 443 -308 572 -308 z "},"Ṉ":{"ha":1029,"x_min":101,"x_max":928,"o":"m 928 917 l 928 0 l 663 0 l 378 496 l 308 632 l 307 632 l 313 463 l 313 0 l 101 0 l 101 917 l 367 917 l 651 421 l 721 285 l 722 285 l 717 454 l 717 917 l 928 917 m 785 -96 l 785 -242 l 279 -242 l 279 -96 l 785 -96 z "},"ṉ":{"ha":861,"x_min":85,"x_max":781,"o":"m 85 0 l 85 694 l 296 694 l 303 554 q 540 708 367 708 q 715 644 650 708 q 781 463 781 581 l 781 0 l 544 0 l 544 400 q 446 528 544 528 q 356 489 390 528 q 321 368 321 450 l 321 0 l 85 0 m 696 -96 l 696 -242 l 190 -242 l 190 -96 l 696 -96 z "},"Ṍ":{"ha":1024,"x_min":63,"x_max":961,"o":"m 497 1517 l 707 1517 l 583 1289 l 411 1289 l 497 1517 m 788 1219 q 735 1055 782 1111 q 615 999 688 999 q 534 1019 571 999 q 470 1058 497 1039 q 422 1078 443 1078 q 369 1000 378 1078 l 236 1000 q 289 1165 240 1108 q 417 1221 338 1221 q 494 1201 460 1221 q 555 1161 529 1181 q 601 1142 581 1142 q 654 1219 643 1142 l 788 1219 m 183 805 q 243 868 183 805 q 513 931 303 931 q 842 805 722 931 q 961 458 961 679 q 842 112 961 238 q 513 -14 722 -14 q 183 112 303 -14 q 63 458 63 238 q 183 805 63 679 m 665 671 q 639 707 665 671 q 513 743 613 743 q 360 671 413 743 q 307 458 307 599 q 360 246 307 318 q 513 174 413 174 q 665 246 613 174 q 717 458 717 318 q 665 671 717 599 z "},"ṍ":{"ha":832,"x_min":49,"x_max":783,"o":"m 400 1294 l 611 1294 l 488 1067 l 315 1067 l 400 1294 m 690 997 q 639 833 686 890 q 519 776 592 776 q 438 797 475 776 q 374 836 401 817 q 326 856 347 856 q 274 778 282 856 l 140 778 q 192 942 144 886 q 321 999 240 999 q 399 978 364 999 q 458 939 433 958 q 504 919 483 919 q 557 997 549 919 l 690 997 m 415 708 q 683 612 582 708 q 783 347 783 515 q 683 83 783 179 q 415 -14 582 -14 q 149 83 250 -14 q 49 347 49 179 q 149 612 49 515 q 415 708 250 708 m 415 540 q 286 347 286 540 q 415 154 286 154 q 546 347 546 154 q 415 540 546 540 z "},"Ṏ":{"ha":1024,"x_min":63,"x_max":961,"o":"m 357 1494 q 444 1466 413 1494 q 476 1388 476 1438 q 445 1308 476 1336 q 357 1279 414 1279 q 272 1308 303 1279 q 240 1388 240 1336 q 272 1466 240 1438 q 357 1494 303 1494 m 663 1494 q 750 1466 718 1494 q 782 1388 782 1438 q 751 1308 782 1336 q 663 1279 719 1279 q 577 1308 608 1279 q 546 1388 546 1336 q 577 1466 546 1438 q 663 1494 608 1494 m 788 1219 q 735 1055 782 1111 q 615 999 688 999 q 534 1019 571 999 q 470 1058 497 1039 q 422 1078 443 1078 q 369 1000 378 1078 l 236 1000 q 289 1165 240 1108 q 417 1221 338 1221 q 494 1201 460 1221 q 555 1161 529 1181 q 601 1142 581 1142 q 654 1219 643 1142 l 788 1219 m 183 805 q 243 868 183 805 q 513 931 303 931 q 842 805 722 931 q 961 458 961 679 q 842 112 961 238 q 513 -14 722 -14 q 183 112 303 -14 q 63 458 63 238 q 183 805 63 679 m 665 671 q 639 707 665 671 q 513 743 613 743 q 360 671 413 743 q 307 458 307 599 q 360 246 307 318 q 513 174 413 174 q 665 246 613 174 q 717 458 717 318 q 665 671 717 599 z "},"ṏ":{"ha":832,"x_min":49,"x_max":783,"o":"m 261 1272 q 349 1244 317 1272 q 381 1165 381 1215 q 349 1085 381 1114 q 261 1057 318 1057 q 176 1085 207 1057 q 144 1165 144 1114 q 176 1244 144 1215 q 261 1272 207 1272 m 481 1244 q 496 1258 481 1244 q 567 1272 511 1272 q 654 1244 622 1272 q 686 1165 686 1215 q 655 1085 686 1114 q 567 1057 624 1057 q 481 1085 511 1057 q 450 1165 450 1114 q 481 1244 450 1215 m 690 997 q 639 833 686 890 q 519 776 592 776 q 438 797 475 776 q 374 836 401 817 q 326 856 347 856 q 274 778 282 856 l 140 778 q 192 942 144 886 q 321 999 240 999 q 399 978 364 999 q 458 939 433 958 q 504 919 483 919 q 557 997 549 919 l 690 997 m 415 708 q 683 612 582 708 q 783 347 783 515 q 683 83 783 179 q 415 -14 582 -14 q 149 83 250 -14 q 49 347 49 179 q 149 612 49 515 q 415 708 250 708 m 415 540 q 286 347 286 540 q 415 154 286 154 q 546 347 546 154 q 415 540 546 540 z "},"Ṑ":{"ha":1024,"x_min":63,"x_max":961,"o":"m 526 1469 l 611 1242 l 440 1242 l 317 1469 l 526 1469 m 765 1158 l 765 1013 l 260 1013 l 260 1158 l 765 1158 m 183 805 q 243 868 183 805 q 513 931 303 931 q 842 805 722 931 q 961 458 961 679 q 842 112 961 238 q 513 -14 722 -14 q 183 112 303 -14 q 63 458 63 238 q 183 805 63 679 m 665 671 q 639 707 665 671 q 513 743 613 743 q 360 671 413 743 q 307 458 307 599 q 360 246 307 318 q 513 174 413 174 q 665 246 613 174 q 717 458 717 318 q 665 671 717 599 z "},"ṑ":{"ha":832,"x_min":49,"x_max":783,"o":"m 431 1247 l 515 1019 l 344 1019 l 221 1247 l 431 1247 m 668 936 l 668 790 l 163 790 l 163 936 l 668 936 m 415 708 q 683 612 582 708 q 783 347 783 515 q 683 83 783 179 q 415 -14 582 -14 q 149 83 250 -14 q 49 347 49 179 q 149 612 49 515 q 415 708 250 708 m 415 540 q 286 347 286 540 q 415 154 286 154 q 546 347 546 154 q 415 540 546 540 z "},"Ṓ":{"ha":1024,"x_min":63,"x_max":961,"o":"m 497 1469 l 707 1469 l 583 1242 l 413 1242 l 497 1469 m 765 1158 l 765 1013 l 260 1013 l 260 1158 l 765 1158 m 183 805 q 243 868 183 805 q 513 931 303 931 q 842 805 722 931 q 961 458 961 679 q 842 112 961 238 q 513 -14 722 -14 q 183 112 303 -14 q 63 458 63 238 q 183 805 63 679 m 665 671 q 639 707 665 671 q 513 743 613 743 q 360 671 413 743 q 307 458 307 599 q 360 246 307 318 q 513 174 413 174 q 665 246 613 174 q 717 458 717 318 q 665 671 717 599 z "},"ṓ":{"ha":832,"x_min":49,"x_max":783,"o":"m 401 1247 l 611 1247 l 488 1019 l 317 1019 l 401 1247 m 668 936 l 668 790 l 163 790 l 163 936 l 668 936 m 415 708 q 683 612 582 708 q 783 347 783 515 q 683 83 783 179 q 415 -14 582 -14 q 149 83 250 -14 q 49 347 49 179 q 149 612 49 515 q 415 708 250 708 m 415 540 q 286 347 286 540 q 415 154 286 154 q 546 347 546 154 q 415 540 546 540 z "},"Ṛ":{"ha":957,"x_min":101,"x_max":939,"o":"m 539 917 q 793 841 701 917 q 885 635 885 765 q 700 369 885 432 l 939 0 l 675 0 l 479 335 l 336 335 l 336 0 l 101 0 l 101 917 l 539 917 m 506 504 q 644 621 644 504 q 506 736 644 736 l 336 736 l 336 504 l 506 504 m 504 -308 q 378 -197 378 -308 q 504 -85 378 -85 q 633 -197 633 -85 q 504 -308 633 -308 z "},"ṛ":{"ha":597,"x_min":75,"x_max":589,"o":"m 85 0 l 85 694 l 293 694 l 303 544 q 514 708 358 708 q 589 693 561 708 l 565 499 q 478 511 531 511 q 365 469 410 511 q 321 350 321 428 l 321 0 l 85 0 m 203 -308 q 75 -197 75 -308 q 203 -85 75 -85 q 332 -197 332 -85 q 203 -308 332 -308 z "},"Ṟ":{"ha":957,"x_min":101,"x_max":939,"o":"m 539 917 q 793 841 701 917 q 885 635 885 765 q 700 369 885 432 l 939 0 l 675 0 l 479 335 l 336 335 l 336 0 l 101 0 l 101 917 l 539 917 m 506 504 q 644 621 644 504 q 506 736 644 736 l 336 736 l 336 504 l 506 504 m 757 -96 l 757 -242 l 251 -242 l 251 -96 l 757 -96 z "},"ṟ":{"ha":597,"x_min":7,"x_max":589,"o":"m 85 0 l 85 694 l 293 694 l 303 544 q 514 708 358 708 q 589 693 561 708 l 565 499 q 478 511 531 511 q 365 469 410 511 q 321 350 321 428 l 321 0 l 85 0 m 397 -96 l 397 -242 l 7 -242 l 7 -96 l 397 -96 z "},"Ṡ":{"ha":896,"x_min":22,"x_max":856,"o":"m 457 1225 q 586 1114 586 1225 q 457 1001 586 1001 q 331 1114 331 1001 q 457 1225 331 1225 m 460 931 q 856 775 711 931 l 740 621 q 456 746 619 746 q 313 660 313 746 q 428 576 313 603 l 582 542 q 783 449 719 511 q 847 286 847 388 q 740 65 847 143 q 460 -14 633 -14 q 208 31 324 -14 q 22 150 92 75 l 138 310 q 278 210 190 249 q 457 171 365 171 q 601 256 601 171 q 579 306 601 286 q 501 339 557 326 l 332 376 q 64 632 64 433 q 170 847 64 764 q 460 931 276 931 z "},"ṡ":{"ha":742,"x_min":35,"x_max":703,"o":"m 381 1003 q 510 892 510 1003 q 381 779 510 779 q 253 892 253 779 q 381 1003 253 1003 m 376 -14 q 35 118 156 -14 l 146 249 q 367 144 226 144 q 465 196 465 144 q 451 227 465 215 q 396 247 436 239 l 299 267 q 114 344 169 293 q 58 482 58 396 q 143 642 58 575 q 385 708 228 708 q 699 589 599 708 l 586 461 q 500 526 553 501 q 394 550 447 550 q 293 499 293 550 q 375 444 293 461 l 501 419 q 703 225 703 382 q 618 53 703 119 q 376 -14 533 -14 z "},"Ṣ":{"ha":896,"x_min":22,"x_max":856,"o":"m 460 931 q 856 775 711 931 l 740 621 q 456 746 619 746 q 313 660 313 746 q 428 576 313 603 l 582 542 q 783 449 719 511 q 847 286 847 388 q 740 65 847 143 q 460 -14 633 -14 q 208 31 324 -14 q 22 150 92 75 l 138 310 q 278 210 190 249 q 457 171 365 171 q 601 256 601 171 q 579 306 601 286 q 501 339 557 326 l 332 376 q 64 632 64 433 q 170 847 64 764 q 460 931 276 931 m 451 -308 q 325 -197 325 -308 q 451 -85 325 -85 q 581 -197 581 -85 q 451 -308 581 -308 z "},"ṣ":{"ha":742,"x_min":35,"x_max":703,"o":"m 376 -14 q 35 118 156 -14 l 146 249 q 367 144 226 144 q 465 196 465 144 q 451 227 465 215 q 396 247 436 239 l 299 267 q 114 344 169 293 q 58 482 58 396 q 143 642 58 575 q 385 708 228 708 q 699 589 599 708 l 586 461 q 500 526 553 501 q 394 550 447 550 q 293 499 293 550 q 375 444 293 461 l 501 419 q 703 225 703 382 q 618 53 703 119 q 376 -14 533 -14 m 376 -308 q 250 -197 250 -308 q 376 -85 250 -85 q 506 -197 506 -85 q 376 -308 506 -308 z "},"Ṥ":{"ha":896,"x_min":22,"x_max":856,"o":"m 457 1525 q 586 1413 586 1525 q 457 1301 586 1301 q 331 1413 331 1301 q 457 1525 331 1525 m 442 1231 l 653 1231 l 529 1004 l 357 1004 l 442 1231 m 460 931 q 856 775 711 931 l 740 621 q 456 746 619 746 q 313 660 313 746 q 428 576 313 603 l 582 542 q 783 449 719 511 q 847 286 847 388 q 740 65 847 143 q 460 -14 633 -14 q 208 31 324 -14 q 22 150 92 75 l 138 310 q 278 210 190 249 q 457 171 365 171 q 601 256 601 171 q 579 306 601 286 q 501 339 557 326 l 332 376 q 64 632 64 433 q 170 847 64 764 q 460 931 276 931 z "},"ṥ":{"ha":742,"x_min":35,"x_max":703,"o":"m 381 1313 q 510 1201 510 1313 q 381 1089 510 1089 q 253 1201 253 1089 q 381 1313 253 1313 m 365 1025 l 585 1025 l 444 785 l 274 785 l 365 1025 m 376 -14 q 35 118 156 -14 l 146 249 q 367 144 226 144 q 465 196 465 144 q 451 227 465 215 q 396 247 436 239 l 299 267 q 114 344 169 293 q 58 482 58 396 q 143 642 58 575 q 385 708 228 708 q 699 589 599 708 l 586 461 q 500 526 553 501 q 394 550 447 550 q 293 499 293 550 q 375 444 293 461 l 501 419 q 703 225 703 382 q 618 53 703 119 q 376 -14 533 -14 z "},"Ṧ":{"ha":896,"x_min":22,"x_max":856,"o":"m 457 1514 q 586 1401 586 1514 q 457 1290 586 1290 q 331 1401 331 1290 q 363 1485 331 1456 q 457 1514 396 1514 m 711 1231 l 572 1004 l 342 1004 l 203 1231 l 367 1231 l 457 1103 l 547 1231 l 711 1231 m 460 931 q 856 775 711 931 l 740 621 q 456 746 619 746 q 313 660 313 746 q 428 576 313 603 l 582 542 q 783 449 719 511 q 847 286 847 388 q 740 65 847 143 q 460 -14 633 -14 q 208 31 324 -14 q 22 150 92 75 l 138 310 q 278 210 190 249 q 457 171 365 171 q 601 256 601 171 q 579 306 601 286 q 501 339 557 326 l 332 376 q 64 632 64 433 q 170 847 64 764 q 460 931 276 931 z "},"ṧ":{"ha":742,"x_min":35,"x_max":703,"o":"m 381 1296 q 476 1267 443 1296 q 510 1183 510 1238 q 381 1072 510 1072 q 253 1183 253 1072 q 381 1296 253 1296 m 640 1025 l 489 785 l 261 785 l 110 1025 l 279 1025 l 375 901 l 471 1025 l 640 1025 m 376 -14 q 35 118 156 -14 l 146 249 q 367 144 226 144 q 465 196 465 144 q 451 227 465 215 q 396 247 436 239 l 299 267 q 114 344 169 293 q 58 482 58 396 q 143 642 58 575 q 385 708 228 708 q 699 589 599 708 l 586 461 q 500 526 553 501 q 394 550 447 550 q 293 499 293 550 q 375 444 293 461 l 501 419 q 703 225 703 382 q 618 53 703 119 q 376 -14 533 -14 z "},"Ṩ":{"ha":896,"x_min":22,"x_max":856,"o":"m 457 1225 q 586 1114 586 1225 q 457 1001 586 1001 q 331 1114 331 1001 q 457 1225 331 1225 m 460 931 q 856 775 711 931 l 740 621 q 456 746 619 746 q 313 660 313 746 q 428 576 313 603 l 582 542 q 783 449 719 511 q 847 286 847 388 q 740 65 847 143 q 460 -14 633 -14 q 208 31 324 -14 q 22 150 92 75 l 138 310 q 278 210 190 249 q 457 171 365 171 q 601 256 601 171 q 579 306 601 286 q 501 339 557 326 l 332 376 q 64 632 64 433 q 170 847 64 764 q 460 931 276 931 m 451 -308 q 325 -197 325 -308 q 451 -85 325 -85 q 581 -197 581 -85 q 451 -308 581 -308 z "},"ṩ":{"ha":742,"x_min":35,"x_max":703,"o":"m 381 1003 q 510 892 510 1003 q 381 779 510 779 q 253 892 253 779 q 381 1003 253 1003 m 376 -14 q 35 118 156 -14 l 146 249 q 367 144 226 144 q 465 196 465 144 q 451 227 465 215 q 396 247 436 239 l 299 267 q 114 344 169 293 q 58 482 58 396 q 143 642 58 575 q 385 708 228 708 q 699 589 599 708 l 586 461 q 500 526 553 501 q 394 550 447 550 q 293 499 293 550 q 375 444 293 461 l 501 419 q 703 225 703 382 q 618 53 703 119 q 376 -14 533 -14 m 376 -308 q 250 -197 250 -308 q 376 -85 250 -85 q 506 -197 506 -85 q 376 -308 506 -308 z "},"Ṭ":{"ha":907,"x_min":35,"x_max":872,"o":"m 872 917 l 872 732 l 574 732 l 574 0 l 335 0 l 335 732 l 35 732 l 35 917 l 872 917 m 454 -308 q 326 -197 326 -308 q 454 -85 326 -85 q 583 -197 583 -85 q 454 -308 583 -308 z "},"ṭ":{"ha":607,"x_min":19,"x_max":593,"o":"m 582 694 l 582 526 l 375 526 l 375 247 q 467 154 375 154 q 568 185 525 154 l 593 39 q 397 -14 517 -14 q 139 208 140 -14 l 139 526 l 19 526 l 19 694 l 139 694 l 139 850 l 375 915 l 375 694 l 582 694 m 353 -308 q 226 -197 226 -308 q 353 -85 226 -85 q 482 -197 482 -85 q 353 -308 482 -308 z "},"Ṯ":{"ha":907,"x_min":35,"x_max":872,"o":"m 872 917 l 872 732 l 574 732 l 574 0 l 335 0 l 335 732 l 35 732 l 35 917 l 872 917 m 707 -96 l 707 -242 l 201 -242 l 201 -96 l 707 -96 z "},"ṯ":{"ha":607,"x_min":19,"x_max":606,"o":"m 582 694 l 582 526 l 375 526 l 375 247 q 467 154 375 154 q 568 185 525 154 l 593 39 q 397 -14 517 -14 q 139 208 140 -14 l 139 526 l 19 526 l 19 694 l 139 694 l 139 850 l 375 915 l 375 694 l 582 694 m 606 -96 l 606 -242 l 100 -242 l 100 -96 l 606 -96 z "},"Ṹ":{"ha":986,"x_min":83,"x_max":903,"o":"m 478 1503 l 688 1503 l 564 1275 l 393 1275 l 478 1503 m 768 1206 q 717 1042 764 1099 q 597 985 669 985 q 516 1005 553 985 q 452 1044 479 1025 q 404 1064 425 1064 q 350 986 361 1064 l 217 986 q 270 1151 222 1094 q 399 1207 318 1207 q 476 1187 442 1207 q 536 1147 511 1167 q 582 1128 561 1128 q 635 1206 626 1128 l 768 1206 m 903 917 l 903 374 q 493 -14 903 -14 q 83 374 83 -14 l 83 917 l 324 917 l 324 369 q 493 174 324 174 q 664 369 664 174 l 664 917 l 903 917 z "},"ṹ":{"ha":860,"x_min":81,"x_max":775,"o":"m 408 1289 l 618 1289 l 494 1061 l 324 1061 l 408 1289 m 699 992 q 647 827 693 883 q 526 771 600 771 q 445 791 482 771 q 381 831 408 811 q 333 850 354 850 q 281 772 292 850 l 147 772 q 201 937 153 881 q 328 993 249 993 q 438 953 385 993 q 513 914 492 914 q 565 992 554 914 l 699 992 m 319 -14 q 144 45 207 -14 q 81 231 81 104 l 81 694 l 317 694 l 317 286 q 342 194 317 222 q 418 167 367 167 q 505 206 471 167 q 539 322 539 244 l 539 694 l 775 694 l 775 0 l 564 0 l 557 131 q 319 -14 493 -14 z "},"Ṻ":{"ha":986,"x_min":83,"x_max":903,"o":"m 339 1433 q 426 1405 394 1433 q 458 1326 458 1376 q 427 1247 458 1275 q 339 1218 396 1218 q 253 1247 285 1218 q 222 1326 222 1275 q 253 1405 222 1376 q 339 1433 285 1433 m 644 1433 q 732 1405 700 1433 q 764 1326 764 1376 q 733 1247 764 1275 q 644 1218 701 1218 q 559 1247 590 1218 q 528 1326 528 1275 q 559 1405 528 1376 q 644 1433 590 1433 m 746 1144 l 746 999 l 240 999 l 240 1144 l 746 1144 m 903 917 l 903 374 q 493 -14 903 -14 q 83 374 83 -14 l 83 917 l 324 917 l 324 369 q 493 174 324 174 q 664 369 664 174 l 664 917 l 903 917 z "},"ṻ":{"ha":860,"x_min":81,"x_max":775,"o":"m 183 1191 q 199 1205 183 1191 q 269 1219 214 1219 q 357 1191 325 1219 q 389 1113 389 1163 q 358 1033 389 1061 q 269 1004 326 1004 q 183 1033 214 1004 q 153 1113 153 1061 q 183 1191 153 1163 m 489 1191 q 504 1205 489 1191 q 575 1219 519 1219 q 663 1191 631 1219 q 694 1113 694 1163 q 663 1033 694 1061 q 575 1004 632 1004 q 489 1033 519 1004 q 458 1113 458 1061 q 489 1191 458 1163 m 676 931 l 676 785 l 171 785 l 171 931 l 676 931 m 319 -14 q 144 45 207 -14 q 81 231 81 104 l 81 694 l 317 694 l 317 286 q 342 194 317 222 q 418 167 367 167 q 505 206 471 167 q 539 322 539 244 l 539 694 l 775 694 l 775 0 l 564 0 l 557 131 q 319 -14 493 -14 z "},"Ẁ":{"ha":1385,"x_min":14,"x_max":1371,"o":"m 707 1231 l 792 1004 l 621 1004 l 497 1231 l 707 1231 m 278 0 l 14 917 l 268 917 l 424 193 l 588 917 l 804 917 l 972 194 l 1125 917 l 1371 917 l 1106 0 l 846 0 l 738 444 l 696 668 l 693 668 l 653 444 l 546 0 l 278 0 z "},"ẁ":{"ha":1250,"x_min":7,"x_max":1242,"o":"m 625 1025 l 717 785 l 546 785 l 406 1025 l 625 1025 m 994 694 l 1242 694 l 1032 0 l 749 0 l 622 426 l 500 0 l 218 0 l 7 694 l 256 694 l 372 182 l 508 694 l 742 694 l 876 182 l 994 694 z "},"Ẃ":{"ha":1385,"x_min":14,"x_max":1371,"o":"m 678 1231 l 888 1231 l 764 1004 l 593 1004 l 678 1231 m 278 0 l 14 917 l 268 917 l 424 193 l 588 917 l 804 917 l 972 194 l 1125 917 l 1371 917 l 1106 0 l 846 0 l 738 444 l 696 668 l 693 668 l 653 444 l 546 0 l 278 0 z "},"ẃ":{"ha":1250,"x_min":7,"x_max":1242,"o":"m 611 1025 l 829 1025 l 689 785 l 518 785 l 611 1025 m 994 694 l 1242 694 l 1032 0 l 749 0 l 622 426 l 500 0 l 218 0 l 7 694 l 256 694 l 372 182 l 508 694 l 742 694 l 876 182 l 994 694 z "},"Ẅ":{"ha":1385,"x_min":14,"x_max":1371,"o":"m 453 1180 q 468 1194 453 1180 q 539 1208 483 1208 q 626 1180 594 1208 q 657 1101 657 1151 q 626 1023 657 1051 q 539 994 594 994 q 453 1023 483 994 q 422 1101 422 1051 q 453 1180 422 1151 m 843 1208 q 931 1180 899 1208 q 963 1101 963 1151 q 931 1023 963 1051 q 843 994 899 994 q 758 1023 789 994 q 726 1101 726 1051 q 758 1180 726 1151 q 843 1208 789 1208 m 278 0 l 14 917 l 268 917 l 424 193 l 588 917 l 804 917 l 972 194 l 1125 917 l 1371 917 l 1106 0 l 846 0 l 738 444 l 696 668 l 693 668 l 653 444 l 546 0 l 278 0 z "},"ẅ":{"ha":1250,"x_min":7,"x_max":1242,"o":"m 385 958 q 400 972 385 958 q 471 986 415 986 q 558 958 526 986 q 590 879 590 929 q 558 801 590 829 q 471 772 526 772 q 385 801 415 772 q 354 879 354 829 q 385 958 354 929 m 690 958 q 706 972 690 958 q 776 986 721 986 q 864 958 832 986 q 896 879 896 929 q 864 801 896 829 q 776 772 832 772 q 690 801 721 772 q 660 879 660 829 q 690 958 660 929 m 994 694 l 1242 694 l 1032 0 l 749 0 l 622 426 l 500 0 l 218 0 l 7 694 l 256 694 l 372 182 l 508 694 l 742 694 l 876 182 l 994 694 z "},"Ẏ":{"ha":913,"x_min":13,"x_max":899,"o":"m 456 1214 q 585 1103 585 1214 q 456 990 585 990 q 329 1103 329 990 q 456 1214 329 1214 m 899 917 l 575 335 l 575 0 l 336 0 l 336 335 l 13 917 l 260 917 l 389 665 l 457 513 l 526 665 l 656 917 l 899 917 z "},"ẏ":{"ha":782,"x_min":-4,"x_max":783,"o":"m 413 997 q 542 886 542 997 q 413 774 542 774 q 286 886 286 774 q 413 997 286 997 m 783 694 l 531 0 q 397 -232 474 -165 q 188 -299 319 -299 q -4 -251 72 -299 l 43 -92 q 167 -125 88 -125 q 235 -110 210 -125 q 274 -58 260 -96 l 292 -15 l 211 174 l 3 694 l 263 694 l 369 299 l 403 151 l 442 304 l 549 694 l 783 694 z "},"Ẓ":{"ha":881,"x_min":51,"x_max":838,"o":"m 838 181 l 838 0 l 51 0 l 51 172 l 564 736 l 61 736 l 61 917 l 821 917 l 821 744 l 311 181 l 838 181 m 425 -308 q 299 -197 299 -308 q 425 -85 299 -85 q 554 -197 554 -85 q 425 -308 554 -308 z "},"ẓ":{"ha":717,"x_min":49,"x_max":672,"o":"m 49 0 l 49 144 l 325 458 l 399 532 l 289 529 l 51 529 l 51 694 l 660 694 l 660 550 l 388 239 l 311 163 l 433 165 l 672 165 l 672 0 l 49 0 m 349 -308 q 222 -197 222 -308 q 349 -85 222 -85 q 478 -197 478 -85 q 349 -308 478 -308 z "},"ẗ":{"ha":607,"x_min":-12,"x_max":593,"o":"m 18 1169 q 33 1183 18 1169 q 104 1197 49 1197 q 191 1169 160 1197 q 222 1090 222 1140 q 191 1012 222 1040 q 104 983 160 983 q 18 1012 49 983 q -12 1090 -12 1040 q 18 1169 -12 1140 m 408 1197 q 496 1169 464 1197 q 528 1090 528 1140 q 496 1012 528 1040 q 408 983 464 983 q 323 1012 354 983 q 292 1090 292 1040 q 323 1169 292 1140 q 408 1197 354 1197 m 582 694 l 582 526 l 375 526 l 375 247 q 467 154 375 154 q 568 185 525 154 l 593 39 q 397 -14 517 -14 q 139 208 140 -14 l 139 526 l 19 526 l 19 694 l 139 694 l 139 850 l 375 915 l 375 694 l 582 694 z "},"ẞ":{"ha":979,"x_min":88,"x_max":951,"o":"m 654 -7 q 400 68 479 -7 l 465 213 q 607 164 521 164 q 697 194 664 164 q 729 271 729 224 q 603 371 729 371 l 467 371 l 467 503 l 671 736 l 506 736 q 374 685 424 736 q 325 547 325 635 l 325 0 l 88 0 l 88 582 q 189 827 88 738 q 464 917 290 917 l 899 917 l 899 739 l 688 501 l 711 501 q 881 440 810 501 q 951 265 951 379 q 869 64 951 135 q 654 -7 788 -7 z "},"Ạ":{"ha":940,"x_min":6,"x_max":935,"o":"m 935 0 l 689 0 l 625 207 l 311 207 l 246 0 l 6 0 l 328 917 l 614 917 l 935 0 m 356 369 l 581 369 l 468 740 l 356 369 m 469 -308 q 343 -197 343 -308 q 469 -85 343 -85 q 599 -197 599 -85 q 469 -308 599 -308 z "},"ạ":{"ha":804,"x_min":44,"x_max":796,"o":"m 472 440 q 445 517 472 489 q 372 546 418 546 q 249 442 271 546 l 49 489 q 153 650 68 592 q 386 708 239 708 q 623 640 539 708 q 707 444 707 572 l 707 190 q 756 136 707 136 q 796 142 781 136 l 782 7 q 681 -12 740 -12 q 504 92 538 -12 q 415 13 476 40 q 278 -14 353 -14 q 107 35 169 -14 q 44 178 44 85 q 232 371 44 332 l 472 421 l 472 440 m 297 247 q 288 239 297 247 q 278 200 278 231 q 299 154 278 169 q 353 139 319 139 q 438 169 404 139 q 472 257 472 199 l 472 296 l 360 272 q 297 247 317 264 m 390 -308 q 264 -197 264 -308 q 390 -85 264 -85 q 519 -197 519 -85 q 390 -308 519 -308 z "},"Ả":{"ha":940,"x_min":6,"x_max":935,"o":"m 471 972 l 419 1042 q 492 1115 492 1072 q 479 1147 492 1135 q 444 1160 467 1160 q 390 1121 410 1160 l 283 1174 q 347 1256 300 1226 q 463 1286 394 1286 q 580 1248 532 1286 q 628 1144 628 1210 q 583 1034 628 1076 q 471 972 538 992 m 935 0 l 689 0 l 625 207 l 311 207 l 246 0 l 6 0 l 328 917 l 614 917 l 935 0 m 356 369 l 581 369 l 468 740 l 356 369 z "},"ả":{"ha":804,"x_min":44,"x_max":796,"o":"m 379 756 l 328 828 q 403 903 403 858 q 354 949 403 949 q 300 908 319 949 l 192 961 q 256 1046 208 1015 q 372 1076 304 1076 q 490 1038 442 1076 q 539 932 539 999 q 379 756 539 808 m 472 440 q 445 517 472 489 q 372 546 418 546 q 249 442 271 546 l 49 489 q 153 650 68 592 q 386 708 239 708 q 623 640 539 708 q 707 444 707 572 l 707 190 q 756 136 707 136 q 796 142 781 136 l 782 7 q 681 -12 740 -12 q 504 92 538 -12 q 415 13 476 40 q 278 -14 353 -14 q 107 35 169 -14 q 44 178 44 85 q 232 371 44 332 l 472 421 l 472 440 m 297 247 q 288 239 297 247 q 278 200 278 231 q 299 154 278 169 q 353 139 319 139 q 438 169 404 139 q 472 257 472 199 l 472 296 l 360 272 q 297 247 317 264 z "},"Ấ":{"ha":940,"x_min":6,"x_max":942,"o":"m 751 1347 l 942 1347 l 829 1142 l 675 1142 l 751 1347 m 719 997 l 560 997 l 469 1113 l 381 997 l 219 997 l 363 1224 l 578 1224 l 719 997 m 935 0 l 689 0 l 625 207 l 311 207 l 246 0 l 6 0 l 328 917 l 614 917 l 935 0 m 356 369 l 581 369 l 468 740 l 356 369 z "},"ấ":{"ha":804,"x_min":44,"x_max":856,"o":"m 667 1125 l 856 1125 l 744 919 l 590 919 l 667 1125 m 635 775 l 474 775 l 385 890 l 294 775 l 135 775 l 276 1001 l 492 1001 l 635 775 m 472 440 q 445 517 472 489 q 372 546 418 546 q 249 442 271 546 l 49 489 q 153 650 68 592 q 386 708 239 708 q 623 640 539 708 q 707 444 707 572 l 707 190 q 756 136 707 136 q 796 142 781 136 l 782 7 q 681 -12 740 -12 q 504 92 538 -12 q 415 13 476 40 q 278 -14 353 -14 q 107 35 169 -14 q 44 178 44 85 q 232 371 44 332 l 472 421 l 472 440 m 297 247 q 288 239 297 247 q 278 200 278 231 q 299 154 278 169 q 353 139 319 139 q 438 169 404 139 q 472 257 472 199 l 472 296 l 360 272 q 297 247 317 264 z "},"Ầ":{"ha":940,"x_min":6,"x_max":935,"o":"m 779 1347 l 856 1142 l 701 1142 l 589 1347 l 779 1347 m 719 997 l 560 997 l 469 1113 l 381 997 l 219 997 l 363 1224 l 578 1224 l 719 997 m 935 0 l 689 0 l 625 207 l 311 207 l 246 0 l 6 0 l 328 917 l 614 917 l 935 0 m 356 369 l 581 369 l 468 740 l 356 369 z "},"ầ":{"ha":804,"x_min":44,"x_max":796,"o":"m 693 1125 l 769 919 l 615 919 l 504 1125 l 693 1125 m 635 775 l 474 775 l 385 890 l 294 775 l 135 775 l 276 1001 l 492 1001 l 635 775 m 472 440 q 445 517 472 489 q 372 546 418 546 q 249 442 271 546 l 49 489 q 153 650 68 592 q 386 708 239 708 q 623 640 539 708 q 707 444 707 572 l 707 190 q 756 136 707 136 q 796 142 781 136 l 782 7 q 681 -12 740 -12 q 504 92 538 -12 q 415 13 476 40 q 278 -14 353 -14 q 107 35 169 -14 q 44 178 44 85 q 232 371 44 332 l 472 421 l 472 440 m 297 247 q 288 239 297 247 q 278 200 278 231 q 299 154 278 169 q 353 139 319 139 q 438 169 404 139 q 472 257 472 199 l 472 296 l 360 272 q 297 247 317 264 z "},"Ẩ":{"ha":940,"x_min":6,"x_max":935,"o":"m 715 1119 l 664 1189 q 736 1263 736 1219 q 724 1294 736 1282 q 689 1307 711 1307 q 635 1268 654 1307 l 528 1321 q 592 1403 544 1374 q 707 1433 639 1433 q 824 1395 776 1433 q 872 1292 872 1357 q 827 1181 872 1224 q 715 1119 782 1139 m 719 997 l 560 997 l 469 1113 l 381 997 l 219 997 l 363 1224 l 578 1224 l 719 997 m 935 0 l 689 0 l 625 207 l 311 207 l 246 0 l 6 0 l 328 917 l 614 917 l 935 0 m 356 369 l 581 369 l 468 740 l 356 369 z "},"ẩ":{"ha":804,"x_min":44,"x_max":796,"o":"m 631 897 l 579 967 q 650 1040 650 999 q 638 1072 650 1060 q 603 1085 625 1085 q 550 1046 567 1085 l 442 1099 q 506 1181 458 1151 q 621 1211 553 1211 q 738 1173 690 1211 q 786 1069 786 1135 q 741 959 786 1001 q 631 897 696 917 m 635 775 l 474 775 l 385 890 l 294 775 l 135 775 l 276 1001 l 492 1001 l 635 775 m 472 440 q 445 517 472 489 q 372 546 418 546 q 249 442 271 546 l 49 489 q 153 650 68 592 q 386 708 239 708 q 623 640 539 708 q 707 444 707 572 l 707 190 q 756 136 707 136 q 796 142 781 136 l 782 7 q 681 -12 740 -12 q 504 92 538 -12 q 415 13 476 40 q 278 -14 353 -14 q 107 35 169 -14 q 44 178 44 85 q 232 371 44 332 l 472 421 l 472 440 m 297 247 q 288 239 297 247 q 278 200 278 231 q 299 154 278 169 q 353 139 319 139 q 438 169 404 139 q 472 257 472 199 l 472 296 l 360 272 q 297 247 317 264 z "},"Ẫ":{"ha":940,"x_min":6,"x_max":935,"o":"m 725 1458 q 677 1308 721 1360 q 567 1257 633 1257 q 459 1293 511 1257 q 388 1329 407 1329 q 339 1260 349 1329 l 215 1260 q 265 1410 221 1360 q 383 1461 310 1461 q 456 1443 425 1461 q 510 1407 488 1425 q 553 1389 533 1389 q 601 1458 593 1389 l 725 1458 m 719 997 l 560 997 l 469 1113 l 381 997 l 219 997 l 363 1224 l 578 1224 l 719 997 m 935 0 l 689 0 l 625 207 l 311 207 l 246 0 l 6 0 l 328 917 l 614 917 l 935 0 m 356 369 l 581 369 l 468 740 l 356 369 z "},"ẫ":{"ha":804,"x_min":44,"x_max":796,"o":"m 639 1236 q 591 1086 635 1138 q 481 1035 547 1035 q 404 1053 438 1035 q 346 1089 371 1071 q 301 1107 321 1107 q 253 1038 263 1107 l 129 1038 q 180 1188 135 1138 q 297 1239 225 1239 q 370 1221 339 1239 q 424 1185 401 1203 q 467 1167 447 1167 q 515 1236 507 1167 l 639 1236 m 635 775 l 474 775 l 385 890 l 294 775 l 135 775 l 276 1001 l 492 1001 l 635 775 m 472 440 q 445 517 472 489 q 372 546 418 546 q 249 442 271 546 l 49 489 q 153 650 68 592 q 386 708 239 708 q 623 640 539 708 q 707 444 707 572 l 707 190 q 756 136 707 136 q 796 142 781 136 l 782 7 q 681 -12 740 -12 q 504 92 538 -12 q 415 13 476 40 q 278 -14 353 -14 q 107 35 169 -14 q 44 178 44 85 q 232 371 44 332 l 472 421 l 472 440 m 297 247 q 288 239 297 247 q 278 200 278 231 q 299 154 278 169 q 353 139 319 139 q 438 169 404 139 q 472 257 472 199 l 472 296 l 360 272 q 297 247 317 264 z "},"Ậ":{"ha":940,"x_min":6,"x_max":935,"o":"m 725 1004 l 560 1004 l 469 1132 l 379 1004 l 215 1004 l 354 1231 l 585 1231 l 725 1004 m 935 0 l 689 0 l 625 207 l 311 207 l 246 0 l 6 0 l 328 917 l 614 917 l 935 0 m 356 369 l 581 369 l 468 740 l 356 369 m 469 -308 q 343 -197 343 -308 q 469 -85 343 -85 q 599 -197 599 -85 q 469 -308 599 -308 z "},"ậ":{"ha":804,"x_min":44,"x_max":796,"o":"m 650 776 l 479 776 l 385 899 l 289 776 l 118 776 l 269 1017 l 499 1017 l 650 776 m 472 440 q 445 517 472 489 q 372 546 418 546 q 249 442 271 546 l 49 489 q 153 650 68 592 q 386 708 239 708 q 623 640 539 708 q 707 444 707 572 l 707 190 q 756 136 707 136 q 796 142 781 136 l 782 7 q 681 -12 740 -12 q 504 92 538 -12 q 415 13 476 40 q 278 -14 353 -14 q 107 35 169 -14 q 44 178 44 85 q 232 371 44 332 l 472 421 l 472 440 m 297 247 q 288 239 297 247 q 278 200 278 231 q 299 154 278 169 q 353 139 319 139 q 438 169 404 139 q 472 257 472 199 l 472 296 l 360 272 q 297 247 317 264 m 390 -308 q 264 -197 264 -308 q 390 -85 264 -85 q 519 -197 519 -85 q 390 -308 519 -308 z "},"Ắ":{"ha":940,"x_min":6,"x_max":935,"o":"m 369 1233 l 443 1432 l 639 1432 l 531 1233 l 369 1233 m 690 1204 q 631 1049 690 1106 q 469 992 572 992 q 309 1049 368 992 q 250 1204 250 1106 l 392 1204 q 469 1115 394 1115 q 547 1204 547 1115 l 690 1204 m 935 0 l 689 0 l 625 207 l 311 207 l 246 0 l 6 0 l 328 917 l 614 917 l 935 0 m 356 369 l 581 369 l 468 740 l 356 369 z "},"ắ":{"ha":804,"x_min":44,"x_max":796,"o":"m 285 1011 l 357 1210 l 554 1210 l 444 1011 l 285 1011 m 604 982 q 545 826 604 883 q 385 769 486 769 q 223 826 282 769 q 164 982 164 883 l 307 982 q 385 893 307 893 q 463 982 460 893 l 604 982 m 472 440 q 445 517 472 489 q 372 546 418 546 q 249 442 271 546 l 49 489 q 153 650 68 592 q 386 708 239 708 q 623 640 539 708 q 707 444 707 572 l 707 190 q 756 136 707 136 q 796 142 781 136 l 782 7 q 681 -12 740 -12 q 504 92 538 -12 q 415 13 476 40 q 278 -14 353 -14 q 107 35 169 -14 q 44 178 44 85 q 232 371 44 332 l 472 421 l 472 440 m 297 247 q 288 239 297 247 q 278 200 278 231 q 299 154 278 169 q 353 139 319 139 q 438 169 404 139 q 472 257 472 199 l 472 296 l 360 272 q 297 247 317 264 z "},"Ằ":{"ha":940,"x_min":6,"x_max":935,"o":"m 569 1233 l 410 1233 l 300 1432 l 497 1432 l 569 1233 m 690 1204 q 631 1049 690 1106 q 469 992 572 992 q 309 1049 368 992 q 250 1204 250 1106 l 392 1204 q 469 1115 394 1115 q 547 1204 547 1115 l 690 1204 m 935 0 l 689 0 l 625 207 l 311 207 l 246 0 l 6 0 l 328 917 l 614 917 l 935 0 m 356 369 l 581 369 l 468 740 l 356 369 z "},"ằ":{"ha":804,"x_min":44,"x_max":796,"o":"m 485 1011 l 324 1011 l 215 1210 l 411 1210 l 485 1011 m 604 982 q 545 826 604 883 q 385 769 486 769 q 223 826 282 769 q 164 982 164 883 l 307 982 q 385 893 307 893 q 463 982 460 893 l 604 982 m 472 440 q 445 517 472 489 q 372 546 418 546 q 249 442 271 546 l 49 489 q 153 650 68 592 q 386 708 239 708 q 623 640 539 708 q 707 444 707 572 l 707 190 q 756 136 707 136 q 796 142 781 136 l 782 7 q 681 -12 740 -12 q 504 92 538 -12 q 415 13 476 40 q 278 -14 353 -14 q 107 35 169 -14 q 44 178 44 85 q 232 371 44 332 l 472 421 l 472 440 m 297 247 q 288 239 297 247 q 278 200 278 231 q 299 154 278 169 q 353 139 319 139 q 438 169 404 139 q 472 257 472 199 l 472 296 l 360 272 q 297 247 317 264 z "},"Ẳ":{"ha":940,"x_min":6,"x_max":935,"o":"m 471 1213 l 422 1278 q 490 1347 490 1307 q 446 1389 490 1389 q 396 1353 413 1389 l 293 1403 q 354 1481 310 1453 q 463 1508 399 1508 q 574 1473 528 1508 q 619 1375 619 1438 q 576 1271 619 1311 q 471 1213 533 1231 m 690 1204 q 631 1049 690 1106 q 469 992 572 992 q 309 1049 368 992 q 250 1204 250 1106 l 392 1204 q 469 1115 394 1115 q 547 1204 547 1115 l 690 1204 m 935 0 l 689 0 l 625 207 l 311 207 l 246 0 l 6 0 l 328 917 l 614 917 l 935 0 m 356 369 l 581 369 l 468 740 l 356 369 z "},"ẳ":{"ha":804,"x_min":44,"x_max":796,"o":"m 386 990 l 338 1056 q 404 1125 404 1085 q 360 1167 404 1167 q 310 1131 326 1167 l 207 1181 q 268 1258 224 1231 q 376 1286 313 1286 q 488 1251 442 1286 q 533 1153 533 1215 q 490 1049 533 1089 q 386 990 447 1008 m 604 982 q 545 826 604 883 q 385 769 486 769 q 223 826 282 769 q 164 982 164 883 l 307 982 q 385 893 307 893 q 463 982 460 893 l 604 982 m 472 440 q 445 517 472 489 q 372 546 418 546 q 249 442 271 546 l 49 489 q 153 650 68 592 q 386 708 239 708 q 623 640 539 708 q 707 444 707 572 l 707 190 q 756 136 707 136 q 796 142 781 136 l 782 7 q 681 -12 740 -12 q 504 92 538 -12 q 415 13 476 40 q 278 -14 353 -14 q 107 35 169 -14 q 44 178 44 85 q 232 371 44 332 l 472 421 l 472 440 m 297 247 q 288 239 297 247 q 278 200 278 231 q 299 154 278 169 q 353 139 319 139 q 438 169 404 139 q 472 257 472 199 l 472 296 l 360 272 q 297 247 317 264 z "},"Ẵ":{"ha":940,"x_min":6,"x_max":935,"o":"m 725 1443 q 677 1293 721 1344 q 567 1242 633 1242 q 460 1278 513 1242 q 389 1314 408 1314 q 340 1244 349 1314 l 217 1244 q 266 1395 221 1344 q 383 1446 311 1446 q 457 1428 425 1446 q 511 1393 489 1411 q 553 1375 533 1375 q 601 1443 593 1375 l 725 1443 m 692 1204 q 632 1049 692 1106 q 471 992 572 992 q 309 1049 368 992 q 250 1204 250 1106 l 393 1204 q 413 1140 393 1164 q 471 1115 433 1115 q 549 1204 546 1115 l 692 1204 m 935 0 l 689 0 l 625 207 l 311 207 l 246 0 l 6 0 l 328 917 l 614 917 l 935 0 m 356 369 l 581 369 l 468 740 l 356 369 z "},"ẵ":{"ha":804,"x_min":44,"x_max":796,"o":"m 639 1221 q 591 1071 635 1122 q 481 1019 547 1019 q 373 1056 425 1019 q 301 1092 321 1092 q 253 1022 263 1092 l 129 1022 q 179 1173 135 1122 q 297 1224 224 1224 q 399 1188 351 1224 q 467 1153 447 1153 q 515 1221 507 1153 l 639 1221 m 604 982 q 545 826 604 883 q 383 769 486 769 q 223 826 282 769 q 164 982 164 883 l 306 982 q 383 893 308 893 q 461 982 461 893 l 604 982 m 472 440 q 445 517 472 489 q 372 546 418 546 q 249 442 271 546 l 49 489 q 153 650 68 592 q 386 708 239 708 q 623 640 539 708 q 707 444 707 572 l 707 190 q 756 136 707 136 q 796 142 781 136 l 782 7 q 681 -12 740 -12 q 504 92 538 -12 q 415 13 476 40 q 278 -14 353 -14 q 107 35 169 -14 q 44 178 44 85 q 232 371 44 332 l 472 421 l 472 440 m 297 247 q 288 239 297 247 q 278 200 278 231 q 299 154 278 169 q 353 139 319 139 q 438 169 404 139 q 472 257 472 199 l 472 296 l 360 272 q 297 247 317 264 z "},"Ặ":{"ha":940,"x_min":6,"x_max":935,"o":"m 704 1219 q 641 1053 704 1114 q 469 993 578 993 q 298 1054 361 993 q 235 1219 235 1115 l 388 1219 q 408 1151 388 1176 q 469 1125 429 1125 q 531 1150 510 1125 q 553 1219 553 1175 l 704 1219 m 935 0 l 689 0 l 625 207 l 311 207 l 246 0 l 6 0 l 328 917 l 614 917 l 935 0 m 356 369 l 581 369 l 468 740 l 356 369 m 469 -308 q 343 -197 343 -308 q 469 -85 343 -85 q 599 -197 599 -85 q 469 -308 599 -308 z "},"ặ":{"ha":804,"x_min":44,"x_max":796,"o":"m 619 997 q 556 832 619 893 q 385 771 493 771 q 213 831 276 771 q 150 997 150 892 l 301 997 q 323 928 301 953 q 385 903 344 903 q 446 928 425 903 q 467 997 467 954 l 619 997 m 472 440 q 445 517 472 489 q 372 546 418 546 q 249 442 271 546 l 49 489 q 153 650 68 592 q 386 708 239 708 q 623 640 539 708 q 707 444 707 572 l 707 190 q 756 136 707 136 q 796 142 781 136 l 782 7 q 681 -12 740 -12 q 504 92 538 -12 q 415 13 476 40 q 278 -14 353 -14 q 107 35 169 -14 q 44 178 44 85 q 232 371 44 332 l 472 421 l 472 440 m 297 247 q 288 239 297 247 q 278 200 278 231 q 299 154 278 169 q 353 139 319 139 q 438 169 404 139 q 472 257 472 199 l 472 296 l 360 272 q 297 247 317 264 m 390 -308 q 264 -197 264 -308 q 390 -85 264 -85 q 519 -197 519 -85 q 390 -308 519 -308 z "},"Ẹ":{"ha":876,"x_min":101,"x_max":833,"o":"m 101 0 l 101 917 l 815 917 l 815 732 l 340 732 l 340 546 l 718 546 l 718 372 l 340 372 l 340 185 l 833 185 l 833 0 l 101 0 m 476 -308 q 350 -197 350 -308 q 476 -85 350 -85 q 606 -197 606 -85 q 476 -308 606 -308 z "},"ẹ":{"ha":804,"x_min":49,"x_max":757,"o":"m 424 -14 q 149 81 250 -14 q 49 347 49 176 q 149 613 49 517 q 413 708 249 708 q 665 617 574 708 q 757 379 757 526 q 751 288 757 332 l 278 288 q 424 153 297 153 q 554 232 521 153 l 743 169 q 626 34 714 82 q 424 -14 538 -14 m 413 543 q 279 414 301 543 l 533 414 q 413 543 518 543 m 414 -308 q 286 -197 286 -308 q 414 -85 286 -85 q 543 -197 543 -85 q 414 -308 543 -308 z "},"Ẻ":{"ha":876,"x_min":101,"x_max":833,"o":"m 460 972 l 408 1042 q 481 1115 481 1072 q 468 1147 481 1135 q 433 1160 456 1160 q 379 1121 399 1160 l 272 1174 q 336 1256 289 1226 q 451 1286 383 1286 q 569 1248 521 1286 q 617 1144 617 1210 q 572 1034 617 1076 q 460 972 526 992 m 101 0 l 101 917 l 815 917 l 815 732 l 340 732 l 340 546 l 718 546 l 718 372 l 340 372 l 340 185 l 833 185 l 833 0 l 101 0 z "},"ẻ":{"ha":804,"x_min":49,"x_max":757,"o":"m 403 756 l 351 828 q 426 903 426 858 q 414 936 426 924 q 379 949 401 949 q 324 908 343 949 l 217 961 q 280 1046 232 1015 q 396 1076 328 1076 q 514 1038 465 1076 q 563 932 563 999 q 403 756 563 807 m 424 -14 q 149 81 250 -14 q 49 347 49 176 q 149 613 49 517 q 413 708 249 708 q 665 617 574 708 q 757 379 757 526 q 751 288 757 332 l 278 288 q 424 153 297 153 q 554 232 521 153 l 743 169 q 626 34 714 82 q 424 -14 538 -14 m 413 543 q 279 414 301 543 l 533 414 q 413 543 518 543 z "},"Ẽ":{"ha":876,"x_min":101,"x_max":833,"o":"m 733 1219 q 682 1056 729 1113 q 563 999 635 999 q 481 1019 518 999 q 417 1058 444 1039 q 369 1078 390 1078 q 317 1000 325 1078 l 183 1000 q 235 1165 188 1108 q 364 1221 283 1221 q 442 1201 407 1221 q 501 1161 476 1181 q 547 1142 526 1142 q 600 1219 592 1142 l 733 1219 m 101 0 l 101 917 l 815 917 l 815 732 l 340 732 l 340 546 l 718 546 l 718 372 l 340 372 l 340 185 l 833 185 l 833 0 l 101 0 z "},"ẽ":{"ha":804,"x_min":49,"x_max":757,"o":"m 683 997 q 631 833 678 889 q 513 776 585 776 q 431 797 468 776 q 367 836 394 817 q 318 856 339 856 q 265 778 276 856 l 132 778 q 185 942 138 886 q 314 999 233 999 q 392 978 357 999 q 451 939 426 958 q 497 919 476 919 q 550 997 539 919 l 683 997 m 424 -14 q 149 81 250 -14 q 49 347 49 176 q 149 613 49 517 q 413 708 249 708 q 665 617 574 708 q 757 379 757 526 q 751 288 757 332 l 278 288 q 424 153 297 153 q 554 232 521 153 l 743 169 q 626 34 714 82 q 424 -14 538 -14 m 413 543 q 279 414 301 543 l 533 414 q 413 543 518 543 z "},"Ế":{"ha":876,"x_min":101,"x_max":931,"o":"m 740 1347 l 931 1347 l 818 1142 l 664 1142 l 740 1347 m 708 997 l 549 997 l 458 1113 l 369 997 l 208 997 l 351 1224 l 567 1224 l 708 997 m 101 0 l 101 917 l 815 917 l 815 732 l 340 732 l 340 546 l 718 546 l 718 372 l 340 372 l 340 185 l 833 185 l 833 0 l 101 0 z "},"ế":{"ha":804,"x_min":49,"x_max":879,"o":"m 690 1125 l 879 1125 l 768 919 l 614 919 l 690 1125 m 658 775 l 497 775 l 408 890 l 319 775 l 158 775 l 301 1001 l 515 1001 l 658 775 m 424 -14 q 149 81 250 -14 q 49 347 49 176 q 149 613 49 517 q 413 708 249 708 q 665 617 574 708 q 757 379 757 526 q 751 288 757 332 l 278 288 q 424 153 297 153 q 554 232 521 153 l 743 169 q 626 34 714 82 q 424 -14 538 -14 m 413 543 q 279 414 301 543 l 533 414 q 413 543 518 543 z "},"Ề":{"ha":876,"x_min":101,"x_max":844,"o":"m 768 1347 l 844 1142 l 690 1142 l 578 1347 l 768 1347 m 708 997 l 549 997 l 458 1113 l 369 997 l 208 997 l 351 1224 l 567 1224 l 708 997 m 101 0 l 101 917 l 815 917 l 815 732 l 340 732 l 340 546 l 718 546 l 718 372 l 340 372 l 340 185 l 833 185 l 833 0 l 101 0 z "},"ề":{"ha":804,"x_min":49,"x_max":793,"o":"m 717 1125 l 793 919 l 639 919 l 528 1125 l 717 1125 m 658 775 l 497 775 l 408 890 l 319 775 l 158 775 l 301 1001 l 515 1001 l 658 775 m 424 -14 q 149 81 250 -14 q 49 347 49 176 q 149 613 49 517 q 413 708 249 708 q 665 617 574 708 q 757 379 757 526 q 751 288 757 332 l 278 288 q 424 153 297 153 q 554 232 521 153 l 743 169 q 626 34 714 82 q 424 -14 538 -14 m 413 543 q 279 414 301 543 l 533 414 q 413 543 518 543 z "},"Ể":{"ha":876,"x_min":101,"x_max":861,"o":"m 704 1119 l 653 1189 q 725 1263 725 1219 q 713 1294 725 1282 q 678 1307 700 1307 q 624 1268 643 1307 l 517 1321 q 581 1403 533 1374 q 696 1433 628 1433 q 813 1395 765 1433 q 861 1292 861 1357 q 816 1181 861 1224 q 704 1119 771 1139 m 708 997 l 549 997 l 458 1113 l 369 997 l 208 997 l 351 1224 l 567 1224 l 708 997 m 101 0 l 101 917 l 815 917 l 815 732 l 340 732 l 340 546 l 718 546 l 718 372 l 340 372 l 340 185 l 833 185 l 833 0 l 101 0 z "},"ể":{"ha":804,"x_min":49,"x_max":810,"o":"m 654 897 l 603 967 q 674 1040 674 997 q 628 1085 674 1085 q 574 1046 590 1085 l 465 1099 q 530 1181 483 1151 q 644 1211 576 1211 q 762 1173 714 1211 q 810 1069 810 1135 q 765 959 810 1001 q 654 897 719 917 m 658 775 l 497 775 l 408 890 l 319 775 l 158 775 l 301 1001 l 515 1001 l 658 775 m 424 -14 q 149 81 250 -14 q 49 347 49 176 q 149 613 49 517 q 413 708 249 708 q 665 617 574 708 q 757 379 757 526 q 751 288 757 332 l 278 288 q 424 153 297 153 q 554 232 521 153 l 743 169 q 626 34 714 82 q 424 -14 538 -14 m 413 543 q 279 414 301 543 l 533 414 q 413 543 518 543 z "},"Ễ":{"ha":876,"x_min":101,"x_max":833,"o":"m 714 1458 q 666 1308 710 1360 q 556 1257 622 1257 q 448 1293 500 1257 q 376 1329 396 1329 q 328 1260 338 1329 l 204 1260 q 254 1410 210 1360 q 372 1461 299 1461 q 445 1443 414 1461 q 499 1407 476 1425 q 542 1389 522 1389 q 590 1458 582 1389 l 714 1458 m 708 997 l 549 997 l 458 1113 l 369 997 l 208 997 l 351 1224 l 567 1224 l 708 997 m 101 0 l 101 917 l 815 917 l 815 732 l 340 732 l 340 546 l 718 546 l 718 372 l 340 372 l 340 185 l 833 185 l 833 0 l 101 0 z "}}}
